<svg width="960" height="960" viewBox="0 0 960 960" fill="none" xmlns="http://www.w3.org/2000/svg">
<mask id="mask0_278_8322" style="mask-type:luminance" maskUnits="userSpaceOnUse" x="58" y="38" width="845" height="884">
<path d="M903 38H58V922H903V38Z" fill="white"/>
</mask>
<g mask="url(#mask0_278_8322)">
<path fill-rule="evenodd" clip-rule="evenodd" d="M531.424 433.728C563.012 435.011 631.659 419.541 632.259 350.982C632.467 326.798 604.499 307.961 563.667 296.34L563.396 296.152L532.196 341.437C533.74 340.634 535.065 340.384 536.045 340.926C542.179 344.358 529.932 365.671 529.932 365.671C508.881 382.33 507.681 406.856 511.593 420.803C512.897 425.435 514.764 428.898 516.652 430.515C518.614 432.205 523.986 433.428 531.424 433.728ZM614.951 330.209C614.549 329.485 613.636 329.223 612.912 329.625C612.187 330.027 611.926 330.94 612.328 331.664C623.277 351.406 620.31 377.988 605.279 394.832C604.728 395.45 604.782 396.398 605.4 396.95C606.018 397.501 606.966 397.447 607.518 396.829C623.397 379.033 626.52 351.067 614.951 330.209Z" fill="url(#paint0_linear_278_8322)"/>
<path fill-rule="evenodd" clip-rule="evenodd" d="M563.046 817.843C559.361 795.758 506.346 462.918 506.346 462.918L506.297 462.191L446.23 466.191C446.23 466.191 452.594 469.905 447.806 476.164C443.164 482.238 437.322 479.784 436.977 479.638L436.748 480.003C445.354 485.407 452.563 490.905 451.123 493.471C448.056 498.927 410.512 482.611 404.931 480.149C410.23 482.57 443.716 498.113 438.97 503.663C434.87 508.442 409.771 496.591 399.704 491.563C409.333 496.633 432.001 509.37 427.922 515.202C426.337 517.474 420.578 516.297 413.37 513.574L413.099 514.274L312.779 659.841L313.679 660.467C361.279 655.899 405.834 626.417 426.813 547.604L468.058 842.149C468.058 842.149 470.067 854.793 486.258 857.025C490.241 857.525 494.274 857.476 498.244 856.879C525.492 853.196 550.529 842.879 550.529 842.879C553.041 842.282 555.373 841.091 557.329 839.405C561.246 836.088 565.028 829.743 563.046 817.843ZM497.848 477.319C497.702 476.504 496.923 475.961 496.108 476.106C495.292 476.252 494.749 477.031 494.894 477.847C514.985 590.418 531.733 703.45 545.14 816.943C545.238 817.766 545.983 818.354 546.806 818.257C547.629 818.159 548.217 817.414 548.12 816.591C534.706 703.039 517.948 589.949 497.848 477.319Z" fill="white"/>
<path d="M900.724 128.616L899.942 229.19L795.393 233.394V134.875L899.952 128.605L900.724 128.616Z" fill="white"/>
<path d="M899.034 347.311L795.393 350.243V233.395L899.942 229.191L899.034 347.311Z" fill="url(#paint1_linear_278_8322)"/>
<path d="M895.602 792.086L795.393 793.557V694.517L895.602 691.93L896.374 691.94L895.602 792.086Z" fill="white"/>
<path d="M795.393 580.36V468.061L895.602 466.193L898.116 466.214L897.271 576.323L895.602 576.313L795.393 580.36Z" fill="url(#paint2_linear_278_8322)"/>
<path d="M795.393 350.244V468.062L696.092 469.908L693.755 469.929L692.555 353.154H692.566L795.393 350.244Z" fill="white"/>
<path d="M760.707 136.962C753.519 143.607 746.164 149.345 740.03 152.715C740.03 152.715 723.423 146.289 722.098 141.125C720.742 135.857 733.615 127.282 732.405 121.982C730.454 113.407 706.231 110.142 703.686 101.723C701.944 95.9442 712.428 79.2012 712.428 79.2012C735.159 86.4302 760.497 99.6272 781.371 93.6282C803.644 87.2232 782.979 116.391 760.707 136.962Z" fill="url(#paint3_linear_278_8322)"/>
<path d="M732.404 121.982C733.614 127.282 720.741 135.857 722.097 141.125C723.422 146.289 740.03 152.715 740.03 152.715C724.059 161.488 707.42 166.923 690.676 162.896C682.352 160.783 674.628 156.779 668.102 151.196L643.117 133.765C643.117 133.765 657.482 79.0911 684.908 75.2211C686.505 75.0042 688.115 74.8926 689.727 74.8871C696.769 74.8561 704.436 76.6611 712.427 79.2061C712.427 79.2061 701.943 95.9491 703.685 101.728C706.23 110.142 730.453 113.407 732.404 121.982Z" fill="white"/>
<path d="M795.394 899.587H698.169L697.094 795.007L795.394 793.557V899.587Z" fill="white"/>
<path d="M795.393 793.558L697.093 795.008L696.092 697.073L795.393 694.518V793.558Z" fill="url(#paint4_linear_278_8322)"/>
<path d="M651.412 176.469L643.306 188.247L639.624 185.555L619.626 170.94L616.611 168.739L625.447 155.668L628.055 157.754L647.813 173.59L651.412 176.469Z" fill="white"/>
<path d="M531.425 433.73L540.584 459.914L506.294 462.199L446.227 466.199L484.648 410.451C498.804 419.475 511.135 420.768 511.594 420.81C512.894 425.442 514.765 428.905 516.653 430.522C518.615 432.207 523.987 433.428 531.425 433.73Z" fill="url(#paint5_linear_278_8322)"/>
<path d="M392.941 455.189L373.83 493.672L365.881 509.672C365.881 509.672 362.313 509.672 356.419 509.14C324.873 506.313 226.813 488.318 255.981 373.817C268.05 326.417 323.892 299.437 389.019 288.672C413.686 284.686 438.652 282.845 463.638 283.172C488.408 283.347 513.114 285.692 537.475 290.182L538.06 290.582L503.96 340.634C467.072 336.753 482.042 361.79 482.042 361.79C482.042 361.79 474.437 358.107 470.755 363.261C467.166 368.289 474.302 375.174 474.667 375.518C474.281 375.362 464.287 371.218 459.958 376.518C455.535 381.911 463.658 390.747 463.658 390.747C464.764 392.239 465.901 393.668 467.049 395.014L466.704 395.306L427.626 452.671L425.905 451.502C413.21 444.507 392.941 455.189 392.941 455.189Z" fill="url(#paint6_linear_278_8322)"/>
<path d="M485.69 885.799C508.943 894.364 532.54 902.999 557.222 905.244C581.81 907.477 608.022 902.657 627.022 886.915C626.25 893.015 623.444 900.091 620.481 903.763C615.328 910.137 592.252 917.011 575.071 919.963C557.89 922.915 495.299 902.039 488.424 895.905C486.494 894.183 485.482 890.405 485.002 885.859L485.69 885.799Z" fill="white"/>
<path d="M392.999 224.215C393.748 223.645 394.462 223.032 395.137 222.379C395.016 222.473 394.171 223.151 392.999 224.215ZM463.687 173.568C464.605 173.088 484.999 162.521 485.479 174.997C485.969 187.755 460.525 184.814 460.525 184.814H459.951C459.951 184.814 422.636 186.284 414.051 186.535C405.466 186.786 406.196 194.63 406.196 194.63L405.122 237.839C405.122 237.839 393.678 246.424 386.313 240.781C380.68 236.462 388.839 227.97 392.98 224.225C389.444 226.925 382.485 230.777 379.438 222.368C375.266 210.831 393.678 201.755 393.678 201.755C393.678 201.755 390.726 183.092 397.11 175.487C403.494 167.882 422.887 172.295 422.887 172.295C422.887 172.295 409.138 159.537 417.734 151.431C426.33 143.325 437.368 167.142 437.368 167.142C437.368 167.142 435.647 145.297 446.204 145.047C456.187 144.818 455.414 165.88 455.303 168.175C455.47 166.12 457.223 148.552 468.792 153.675C480.777 158.984 464.452 172.921 463.691 173.568H463.687Z" fill="white"/>
<path d="M456.511 273.673C456.511 273.673 464.127 272.254 463.636 283.145V283.176C438.651 282.85 413.685 284.69 389.017 288.676C389.017 288.676 385.084 273.914 393.917 273.676C395.732 273.623 399.456 273.592 404.224 273.582C414.155 273.55 428.624 273.582 439.817 273.603L456.511 273.673Z" fill="url(#paint7_linear_278_8322)"/>
<path d="M392.545 503.967L392.274 504.562L285.764 660.899L285.075 660.429C214.597 653.993 146.331 604.316 145.215 588.699C145.048 586.446 144.891 582.784 144.891 578.288C144.87 558.322 147.906 521.788 167.362 517.877C173.517 516.636 181.309 518.66 191.178 525.513C311.698 609.213 356.367 509.678 356.367 509.678L356.419 509.146C362.313 509.678 365.881 509.678 365.881 509.678L373.83 493.678C373.83 493.678 382.29 498.668 392.545 503.967Z" fill="white"/>
<path d="M164.137 510.008C125.096 517.974 89.1091 536.832 60.3403 564.4L59.7403 564.432C59.5213 560.666 59.9693 557.255 61.3403 554.72C67.1193 543.92 142.34 503.666 155.102 503.666C160.652 503.666 163.702 506.347 165.356 509.383L164.137 510.008Z" fill="white"/>
<path d="M690.604 163.209L691.367 237.578L692.556 353.153L693.755 469.928L694.935 584.418L696.093 697.072L697.094 795.007L698.169 899.587H795.393H894.779L895.603 792.086L896.375 691.94L897.271 576.323L898.117 466.214L899.034 347.311L899.943 229.191L900.724 128.617L901.403 40.2383L795.393 41.9283L689.395 43.6183L689.719 74.1103" stroke="white" stroke-width="3" stroke-linecap="round" stroke-linejoin="round"/>
<path d="M494.141 355.041L501.298 344.526L503.958 340.635L538.06 290.583L618.636 172.295" stroke="white" stroke-width="3" stroke-linecap="round" stroke-linejoin="round"/>
<path d="M416.756 468.624L427.626 452.674L466.704 395.309" stroke="white" stroke-width="3" stroke-linecap="round" stroke-linejoin="round"/>
<path d="M413.098 514.274L312.781 659.841L254.132 744.941C254.132 744.941 244.932 763.841 234.132 759.42C223.332 754.999 239.032 729.48 239.032 729.48L285.762 660.899L392.272 504.566" stroke="white" stroke-width="3" stroke-linecap="round" stroke-linejoin="round"/>
<path d="M484.647 410.445L446.226 466.193L436.963 479.63" stroke="white" stroke-width="3" stroke-linecap="round" stroke-linejoin="round"/>
<path d="M639.623 185.555L563.397 296.154L532.195 341.439" stroke="white" stroke-width="3" stroke-linecap="round" stroke-linejoin="round"/>
<path d="M628.055 157.754L625.447 155.668L616.611 168.739L619.626 170.94L639.624 185.555L643.306 188.247L651.412 176.469L647.813 173.59L628.055 157.754Z" stroke="white" stroke-width="3" stroke-linecap="round" stroke-linejoin="round"/>
<path d="M647.813 173.589L668.103 151.191L643.118 133.76L628.055 157.753" stroke="white" stroke-width="3" stroke-linecap="round" stroke-linejoin="round"/>
<path d="M643.117 133.761C643.117 133.761 657.482 79.0872 684.908 75.2172C686.505 75.0003 688.115 74.8887 689.727 74.8832C696.769 74.8522 704.436 76.6572 712.427 79.2022C735.158 86.4312 760.497 99.6282 781.371 93.6292C803.644 87.2242 782.978 116.392 760.706 136.963C753.518 143.608 746.164 149.346 740.03 152.716C724.059 161.489 707.42 166.924 690.676 162.897C682.352 160.784 674.628 156.78 668.102 151.197" stroke="white" stroke-width="3" stroke-linecap="round" stroke-linejoin="round"/>
<path d="M537.475 290.186C513.114 285.696 488.408 283.35 463.638 283.176C438.652 282.849 413.686 284.69 389.019 288.676C323.892 299.439 268.05 326.416 255.981 373.819C226.813 488.319 324.873 506.319 356.419 509.142C362.313 509.674 365.881 509.673 365.881 509.673L373.83 493.673L392.941 455.19C392.941 455.19 296.477 435.673 312.678 384.869" stroke="white" stroke-width="3" stroke-linecap="round" stroke-linejoin="round"/>
<path d="M575.561 349.148C554.697 351.485 540.03 357.682 529.932 365.673C508.881 382.332 507.681 406.858 511.593 420.805C512.893 425.437 514.764 428.9 516.652 430.517C518.614 432.207 523.986 433.428 531.424 433.73C563.012 435.013 631.664 419.543 632.259 350.984C632.467 326.803 604.499 307.963 563.669 296.342" stroke="white" stroke-width="3" stroke-linecap="round" stroke-linejoin="round"/>
<path d="M313.68 660.467C361.28 655.898 405.835 626.417 426.814 547.604L468.051 842.149C468.051 842.149 470.064 854.793 486.251 857.025C490.234 857.525 494.267 857.476 498.237 856.879C525.485 853.196 550.522 842.879 550.522 842.879C553.034 842.282 555.366 841.09 557.322 839.405C561.234 836.088 565.022 829.746 563.039 817.843C559.357 795.758 506.339 462.918 506.339 462.918" stroke="white" stroke-width="3" stroke-linecap="round" stroke-linejoin="round"/>
<path d="M356.367 509.674C356.367 509.674 311.7 609.205 191.178 525.509C181.309 518.656 173.517 516.632 167.362 517.873C147.906 521.785 144.87 558.318 144.891 578.284C144.891 582.784 145.048 586.442 145.215 588.695C146.331 604.312 214.597 653.989 285.075 660.425" stroke="white" stroke-width="3" stroke-linecap="round" stroke-linejoin="round"/>
<path d="M531.424 433.729L540.583 459.913L506.293 462.198L446.226 466.198C446.226 466.198 452.59 469.912 447.802 476.171C443.16 482.243 437.318 479.791 436.973 479.645C436.973 479.642 436.972 479.639 436.97 479.637C436.968 479.636 436.966 479.634 436.963 479.634" stroke="white" stroke-width="3" stroke-linecap="round" stroke-linejoin="round"/>
<path d="M389.017 288.674C389.017 288.674 385.084 273.912 393.917 273.674C395.732 273.621 399.456 273.59 404.224 273.58C414.155 273.548 428.624 273.58 439.817 273.601L456.508 273.674C456.508 273.674 464.124 272.255 463.633 283.146" stroke="white" stroke-width="3" stroke-linecap="round" stroke-linejoin="round"/>
<path d="M404.229 273.558L405.129 237.839L406.203 194.63C406.203 194.63 405.463 186.775 414.058 186.535C422.653 186.295 459.958 184.814 459.958 184.814L457.746 242.492C457.746 242.606 457.705 253.8 441.441 256.492L439.824 273.559" stroke="white" stroke-width="3" stroke-linecap="round" stroke-linejoin="round"/>
<path d="M392.982 224.225C388.841 227.97 380.682 236.462 386.316 240.781C393.681 246.424 405.125 237.839 405.125 237.839" stroke="white" stroke-width="3" stroke-linecap="round" stroke-linejoin="round"/>
<path d="M395.153 222.369L395.142 222.38C395.017 222.474 394.172 223.152 393.004 224.216" stroke="white" stroke-width="3" stroke-linecap="round" stroke-linejoin="round"/>
<path d="M393 224.215C393.748 223.646 394.462 223.033 395.138 222.379" stroke="white" stroke-width="3" stroke-linecap="round" stroke-linejoin="round"/>
<path d="M393 224.215C392.992 224.215 392.984 224.219 392.979 224.225" stroke="white" stroke-width="3" stroke-linecap="round" stroke-linejoin="round"/>
<path d="M455.293 168.373C455.293 168.373 455.293 168.31 455.303 168.196V168.175C455.418 165.88 456.19 144.818 446.203 145.047C435.646 145.297 437.367 167.147 437.367 167.147C437.367 167.147 426.319 143.341 417.734 151.436C409.149 159.531 422.887 172.3 422.887 172.3C422.887 172.3 403.494 167.888 397.11 175.492C390.726 183.096 393.678 201.76 393.678 201.76C393.678 201.76 375.266 210.836 379.438 222.373C382.485 230.782 389.438 226.932 392.979 224.23" stroke="white" stroke-width="3" stroke-linecap="round" stroke-linejoin="round"/>
<path d="M463.658 173.589C463.667 173.58 463.678 173.573 463.69 173.568C464.451 172.921 480.777 158.984 468.79 153.674C457.221 148.552 455.468 166.12 455.301 168.174" stroke="white" stroke-width="3" stroke-linecap="round" stroke-linejoin="round"/>
<path d="M460.529 184.813C460.529 184.813 485.972 187.754 485.482 174.996C485.002 162.52 464.608 173.087 463.69 173.567" stroke="white" stroke-width="3" stroke-linecap="round" stroke-linejoin="round"/>
<path d="M428.283 230.714L436.628 229.191L434.98 194.88L453.079 193.879" stroke="white" stroke-width="3" stroke-linecap="round" stroke-linejoin="round"/>
<path d="M445.225 206.659C445.225 206.659 446.696 203.227 449.638 203.467C450.48 203.555 451.271 203.913 451.891 204.489C452.512 205.064 452.929 205.826 453.08 206.659" stroke="white" stroke-width="3" stroke-linecap="round" stroke-linejoin="round"/>
<path d="M416.745 206.658C416.745 206.658 416.505 203.685 420.427 203.458C421.553 203.397 422.672 203.668 423.645 204.237C424.619 204.805 425.404 205.647 425.904 206.658" stroke="white" stroke-width="3" stroke-linecap="round" stroke-linejoin="round"/>
<path d="M416.746 243.723C416.746 243.723 418.467 249.857 428.284 246.664" stroke="white" stroke-width="3" stroke-linecap="round" stroke-linejoin="round"/>
<path d="M167.361 517.874C167.376 514.924 166.685 512.012 165.347 509.383C163.689 506.347 160.647 503.666 155.093 503.666C142.335 503.666 67.1099 543.923 61.3309 554.72C59.9639 557.255 59.5159 560.666 59.7309 564.432C60.4089 576.689 68.0759 592.713 74.0849 594.976C81.9399 597.918 78.5079 597.918 86.3629 594.976C94.2179 592.034 129.27 575.823 144.876 578.285" stroke="white" stroke-width="3" stroke-linecap="round" stroke-linejoin="round"/>
<path d="M486.213 857.359C486.213 857.359 483.793 874.165 485.003 885.859C485.483 890.407 486.495 894.183 488.425 895.905C495.299 902.039 557.891 922.905 575.072 919.961C592.253 917.017 615.329 910.134 620.482 903.761C623.445 900.089 626.251 893.016 627.023 886.913C627.586 882.407 627.054 878.422 624.655 876.753C619.011 872.83 572.37 862.033 566.966 854.418C561.562 846.803 557.327 839.406 557.327 839.406" stroke="white" stroke-width="3" stroke-linecap="round" stroke-linejoin="round"/>
<path d="M501.298 344.526C494.663 348.426 493.14 351.984 494.131 355.04C496.249 361.529 509.779 365.672 509.779 365.672C509.779 365.672 524.018 345.726 532.197 341.438C533.741 340.638 535.066 340.385 536.046 340.927C542.18 344.359 529.933 365.672 529.933 365.672" stroke="white" stroke-width="3" stroke-linecap="round" stroke-linejoin="round"/>
<path d="M474.674 375.53L474.664 375.519C474.299 375.175 467.164 368.29 470.752 363.262C474.434 358.108 482.039 361.791 482.039 361.791C482.039 361.791 467.069 336.754 503.957 340.635" stroke="white" stroke-width="3" stroke-linecap="round" stroke-linejoin="round"/>
<path d="M511.598 420.804H511.588C511.129 420.762 498.798 419.469 484.642 410.445C478.033 406.217 472.1 401.016 467.042 395.017C465.894 393.671 464.757 392.242 463.651 390.75C463.651 390.75 455.525 381.914 459.951 376.521C464.28 371.221 474.274 375.363 474.66 375.521" stroke="white" stroke-width="3" stroke-linecap="round" stroke-linejoin="round"/>
<path d="M712.428 79.1992C712.428 79.1992 701.944 95.9422 703.686 101.721C706.231 110.14 730.454 113.405 732.405 121.98C733.615 127.28 720.742 135.855 722.098 141.123C723.423 146.287 740.03 152.713 740.03 152.713" stroke="white" stroke-width="3" stroke-linecap="round" stroke-linejoin="round"/>
<path d="M795.393 41.9277V134.876V233.395V350.243V468.061V580.36V694.517V793.557V899.587" stroke="white" stroke-width="3" stroke-linecap="round" stroke-linejoin="round"/>
<path d="M697.094 795.007L795.394 793.557L895.603 792.086" stroke="white" stroke-width="3" stroke-linecap="round" stroke-linejoin="round"/>
<path d="M696.092 697.072L795.393 694.517L895.602 691.93" stroke="white" stroke-width="3" stroke-linecap="round" stroke-linejoin="round"/>
<path d="M694.934 584.417L795.393 580.359L895.602 576.312" stroke="white" stroke-width="3" stroke-linecap="round" stroke-linejoin="round"/>
<path d="M696.092 469.907L795.393 468.061L895.602 466.193" stroke="white" stroke-width="3" stroke-linecap="round" stroke-linejoin="round"/>
<path d="M692.564 353.153L795.391 350.243L899.032 347.311" stroke="white" stroke-width="3" stroke-linecap="round" stroke-linejoin="round"/>
<path d="M691.377 237.578L795.394 233.395L899.943 229.191H899.953" stroke="white" stroke-width="3" stroke-linecap="round" stroke-linejoin="round"/>
<path d="M760.695 136.961H760.706L795.392 134.875L899.951 128.605" stroke="white" stroke-width="3" stroke-linecap="round" stroke-linejoin="round"/>
<path d="M392.939 455.188C392.939 455.188 413.208 444.506 425.904 451.505" stroke="white" stroke-width="3" stroke-linecap="round" stroke-linejoin="round"/>
<path d="M399.699 491.564C409.328 496.634 431.999 509.371 427.917 515.203C426.332 517.477 420.573 516.303 413.365 513.575C406.252 510.76 399.301 507.552 392.543 503.967C382.288 498.667 373.828 493.667 373.828 493.667" stroke="white" stroke-width="3" stroke-linecap="round" stroke-linejoin="round"/>
<path d="M395.518 489.426C395.546 489.437 395.574 489.451 395.601 489.468C395.64 489.493 395.683 489.514 395.727 489.531C395.771 489.551 395.812 489.575 395.852 489.604C395.862 489.604 395.873 489.614 395.883 489.614C396.426 489.875 397.542 490.438 399.034 491.221" stroke="white" stroke-width="3" stroke-linecap="round" stroke-linejoin="round"/>
<path d="M399.034 491.22C397.521 490.469 396.415 489.895 395.883 489.613" stroke="white" stroke-width="3" stroke-linecap="round" stroke-linejoin="round"/>
<path d="M399.033 491.221C399.147 491.283 399.272 491.346 399.398 491.408C399.492 491.461 399.598 491.508 399.698 491.565" stroke="white" stroke-width="3" stroke-linecap="round" stroke-linejoin="round"/>
<path d="M404.227 479.838C404.259 479.85 404.291 479.864 404.321 479.88C404.36 479.895 404.398 479.912 404.435 479.932C404.529 479.974 404.654 480.026 404.8 480.099C404.844 480.112 404.886 480.129 404.926 480.151C410.226 482.572 443.711 498.115 438.965 503.665C434.865 508.443 409.765 496.592 399.699 491.565" stroke="white" stroke-width="3" stroke-linecap="round" stroke-linejoin="round"/>
<path d="M412.084 466.193C412.084 466.193 413.899 467.111 416.757 468.624C421.681 471.224 429.682 475.582 436.745 480.005C445.351 485.405 452.56 490.905 451.12 493.473C448.053 498.929 410.509 482.613 404.928 480.151" stroke="white" stroke-width="3" stroke-linecap="round" stroke-linejoin="round"/>
<path d="M135.157 578.19C129.017 569.907 124.488 560.545 121.805 550.59" stroke="white" stroke-width="3" stroke-linecap="round" stroke-linejoin="round"/>
<path d="M117.3 582.123C114.324 579.551 111.985 576.323 110.468 572.694C108.951 569.064 108.297 565.132 108.558 561.207" stroke="white" stroke-width="3" stroke-linecap="round" stroke-linejoin="round"/>
<path d="M99.918 589.166C95.2398 583.348 92.8012 576.046 93.0439 568.584" stroke="white" stroke-width="3" stroke-linecap="round" stroke-linejoin="round"/>
<path d="M60.3398 564.4C89.1095 536.831 125.098 517.973 164.14 510.008" stroke="white" stroke-width="3" stroke-linecap="round" stroke-linejoin="round"/>
<path d="M485.689 885.799C508.942 894.364 532.539 902.999 557.221 905.244C581.809 907.477 608.021 902.657 627.021 886.915C627.094 886.853 627.177 886.79 627.25 886.728" stroke="white" stroke-width="3" stroke-linecap="round" stroke-linejoin="round"/>
<path d="M593.628 866.904C584.645 870.378 576.854 876.368 571.189 884.158" stroke="white" stroke-width="3" stroke-linecap="round" stroke-linejoin="round"/>
<path d="M576.678 860.947C569.311 864.453 562.6 869.195 556.836 874.968" stroke="white" stroke-width="3" stroke-linecap="round" stroke-linejoin="round"/>
<path d="M564.499 852.811C556.994 857.05 549.739 861.718 542.77 866.79" stroke="white" stroke-width="3" stroke-linecap="round" stroke-linejoin="round"/>
<path d="M233.493 173.342C235.358 185.781 239.958 197.612 243.693 209.624C247.428 221.636 250.329 234.256 248.653 246.724C246.977 259.192 239.93 271.555 228.419 276.624C216.908 281.693 201.176 277.101 196.554 265.403C191.932 253.705 203.328 238.297 215.516 241.403C227.886 244.558 231.08 260.919 228.754 273.472C225.821 289.3 216.821 305.206 201.807 311.013C192.451 314.633 182.043 313.92 172.157 315.628C160.694 317.631 150.04 322.866 141.449 330.716C135.369 336.294 130.334 343.375 128.74 351.471C127.146 359.567 129.51 368.716 135.933 373.895C142.356 379.074 152.903 378.995 158.28 372.734C163.657 366.473 161.116 354.852 153.205 352.505" stroke="white" stroke-width="3" stroke-linecap="round" stroke-linejoin="round"/>
<path d="M246.545 477.44C240.816 473.369 236.229 467.894 233.224 461.541C230.219 455.188 228.897 448.169 229.384 441.158" stroke="white" stroke-width="3" stroke-linecap="round" stroke-linejoin="round"/>
<path d="M596.486 429.732C603.31 428.616 609.674 425.577 614.832 420.972C619.989 416.367 623.727 410.387 625.606 403.732" stroke="white" stroke-width="3" stroke-linecap="round" stroke-linejoin="round"/>
<path d="M602.07 515.2L609.802 498.631" stroke="white" stroke-width="3" stroke-linecap="round" stroke-linejoin="round"/>
<path d="M612.009 511.884C606.993 508.777 601.319 506.885 595.441 506.361" stroke="white" stroke-width="3" stroke-linecap="round" stroke-linejoin="round"/>
<path d="M501.352 202.405L514.663 189.205" stroke="white" stroke-width="3" stroke-linecap="round" stroke-linejoin="round"/>
<path d="M512.688 203.622L500.814 192.287" stroke="white" stroke-width="3" stroke-linecap="round" stroke-linejoin="round"/>
<path d="M711.398 178.954C718.976 179.186 726.502 177.628 733.365 174.407C740.227 171.186 746.235 166.393 750.898 160.416" stroke="white" stroke-width="3" stroke-linecap="round" stroke-linejoin="round"/>
<path d="M721.48 70.6562L752.28 77.8504" stroke="white" stroke-width="3" stroke-linecap="round" stroke-linejoin="round"/>
<path d="M207.531 363.821L212.623 343.83" stroke="white" stroke-width="3" stroke-linecap="round" stroke-linejoin="round"/>
<path d="M217.73 358.223L201.215 352.547" stroke="white" stroke-width="3" stroke-linecap="round" stroke-linejoin="round"/>
<path d="M209.15 217.859L198.971 203.67" stroke="white" stroke-width="3" stroke-linecap="round" stroke-linejoin="round"/>
<path d="M195.469 217.921L210.037 206.021" stroke="white" stroke-width="3" stroke-linecap="round" stroke-linejoin="round"/>
<path d="M365.898 775.823L360.398 753.723" stroke="white" stroke-width="3" stroke-linecap="round" stroke-linejoin="round"/>
<path d="M353.545 767.037L369.009 760.41" stroke="white" stroke-width="3" stroke-linecap="round" stroke-linejoin="round"/>
<path d="M441.786 809.036C435.913 780.316 433.082 751.057 433.338 721.744" stroke="white" stroke-width="3" stroke-linecap="round" stroke-linejoin="round"/>
<path d="M279.479 544.327C285.337 545.123 291.299 544.476 296.85 542.442C302.401 540.409 307.372 537.05 311.328 532.658" stroke="white" stroke-width="3" stroke-linecap="round" stroke-linejoin="round"/>
<path d="M375.89 145.946L371.536 159.151C371.405 159.55 371.155 159.898 370.819 160.15C370.483 160.402 370.079 160.545 369.659 160.56C369.24 160.575 368.826 160.461 368.474 160.234C368.121 160.006 367.847 159.676 367.687 159.288L362.41 146.424C362.256 146.049 361.995 145.727 361.658 145.5C361.321 145.274 360.925 145.152 360.519 145.15L346.619 145.089C346.199 145.088 345.79 144.958 345.447 144.716C345.103 144.475 344.842 144.134 344.698 143.74C344.555 143.346 344.535 142.917 344.643 142.511C344.75 142.105 344.98 141.742 345.3 141.471L355.9 132.471C356.21 132.209 356.435 131.861 356.546 131.471C356.658 131.081 356.652 130.666 356.528 130.28L352.288 117.037C352.16 116.637 352.158 116.208 352.281 115.807C352.405 115.406 352.648 115.052 352.979 114.794C353.309 114.535 353.711 114.384 354.13 114.361C354.549 114.338 354.965 114.444 355.322 114.664L367.153 121.97C367.498 122.183 367.899 122.289 368.305 122.275C368.71 122.261 369.102 122.126 369.431 121.889L380.715 113.765C381.056 113.52 381.463 113.386 381.883 113.379C382.302 113.373 382.714 113.495 383.062 113.729C383.41 113.964 383.677 114.299 383.829 114.69C383.981 115.081 384.009 115.509 383.91 115.917L380.618 129.426C380.522 129.82 380.545 130.234 380.684 130.615C380.823 130.997 381.072 131.328 381.399 131.568L392.612 139.79C392.95 140.039 393.203 140.384 393.338 140.781C393.473 141.177 393.484 141.606 393.368 142.009C393.253 142.411 393.017 142.769 392.692 143.034C392.368 143.299 391.97 143.458 391.552 143.49L377.687 144.534C377.281 144.565 376.894 144.716 376.574 144.967C376.254 145.218 376.016 145.559 375.89 145.946Z" fill="white"/>
<path d="M586.491 111.193L579.418 117.006C579.204 117.182 578.942 117.288 578.667 117.31C578.391 117.332 578.116 117.269 577.877 117.13C577.639 116.991 577.449 116.781 577.333 116.531C577.217 116.28 577.18 115.999 577.229 115.727L578.823 106.712C578.869 106.45 578.837 106.179 578.731 105.934C578.624 105.689 578.447 105.482 578.223 105.337L570.509 100.407C570.276 100.259 570.094 100.042 569.988 99.7869C569.882 99.5317 569.857 99.2503 569.916 98.9803C569.975 98.7104 570.115 98.4649 570.317 98.277C570.52 98.0891 570.775 97.9678 571.049 97.9293L580.116 96.6603C580.38 96.6231 580.628 96.5082 580.828 96.3302C581.027 96.1522 581.169 95.9191 581.237 95.6603L583.537 86.8003C583.606 86.5329 583.756 86.2932 583.966 86.1136C584.176 85.934 584.436 85.823 584.711 85.7957C584.986 85.7684 585.263 85.8259 585.504 85.9607C585.745 86.0954 585.94 86.3009 586.061 86.5493L590.07 94.7793C590.187 95.0202 590.373 95.2207 590.604 95.3555C590.836 95.4903 591.102 95.5533 591.37 95.5363L600.509 94.9913C600.784 94.9751 601.058 95.0436 601.294 95.1878C601.529 95.332 601.715 95.5448 601.826 95.7977C601.937 96.0506 601.968 96.3314 601.915 96.6024C601.861 96.8733 601.726 97.1215 601.528 97.3133L594.939 103.669C594.746 103.855 594.614 104.093 594.557 104.354C594.5 104.615 594.521 104.888 594.619 105.136L597.962 113.658C598.062 113.916 598.082 114.198 598.018 114.466C597.954 114.735 597.808 114.978 597.602 115.161C597.396 115.345 597.138 115.461 596.864 115.494C596.589 115.527 596.311 115.475 596.068 115.345L587.987 111.045C587.751 110.919 587.482 110.866 587.216 110.892C586.95 110.919 586.697 111.023 586.491 111.193Z" fill="white"/>
<path d="M614.725 596.799L605.57 604.324C605.294 604.551 604.955 604.688 604.598 604.717C604.241 604.745 603.885 604.664 603.576 604.483C603.267 604.303 603.021 604.032 602.87 603.707C602.72 603.383 602.673 603.02 602.735 602.668L604.799 590.999C604.859 590.658 604.817 590.308 604.678 589.991C604.539 589.674 604.309 589.406 604.018 589.22L594.033 582.838C593.731 582.645 593.496 582.365 593.359 582.035C593.221 581.704 593.189 581.34 593.265 580.99C593.341 580.641 593.523 580.323 593.785 580.08C594.048 579.837 594.379 579.68 594.733 579.631L606.469 577.987C606.812 577.939 607.132 577.791 607.39 577.561C607.649 577.331 607.833 577.029 607.92 576.695L610.904 565.226C610.994 564.879 611.188 564.569 611.46 564.337C611.732 564.104 612.068 563.96 612.424 563.925C612.78 563.889 613.138 563.964 613.451 564.138C613.763 564.312 614.014 564.578 614.171 564.9L619.36 575.554C619.512 575.865 619.752 576.124 620.05 576.298C620.349 576.473 620.693 576.555 621.038 576.535L632.867 575.828C633.224 575.807 633.579 575.895 633.884 576.082C634.189 576.268 634.429 576.544 634.573 576.871C634.717 577.199 634.757 577.562 634.688 577.913C634.618 578.264 634.443 578.585 634.186 578.834L625.658 587.062C625.409 587.302 625.236 587.611 625.163 587.949C625.089 588.287 625.117 588.64 625.244 588.962L629.571 599.994C629.702 600.327 629.728 600.692 629.645 601.04C629.561 601.388 629.374 601.702 629.107 601.94C628.839 602.178 628.506 602.328 628.151 602.37C627.795 602.413 627.436 602.345 627.12 602.177L616.659 596.609C616.354 596.445 616.008 596.376 615.663 596.41C615.319 596.444 614.992 596.579 614.725 596.799Z" fill="white"/>
<path d="M136.999 726.551C135.731 784.205 172.125 840.913 225.067 863.776C236.833 868.857 250.008 872.4 262.412 869.176C268.344 867.568 273.781 864.506 278.231 860.267C282.682 856.028 286.004 850.746 287.899 844.899C290.299 837.205 289.962 828.445 285.861 821.505C281.76 814.565 273.589 809.896 265.605 811.011C255.875 812.371 248.883 821.493 246.074 830.911C240.48 849.656 248.529 871.621 264.909 882.311C281.686 893.264 304.67 891.834 321.999 881.776C339.328 871.718 351.406 854.229 358.447 835.476C361.584 827.122 363.847 818.404 367.896 810.453C371.945 802.502 378.158 795.162 386.571 792.189C394.984 789.216 405.719 791.84 410.013 799.662C414.307 807.484 408.883 819.409 399.961 819.555" stroke="white" stroke-width="3" stroke-linecap="round" stroke-linejoin="round"/>
<path d="M237.627 775.76C240.057 777.049 242.777 777.695 245.527 777.637C248.277 777.579 250.967 776.819 253.341 775.429C255.715 774.039 257.694 772.065 259.09 769.695C260.486 767.325 261.253 764.637 261.318 761.887" stroke="white" stroke-width="3" stroke-linecap="round" stroke-linejoin="round"/>
<path d="M214.779 665.498C201.678 665.051 188.823 661.821 177.067 656.021C165.312 650.221 154.926 641.986 146.6 631.861" stroke="white" stroke-width="3" stroke-linecap="round" stroke-linejoin="round"/>
<path d="M179.28 882.699L173.145 870.299" stroke="white" stroke-width="3" stroke-linecap="round" stroke-linejoin="round"/>
<path d="M169.1 879.731L183.8 873.043" stroke="white" stroke-width="3" stroke-linecap="round" stroke-linejoin="round"/>
<path d="M369.377 878.966L362.75 867.92" stroke="white" stroke-width="3" stroke-linecap="round" stroke-linejoin="round"/>
<path d="M359.791 878.193C365.175 876.226 369.828 872.657 373.121 867.965" stroke="white" stroke-width="3" stroke-linecap="round" stroke-linejoin="round"/>
<path d="M369.785 468.798L367.885 459.605" stroke="white" stroke-width="3" stroke-linecap="round" stroke-linejoin="round"/>
<path d="M316.432 476.304L324.521 471.865" stroke="white" stroke-width="3" stroke-linecap="round" stroke-linejoin="round"/>
<path d="M314.998 439.322L312.533 430.557" stroke="white" stroke-width="3" stroke-linecap="round" stroke-linejoin="round"/>
<path d="M275.521 417.043L283.976 415.143" stroke="white" stroke-width="3" stroke-linecap="round" stroke-linejoin="round"/>
<path d="M297.324 363.411L291.73 356.844" stroke="white" stroke-width="3" stroke-linecap="round" stroke-linejoin="round"/>
<path d="M341.578 371.405L350.452 361.535" stroke="white" stroke-width="3" stroke-linecap="round" stroke-linejoin="round"/>
<path d="M366.392 418.408L360.512 412.873" stroke="white" stroke-width="3" stroke-linecap="round" stroke-linejoin="round"/>
<path d="M346.551 328.53L349.864 319.33" stroke="white" stroke-width="3" stroke-linecap="round" stroke-linejoin="round"/>
<path d="M400.39 366.735L392.227 358.699" stroke="white" stroke-width="3" stroke-linecap="round" stroke-linejoin="round"/>
<path d="M420.381 415.59L426.213 408.912" stroke="white" stroke-width="3" stroke-linecap="round" stroke-linejoin="round"/>
<path d="M426.813 335.156L419.449 328.529" stroke="white" stroke-width="3" stroke-linecap="round" stroke-linejoin="round"/>
<path d="M462.949 314.951L468.758 307.887" stroke="white" stroke-width="3" stroke-linecap="round" stroke-linejoin="round"/>
<path d="M455.04 361.413L448.475 354.359" stroke="white" stroke-width="3" stroke-linecap="round" stroke-linejoin="round"/>
<path d="M487.158 445.563C489.625 443.708 491.691 441.374 493.234 438.701" stroke="white" stroke-width="3" stroke-linecap="round" stroke-linejoin="round"/>
<path d="M524.03 450.374C521.605 448.782 519.903 446.302 519.291 443.467" stroke="white" stroke-width="3" stroke-linecap="round" stroke-linejoin="round"/>
<path d="M537.365 411.466L546.231 402.66" stroke="white" stroke-width="3" stroke-linecap="round" stroke-linejoin="round"/>
<path d="M556.089 374.88L550.189 368.633" stroke="white" stroke-width="3" stroke-linecap="round" stroke-linejoin="round"/>
<path d="M591.865 390.116L601.337 380.08" stroke="white" stroke-width="3" stroke-linecap="round" stroke-linejoin="round"/>
<path d="M609.434 348.412L604.279 342.889" stroke="white" stroke-width="3" stroke-linecap="round" stroke-linejoin="round"/>
<path d="M571.879 325.215C573.983 323.192 575.726 320.825 577.033 318.215" stroke="white" stroke-width="3" stroke-linecap="round" stroke-linejoin="round"/>
<path d="M502.659 316.748L498.609 311.225" stroke="white" stroke-width="3" stroke-linecap="round" stroke-linejoin="round"/>
<g opacity="0.1">
<path d="M385.019 280.726C385.642 284.598 381.551 285.526 378.519 286.339C372.081 288.067 365.487 289.171 359.047 290.925C346.818 294.204 334.884 298.5 323.372 303.769C300.885 314.169 280.604 329.369 265.92 349.448C251.883 368.636 243.562 393.448 246.04 417.348C248.577 441.823 261.025 464.255 279.866 480.048C303.066 499.493 332.532 508.162 362.439 509.348C377.52 509.948 377.499 486.494 362.439 485.91C339.526 485.021 315.85 478.943 297.577 464.51C281.439 451.764 269.651 432.766 268.962 411.962C268.275 391.233 277.054 370.172 290.4 354.389C305.307 336.763 325.7 324.997 347.045 316.799C359.585 311.982 372.745 309.418 385.359 304.99C392.475 302.49 398.572 298.128 401.449 290.944C404.406 283.559 402.842 276.693 396.243 272.1C390.165 267.87 384.071 274.837 385.019 280.728V280.726Z" fill="white"/>
</g>
<g opacity="0.1">
<path d="M413.069 272.09C414.88 265.425 414.569 257.942 415.028 251.072C415.517 243.753 415.869 236.43 416.228 229.103C416.587 221.776 416.86 214.458 417.157 207.135C417.421 200.635 419.367 192.588 416.382 186.653C414.667 183.241 409.611 183.604 407.802 186.653C404.478 192.253 405.97 200.771 405.79 207.135C405.583 214.457 405.354 221.779 405.207 229.103C405.06 236.427 404.907 243.746 404.893 251.072C404.88 257.966 404.131 265.306 405.477 272.09C406.254 276.003 412.097 275.674 413.071 272.09H413.069Z" fill="white"/>
</g>
</g>
<defs>
<linearGradient id="paint0_linear_278_8322" x1="571.046" y1="296.152" x2="571.046" y2="433.8" gradientUnits="userSpaceOnUse">
<stop stop-color="#FD6F8E"/>
<stop offset="1" stop-color="#FF0769"/>
</linearGradient>
<linearGradient id="paint1_linear_278_8322" x1="847.667" y1="229.191" x2="847.667" y2="350.243" gradientUnits="userSpaceOnUse">
<stop stop-color="#FD6F8E"/>
<stop offset="1" stop-color="#FF0769"/>
</linearGradient>
<linearGradient id="paint2_linear_278_8322" x1="846.754" y1="466.193" x2="846.754" y2="580.36" gradientUnits="userSpaceOnUse">
<stop stop-color="#FD6F8E"/>
<stop offset="1" stop-color="#FF0769"/>
</linearGradient>
<linearGradient id="paint3_linear_278_8322" x1="747.216" y1="79.2012" x2="747.216" y2="152.715" gradientUnits="userSpaceOnUse">
<stop stop-color="#FD6F8E"/>
<stop offset="1" stop-color="#FF0769"/>
</linearGradient>
<linearGradient id="paint4_linear_278_8322" x1="745.742" y1="694.518" x2="745.742" y2="795.008" gradientUnits="userSpaceOnUse">
<stop stop-color="#FD6F8E"/>
<stop offset="1" stop-color="#FF0769"/>
</linearGradient>
<linearGradient id="paint5_linear_278_8322" x1="493.405" y1="410.451" x2="493.405" y2="466.199" gradientUnits="userSpaceOnUse">
<stop stop-color="#FD6F8E"/>
<stop offset="1" stop-color="#FF0769"/>
</linearGradient>
<linearGradient id="paint6_linear_278_8322" x1="394.343" y1="283.135" x2="394.343" y2="509.672" gradientUnits="userSpaceOnUse">
<stop stop-color="#FD6F8E"/>
<stop offset="1" stop-color="#FF0769"/>
</linearGradient>
<linearGradient id="paint7_linear_278_8322" x1="425.902" y1="273.568" x2="425.902" y2="288.676" gradientUnits="userSpaceOnUse">
<stop stop-color="#FD6F8E"/>
<stop offset="1" stop-color="#FF0769"/>
</linearGradient>
</defs>
</svg>
