<svg width="960" height="960" viewBox="0 0 960 960" fill="none" xmlns="http://www.w3.org/2000/svg">
<g clip-path="url(#clip0_274_7862)">
<mask id="mask0_274_7862" style="mask-type:luminance" maskUnits="userSpaceOnUse" x="0" y="0" width="960" height="960">
<path d="M960 0H0V960H960V0Z" fill="white"/>
</mask>
<g mask="url(#mask0_274_7862)">
<path d="M864.963 623.53C874.781 653.557 853.533 681.069 830.411 697.713C799.199 696.441 768.259 695.13 736.811 693.742L736.84 693.052C745.881 689.42 755.592 685.536 764.332 680.68L778.899 671.94C807.283 654.427 832.071 631.666 851.936 604.875L851.946 604.885C858.069 609.642 862.607 616.143 864.963 623.53Z" fill="url(#paint0_linear_274_7862)"/>
<path d="M804.462 385.373C808.343 406.588 809.505 428.211 807.92 449.719C803.443 512.035 776.795 572.885 732.629 617.219V433.433C747.157 407.281 774.737 388.8 804.462 385.373Z" fill="url(#paint1_linear_274_7862)"/>
<path d="M732.629 643.041V617.219C776.795 572.887 803.443 512.037 807.92 449.719L809.25 449.806C837.17 434.016 869.216 421.391 902.234 423.334C906.996 472.162 897.962 521.346 876.159 565.294C854.356 609.243 820.659 646.192 778.9 671.941L764.333 680.681C755.593 685.537 745.882 689.421 736.841 693.053L736.811 693.743C731.936 693.519 727.045 693.298 722.138 693.082L721 692.655C724.681 689.154 727.611 684.94 729.611 680.27C731.611 675.601 732.639 670.573 732.634 665.493V643.041H732.629Z" fill="white"/>
<path d="M682.354 466.752V612.759C682.355 613.76 681.959 614.72 681.253 615.428C680.547 616.137 679.588 616.536 678.587 616.537H665.564C665.068 616.538 664.577 616.44 664.118 616.25C663.66 616.061 663.243 615.782 662.892 615.431C662.541 615.081 662.263 614.664 662.073 614.205C661.883 613.747 661.786 613.256 661.786 612.759V466.752C661.788 465.752 662.187 464.793 662.895 464.086C663.603 463.38 664.564 462.983 665.564 462.984H678.587C679.586 462.985 680.544 463.383 681.25 464.089C681.956 464.796 682.353 465.753 682.354 466.752Z" fill="white"/>
<path d="M676.023 418.332C674.187 430.364 672.358 442.399 670.536 454.438L658.9 443.1C646.693 456.142 634.033 468.737 620.92 480.886C598.08 502.051 573.961 521.793 548.7 540C536.58 548.74 523.606 559.782 510.02 566.1C495.706 572.762 495.22 558.6 506.184 551.951C559.175 519.739 607.162 479.941 648.618 433.822L639.237 423.246C651.502 421.605 663.764 419.967 676.023 418.332Z" fill="url(#paint2_linear_274_7862)"/>
<path d="M643.51 508.114V612.761C643.511 613.761 643.115 614.721 642.409 615.43C641.702 616.138 640.743 616.537 639.742 616.539H626.719C626.223 616.539 625.732 616.441 625.273 616.252C624.815 616.062 624.398 615.784 624.048 615.433C623.697 615.082 623.419 614.665 623.229 614.207C623.039 613.748 622.942 613.257 622.942 612.761V508.114C622.942 507.618 623.04 507.127 623.23 506.67C623.42 506.212 623.698 505.796 624.049 505.446C624.4 505.096 624.816 504.818 625.274 504.63C625.733 504.441 626.224 504.344 626.719 504.346H639.742C640.237 504.345 640.727 504.443 641.185 504.632C641.642 504.821 642.058 505.099 642.408 505.448C642.758 505.798 643.035 506.214 643.224 506.671C643.414 507.129 643.511 507.619 643.51 508.114Z" fill="white"/>
<path d="M627.574 277.326C628.32 277.326 629.049 277.548 629.669 277.963C630.289 278.378 630.772 278.967 631.057 279.656C631.342 280.346 631.416 281.104 631.269 281.835C631.123 282.567 630.763 283.238 630.235 283.765C629.888 284.117 629.473 284.397 629.016 284.587C628.559 284.777 628.069 284.874 627.574 284.872H563.14C562.14 284.872 561.18 284.475 560.472 283.767C559.765 283.06 559.367 282.1 559.367 281.099C559.367 280.099 559.765 279.139 560.472 278.431C561.18 277.724 562.14 277.326 563.14 277.326H627.574Z" fill="white"/>
<path d="M605.636 550.154V612.761C605.637 613.256 605.54 613.747 605.351 614.205C605.162 614.663 604.885 615.079 604.535 615.43C604.185 615.781 603.769 616.059 603.312 616.25C602.854 616.44 602.364 616.538 601.868 616.539H588.846C588.35 616.539 587.859 616.442 587.4 616.252C586.942 616.062 586.525 615.784 586.174 615.433C585.823 615.082 585.545 614.665 585.355 614.207C585.166 613.748 585.068 613.257 585.068 612.761V550.154C585.069 549.658 585.167 549.168 585.357 548.71C585.548 548.253 585.826 547.837 586.177 547.487C586.528 547.137 586.944 546.86 587.402 546.671C587.86 546.482 588.351 546.385 588.846 546.386H601.868C602.867 546.387 603.825 546.784 604.532 547.49C605.238 548.197 605.636 549.155 605.636 550.154Z" fill="white"/>
<path d="M595.352 255.226C596.82 255.225 598.256 255.659 599.478 256.475C600.7 257.29 601.652 258.45 602.215 259.806C602.777 261.163 602.925 262.656 602.638 264.097C602.352 265.537 601.645 266.861 600.606 267.899C599.568 268.938 598.244 269.645 596.804 269.931C595.363 270.218 593.87 270.07 592.513 269.508C591.157 268.945 589.997 267.993 589.182 266.771C588.366 265.549 587.932 264.113 587.933 262.645C587.933 260.677 588.715 258.79 590.106 257.399C591.497 256.008 593.384 255.226 595.352 255.226Z" fill="white"/>
<path d="M586.117 374.166C598.994 388.422 603.898 413.933 596.817 429.266C593.199 437.145 587.565 443.929 580.485 448.933C573.406 453.937 565.13 456.984 556.496 457.766C545.134 458.699 526.586 453.843 511.961 438.412L512.155 438.227C520.893 447.124 532.693 452.357 545.154 452.859C557.614 453.361 569.797 449.096 579.223 440.931C588.649 432.767 594.609 421.316 595.889 408.912C597.17 396.507 593.674 384.081 586.115 374.163L586.117 374.166Z" fill="url(#paint3_linear_274_7862)"/>
<path d="M587.661 396.065C589.214 404.077 588.356 412.37 585.196 419.895C582.035 427.419 576.715 433.838 569.907 438.339C563.099 442.839 555.109 445.22 546.948 445.18C538.787 445.14 530.821 442.681 524.057 438.113C517.294 433.546 512.037 427.075 508.951 419.52C505.865 411.965 505.088 403.664 506.72 395.667C508.351 387.671 512.317 380.338 518.117 374.595C523.916 368.853 531.288 364.959 539.3 363.406C544.62 362.375 550.091 362.402 555.4 363.485C560.71 364.568 565.754 366.687 570.244 369.72C574.735 372.752 578.585 376.64 581.573 381.16C584.561 385.681 586.63 390.745 587.661 396.065Z" fill="url(#paint4_linear_274_7862)"/>
<path d="M565.821 572.324V612.761C565.822 613.761 565.426 614.722 564.719 615.43C564.013 616.138 563.053 616.537 562.053 616.539H549.03C548.534 616.539 548.042 616.442 547.584 616.252C547.125 616.062 546.709 615.784 546.358 615.433C546.007 615.082 545.729 614.665 545.539 614.207C545.349 613.749 545.252 613.257 545.252 612.761V572.324C545.252 571.828 545.349 571.336 545.539 570.878C545.729 570.419 546.007 570.003 546.358 569.652C546.709 569.301 547.125 569.023 547.584 568.833C548.042 568.643 548.534 568.546 549.03 568.546H562.053C563.053 568.548 564.013 568.946 564.719 569.655C565.426 570.363 565.822 571.323 565.821 572.324Z" fill="white"/>
<path d="M548.234 284.755C550.46 284.755 552.264 282.951 552.264 280.725C552.264 278.5 550.46 276.695 548.234 276.695C546.008 276.695 544.204 278.5 544.204 280.725C544.204 282.951 546.008 284.755 548.234 284.755Z" fill="white"/>
<path d="M528.918 587.86V612.76C528.918 613.256 528.821 613.746 528.632 614.204C528.443 614.662 528.166 615.079 527.816 615.429C527.466 615.78 527.051 616.059 526.593 616.249C526.136 616.439 525.645 616.537 525.15 616.538H512.128C511.631 616.538 511.14 616.441 510.682 616.251C510.223 616.061 509.806 615.783 509.456 615.432C509.105 615.081 508.826 614.665 508.637 614.206C508.447 613.748 508.349 613.256 508.35 612.76V587.86C508.349 587.364 508.447 586.872 508.637 586.414C508.826 585.956 509.105 585.539 509.456 585.188C509.806 584.837 510.223 584.559 510.682 584.369C511.14 584.179 511.631 584.082 512.128 584.082H525.15C525.645 584.083 526.136 584.181 526.593 584.371C527.051 584.561 527.466 584.84 527.816 585.191C528.166 585.541 528.443 585.958 528.632 586.416C528.821 586.874 528.918 587.365 528.918 587.86Z" fill="white"/>
<path d="M458.085 643.041V665.493C458.076 672.73 460.167 679.814 464.106 685.886L463.378 686.372C447.588 686.216 431.804 686.112 416.026 686.061L415.395 685.961C416.172 680.212 414.404 674.075 410.064 670.277C399.226 660.79 380.143 669.433 368.956 660.362L368.684 660.162C369.71 658.855 370.592 657.443 371.316 655.948C375.375 647.548 373.851 637.642 372.239 628.455C366.305 594.583 360.595 561.322 354.817 527.867L355.487 527.751C367.665 518.467 385.038 516.301 398.987 522.779C394.923 515.923 393.301 507.892 394.387 499.996C396.193 485.634 406.011 473.019 420.364 469.659C434.174 466.425 449.692 470.542 458.092 482.196V643.041H458.085Z" fill="url(#paint5_linear_274_7862)"/>
<path d="M257.725 481.309C255.897 481.286 254.075 481.088 252.286 480.717C248.004 479.785 243.838 477.376 241.837 473.492C239.836 469.608 240.637 464.169 244.294 461.77L244.333 461.003C233.554 460.488 222.959 458.721 212.927 454.703C206.362 452.071 200.011 448.371 195.661 442.797C190.378 436.038 188.523 427.162 188.494 418.587C188.416 396.611 199.73 375.295 216.802 361.446C233.855 347.627 256.151 340.995 278.102 341.199C278.902 341.745 279.842 342.051 280.811 342.082C287.361 342.662 293.945 342.766 300.511 342.393C306.192 342.209 311.879 342.022 317.573 341.83C318.991 341.781 320.409 341.743 321.837 341.694C322.769 341.665 324.507 341.946 325.294 341.383C325.515 341.215 325.692 340.995 325.809 340.742C338.19 339.713 348.232 331.031 357.496 322.748C379.629 302.966 401.762 283.191 423.896 263.422C430.364 257.634 437.171 251.672 445.552 249.409C445.435 249.943 445.328 250.467 445.222 251.002C442.544 263.728 440.598 276.597 439.395 289.545C439.133 292.303 439.453 295.896 442.104 296.654C442.519 296.765 442.953 296.79 443.379 296.728C443.805 296.666 444.214 296.519 444.581 296.294L444.61 296.353C412.932 322.33 383.362 347.375 352.053 373.187C352.625 401.825 353.195 430.47 353.762 459.121C353.849 463.87 353.645 469.308 350.004 472.348C348.686 473.386 347.142 474.098 345.498 474.426C343.927 474.741 342.337 474.949 340.739 475.048C315.605 477.02 290.476 478.994 265.352 480.971C262.823 481.164 260.259 481.367 257.725 481.309ZM297.317 426.431C297.392 427.313 297.405 428.199 297.356 429.083C297.142 434.443 296.925 439.801 296.705 445.155C296.679 446.908 296.507 448.655 296.191 450.379L296.375 450.418C301.901 450.975 307.468 451.002 313 450.5C314.718 450.344 328.586 444.76 315.67 441.915C314.553 441.672 313.446 441.449 312.339 441.293C317.671 441.284 324.239 440.4 318.787 434.923C317.399 433.523 315.379 433.292 313.262 433.408C321.676 432.461 330.031 431.041 338.287 429.155C339.938 428.727 341.9 427.955 342.133 426.255C342.405 424.216 339.958 422.982 337.947 422.536C328.965 420.564 314.223 422.069 305.891 425.973C308.863 422.031 317.807 412.009 313.679 409.29C308.018 405.561 298.979 419.836 297.403 426.43L297.317 426.431Z" fill="url(#paint6_linear_274_7862)"/>
<path d="M296.22 528.595L295.841 528.634C294.287 545.075 290.529 562.059 279.983 574.762C272 584.362 260.683 590.756 248.82 594.631C236.957 598.506 224.464 600.02 212.034 601.231C200.186 602.387 188.028 603.27 176.559 600.066C167.547 597.551 158.953 592.006 154.126 584.178C152.799 582.039 151.776 579.725 151.087 577.303C147.887 565.921 152.563 553.889 158.049 543.411C160.128 539.429 162.555 535.331 165.731 532.243C167.649 530.287 169.987 528.792 172.568 527.873C180.074 525.3 188.115 528.757 195.884 530.408C203.265 531.981 210.901 531.902 218.248 530.178C225.594 528.454 232.468 525.127 238.378 520.435C244.288 515.742 249.087 509.801 252.432 503.037C255.777 496.273 257.584 488.853 257.725 481.308C260.259 481.366 262.825 481.162 265.358 480.968C290.48 478.987 315.609 477.013 340.745 475.044C342.344 474.944 343.934 474.737 345.504 474.423L345.591 474.811C348.708 492.631 351.767 510.276 354.817 527.863C360.595 561.318 366.305 594.579 372.239 628.451C373.851 637.638 375.375 647.543 371.316 655.944C370.592 657.439 369.71 658.851 368.684 660.158C365.438 664.162 361.292 667.343 356.584 669.442C350.427 672.326 343.707 673.742 337.055 675.104C334.27 675.715 331.443 676.116 328.597 676.304C324.363 676.527 320.245 675.916 316.943 673.371C311.699 669.341 310.592 662.029 309.883 655.454C307.222 630.778 304.564 606.102 301.91 581.426C300.008 563.815 298.111 546.204 296.22 528.595Z" fill="white"/>
<path d="M328.9 685.673L328.56 685.711C290.008 685.644 251.587 685.855 213.298 686.343L213.288 685.543C210.403 678.239 209.567 670.287 210.87 662.543C213.114 648.55 221.805 636.071 234.76 630.043C247.695 624.032 263.65 624.391 275.984 631.733C273.303 611.942 283.451 591.233 300.951 581.533L301.912 581.426C304.574 606.102 307.231 630.778 309.885 655.454C310.594 662.029 311.701 669.341 316.945 673.371C320.245 675.916 324.365 676.527 328.599 676.304C328.461 679.43 328.562 682.562 328.9 685.673Z" fill="url(#paint7_linear_274_7862)"/>
<path d="M278.1 341.201C277.994 341.117 277.896 341.023 277.808 340.919C277.486 340.427 277.268 339.874 277.166 339.295C277.064 338.716 277.081 338.122 277.216 337.549C277.318 335.802 277.925 334.122 278.964 332.713C280.634 330.79 283.402 330.353 285.927 330.062C285.946 330.062 285.975 330.052 285.995 330.052C292.259 329.343 298.532 328.752 304.815 328.159C307.204 327.935 309.603 327.722 312.001 327.659C314.164 327.565 316.332 327.656 318.479 327.931C320.347 328.061 322.139 328.72 323.645 329.831C325.127 331.203 326.031 333.089 326.17 335.104C326.296 336.299 326.57 339.27 325.811 340.746C325.695 340.999 325.518 341.219 325.296 341.387C324.509 341.95 322.771 341.669 321.839 341.698C320.411 341.746 318.993 341.785 317.576 341.834C311.885 342.018 306.198 342.206 300.513 342.397C293.948 342.77 287.364 342.666 280.813 342.086C279.843 342.055 278.902 341.748 278.1 341.201Z" fill="url(#paint8_linear_274_7862)"/>
<path d="M287.858 281.465C285.733 292.531 284.779 303.79 285.013 315.056H284.974C284.974 318.727 278.662 321.097 275.331 319.543C272 317.989 270.485 313.823 271.039 310.181C271.229 309.001 271.575 307.851 272.068 306.763C272.287 306.633 272.495 306.487 272.69 306.326C274.438 304.879 275.36 302.694 276.215 300.596C274.53 302.431 273.132 304.51 272.068 306.763C270.33 307.841 267.931 307.996 266.504 306.578C265.004 305.093 265.163 302.655 265.678 300.616C266.432 297.625 267.722 294.795 269.485 292.264C270.23 291.981 270.889 291.51 271.398 290.897C271.906 290.283 272.246 289.548 272.385 288.764C271.316 289.842 270.346 291.013 269.485 292.264C268.653 292.647 267.741 292.823 266.826 292.778C265.911 292.732 265.021 292.466 264.231 292.002C261.298 290.137 260.483 285.923 261.813 282.708C263.347 278.97 266.96 276.697 270.679 274.891C271.388 274.58 272.087 274.25 272.779 273.91C272.089 274.221 271.379 274.551 270.679 274.891C269.125 275.639 267.458 276.127 265.746 276.338C263.27 276.561 260.531 275.738 259.152 273.658C258.585 272.682 258.271 271.579 258.241 270.451C258.21 269.323 258.463 268.205 258.977 267.2C260.039 265.198 261.564 263.48 263.425 262.189C269.716 257.426 277.494 255.054 285.372 255.498C284.753 253.435 284.768 251.235 285.416 249.181C286.063 247.127 287.313 245.316 289.002 243.981C290.692 242.646 292.743 241.85 294.891 241.696C297.039 241.542 299.183 242.036 301.046 243.116C300.746 241.783 300.851 240.392 301.345 239.119C301.84 237.846 302.703 236.749 303.823 235.969C304.98 235.246 306.357 234.958 307.706 235.156C309.056 235.353 310.292 236.023 311.194 237.047C311.814 237.852 312.158 238.836 312.175 239.853C311.296 241.201 310.564 242.64 309.99 244.145C310.706 243.691 311.286 243.053 311.671 242.298C312.055 241.543 312.229 240.698 312.175 239.853C313.249 238.162 314.694 236.737 316.399 235.687C319.499 233.852 323.877 233.842 326.412 236.406C328.703 238.727 328.451 243.174 325.887 244.942C325.587 245.097 325.295 245.253 324.994 245.408C325.31 245.289 325.609 245.133 325.887 244.942C328.373 243.66 330.976 242.465 333.763 242.427C336.88 242.378 340.263 244.262 340.813 247.321C341.25 249.739 339.823 252.177 337.861 253.643C336.648 254.514 335.304 255.186 333.879 255.634C332.938 255.834 332.016 256.113 331.122 256.469C332.044 256.207 332.976 255.944 333.879 255.634C337.958 254.779 342.474 255.42 344.367 258.926C346.591 263.043 343.26 268.394 338.881 270.026C334.569 271.626 330.228 271.142 325.742 270.181C325.664 270.162 325.586 270.152 325.508 270.132H324.664C319.464 270.132 314.496 268.083 309.437 266.84C304.212 265.559 298.201 265.287 293.967 268.588C290.14 271.579 288.781 276.688 287.858 281.465Z" fill="white"/>
<path d="M312 327.564C310.077 326.064 309.98 321.087 311.146 318.941C312.312 316.795 314.409 315.328 316.458 314.007C318.507 312.686 320.672 311.366 322.058 309.356C323.68 306.996 324.039 304.024 324.311 301.179C325.286 290.975 325.743 280.728 325.68 270.479" stroke="white" stroke-width="2.913" stroke-linecap="round" stroke-linejoin="round"/>
<path d="M317.623 274.26C313.467 274.697 309.31 275.137 305.154 275.58C306.057 281.339 306.963 287.095 307.873 292.847C308.145 294.547 308.388 296.391 307.573 297.906C306.758 299.421 304.427 300.198 303.3 298.897" stroke="white" stroke-width="2.913" stroke-linecap="round" stroke-linejoin="round"/>
<path d="M293.617 282.1C294.524 281.647 295.526 281.413 296.54 281.42C297.554 281.427 298.552 281.673 299.453 282.138" stroke="white" stroke-width="2.913" stroke-linecap="round" stroke-linejoin="round"/>
<path d="M310.408 282.775C311.196 282.358 312.064 282.116 312.954 282.066C313.844 282.015 314.735 282.158 315.564 282.484" stroke="white" stroke-width="2.913" stroke-linecap="round" stroke-linejoin="round"/>
<path d="M299.191 310.259C298.395 310.373 297.585 310.316 296.813 310.093C296.041 309.87 295.325 309.485 294.712 308.965C294.1 308.444 293.605 307.799 293.261 307.073C292.916 306.347 292.73 305.556 292.714 304.753" stroke="white" stroke-width="2.913" stroke-linecap="round" stroke-linejoin="round"/>
<path d="M285.965 329.747C285.421 324.863 285.104 319.966 285.013 315.054C284.779 303.788 285.733 292.529 287.858 281.463C288.781 276.685 290.14 271.577 293.967 268.586C298.201 265.286 304.212 265.557 309.437 266.838C314.496 268.081 319.468 270.13 324.664 270.13C324.829 270.13 324.994 270.121 325.164 270.121" stroke="white" stroke-width="2.913" stroke-linecap="round" stroke-linejoin="round"/>
<path d="M272.068 306.763C271.575 307.851 271.229 309.001 271.039 310.181C270.485 313.823 271.99 317.989 275.331 319.543C278.672 321.097 284.974 318.727 284.974 315.056V315.027" stroke="white" stroke-width="2.913" stroke-linecap="round" stroke-linejoin="round"/>
<path d="M272.068 306.763C272.287 306.634 272.495 306.487 272.69 306.326C274.438 304.879 275.36 302.694 276.215 300.596C274.53 302.431 273.132 304.51 272.068 306.763Z" stroke="white" stroke-width="2.913" stroke-linecap="round" stroke-linejoin="round"/>
<path d="M269.485 292.264C267.722 294.795 266.433 297.625 265.678 300.616C265.163 302.655 265.008 305.093 266.504 306.578C267.931 307.996 270.33 307.841 272.068 306.763" stroke="white" stroke-width="2.913" stroke-linecap="round" stroke-linejoin="round"/>
<path d="M269.485 292.264C270.23 291.981 270.889 291.51 271.398 290.897C271.906 290.283 272.247 289.548 272.385 288.764C271.316 289.842 270.346 291.013 269.485 292.264Z" stroke="white" stroke-width="2.913" stroke-linecap="round" stroke-linejoin="round"/>
<path d="M270.679 274.891C266.96 276.697 263.347 278.97 261.813 282.708C260.483 285.923 261.298 290.137 264.231 292.002C265.02 292.466 265.911 292.733 266.825 292.778C267.74 292.824 268.653 292.647 269.485 292.264" stroke="white" stroke-width="2.913" stroke-linecap="round" stroke-linejoin="round"/>
<path d="M270.679 274.889C271.388 274.578 272.087 274.248 272.779 273.908C272.087 274.219 271.379 274.549 270.679 274.889Z" stroke="white" stroke-width="2.913" stroke-linecap="round" stroke-linejoin="round"/>
<path d="M312.175 239.851C312.159 238.835 311.815 237.851 311.194 237.045C310.292 236.022 309.057 235.352 307.707 235.154C306.357 234.957 304.981 235.245 303.824 235.967C302.703 236.748 301.84 237.844 301.345 239.117C300.851 240.39 300.746 241.782 301.046 243.114C299.183 242.034 297.038 241.539 294.89 241.694C292.741 241.848 290.689 242.645 288.999 243.98C287.31 245.315 286.06 247.128 285.413 249.182C284.766 251.236 284.752 253.438 285.372 255.5C277.494 255.057 269.716 257.428 263.425 262.191C261.564 263.483 260.039 265.201 258.977 267.202C258.463 268.207 258.21 269.325 258.241 270.454C258.271 271.582 258.585 272.685 259.152 273.66C260.531 275.738 263.27 276.56 265.746 276.34C267.458 276.13 269.125 275.641 270.679 274.893" stroke="white" stroke-width="2.913" stroke-linecap="round" stroke-linejoin="round"/>
<path d="M312.175 239.853C311.296 241.201 310.564 242.64 309.99 244.145C310.706 243.691 311.286 243.053 311.671 242.298C312.055 241.543 312.23 240.698 312.175 239.853Z" stroke="white" stroke-width="2.913" stroke-linecap="round" stroke-linejoin="round"/>
<path d="M325.887 244.942C328.451 243.174 328.703 238.727 326.412 236.406C323.877 233.842 319.497 233.852 316.399 235.687C314.693 236.737 313.249 238.162 312.175 239.853" stroke="white" stroke-width="2.913" stroke-linecap="round" stroke-linejoin="round"/>
<path d="M325.887 244.94C325.587 245.095 325.295 245.251 324.994 245.406C325.31 245.288 325.609 245.131 325.887 244.94Z" stroke="white" stroke-width="2.913" stroke-linecap="round" stroke-linejoin="round"/>
<path d="M333.879 255.634C335.303 255.186 336.648 254.514 337.861 253.643C339.823 252.177 341.25 249.743 340.813 247.321C340.26 244.262 336.88 242.378 333.763 242.427C330.976 242.465 328.373 243.66 325.887 244.942" stroke="white" stroke-width="2.913" stroke-linecap="round" stroke-linejoin="round"/>
<path d="M333.879 255.634C332.938 255.834 332.016 256.113 331.122 256.469C332.044 256.207 332.976 255.944 333.879 255.634Z" stroke="white" stroke-width="2.913" stroke-linecap="round" stroke-linejoin="round"/>
<path d="M325.508 270.132C325.586 270.152 325.664 270.16 325.742 270.179C330.228 271.14 334.569 271.626 338.881 270.024C343.26 268.392 346.591 263.042 344.368 258.925C342.474 255.419 337.958 254.778 333.879 255.633" stroke="white" stroke-width="2.913" stroke-linecap="round" stroke-linejoin="round"/>
<path d="M325.81 340.742C326.567 339.266 326.295 336.295 326.169 335.1C326.03 333.085 325.127 331.199 323.644 329.827C322.138 328.715 320.346 328.056 318.478 327.927C316.331 327.65 314.163 327.558 312 327.652C309.6 327.72 307.2 327.933 304.814 328.152C298.531 328.744 292.257 329.336 285.994 330.045C285.974 330.045 285.945 330.055 285.926 330.055C283.401 330.346 280.633 330.783 278.963 332.706C277.924 334.114 277.317 335.794 277.215 337.542C277.08 338.114 277.063 338.708 277.165 339.287C277.267 339.867 277.485 340.419 277.807 340.912C277.895 341.015 277.993 341.11 278.099 341.194C278.9 341.739 279.84 342.046 280.808 342.077C287.359 342.657 293.943 342.761 300.508 342.388C306.19 342.204 311.877 342.016 317.57 341.825C318.988 341.776 320.406 341.738 321.834 341.689C322.766 341.66 324.504 341.942 325.291 341.378C325.513 341.211 325.691 340.993 325.81 340.742Z" stroke="white" stroke-width="2.913" stroke-linecap="round" stroke-linejoin="round"/>
<path d="M278.176 341.202H278.1C256.152 341.002 233.856 347.63 216.8 361.449C199.728 375.298 188.414 396.614 188.492 418.59C188.521 427.165 190.376 436.041 195.659 442.8C200.009 448.374 206.359 452.074 212.925 454.706C222.957 458.726 233.552 460.493 244.331 461.006C257.231 461.628 270.396 460.482 283.263 459.278C287.021 458.928 291.129 458.423 293.712 455.678C295.023 454.184 295.882 452.348 296.189 450.385C296.505 448.661 296.677 446.913 296.703 445.161C296.927 439.8 297.144 434.443 297.354 429.089C297.403 428.205 297.39 427.319 297.315 426.437C297.258 425.114 296.699 423.862 295.752 422.937C294.314 421.665 292.188 421.694 290.274 421.801L264.346 423.17C258.146 423.49 251.44 423.67 246.361 420.111C240.311 415.857 238.592 407.379 240.019 400.111C242.874 385.651 257.257 374.386 271.979 375.095" stroke="white" stroke-width="2.913" stroke-linecap="round" stroke-linejoin="round"/>
<path d="M325.79 340.74H325.81C338.191 339.711 348.233 331.029 357.497 322.746C379.63 302.964 401.764 283.189 423.897 263.42C430.365 257.632 437.172 251.67 445.553 249.407C445.436 249.941 445.329 250.465 445.223 251C442.545 263.726 440.6 276.595 439.396 289.543C439.134 292.301 439.454 295.894 442.105 296.652C442.521 296.763 442.955 296.788 443.38 296.726C443.806 296.664 444.215 296.517 444.582 296.292C445.597 295.714 446.373 294.792 446.767 293.692C447.427 291.808 449.185 285.661 448.903 283.582C448.903 283.553 448.893 283.524 448.893 283.495" stroke="white" stroke-width="2.913" stroke-linecap="round" stroke-linejoin="round"/>
<path d="M444.616 296.353C412.938 322.33 383.368 347.375 352.059 373.187C349.087 375.634 346.099 378.091 343.095 380.558" stroke="white" stroke-width="2.913" stroke-linecap="round" stroke-linejoin="round"/>
<path d="M244.294 461.77C240.633 464.17 239.827 469.598 241.837 473.492C243.847 477.386 248.004 479.785 252.286 480.717C254.076 481.088 255.897 481.286 257.725 481.309C260.259 481.367 262.825 481.164 265.358 480.969C290.48 478.989 315.609 477.014 340.745 475.045C342.344 474.946 343.933 474.739 345.504 474.424C347.149 474.096 348.692 473.384 350.01 472.346C353.651 469.306 353.855 463.868 353.768 459.119C353.195 430.471 352.626 401.827 352.059 373.185C352.059 372.985 352.049 372.777 352.049 372.573" stroke="white" stroke-width="2.913" stroke-linecap="round" stroke-linejoin="round"/>
<path d="M312.34 441.29C313.447 441.445 314.554 441.668 315.671 441.911C328.587 444.756 314.719 450.34 313.001 450.496C307.469 451 301.902 450.973 296.375 450.418" stroke="white" stroke-width="2.913" stroke-linecap="round" stroke-linejoin="round"/>
<path d="M312.34 441.291C310.427 441.3 308.669 441.191 307.679 441.145C309.233 441.008 310.797 441.057 312.34 441.291Z" stroke="white" stroke-width="2.913" stroke-linecap="round" stroke-linejoin="round"/>
<path d="M308.271 433.96C308.514 433.94 308.771 433.911 309.029 433.882H309.068C310.417 433.727 311.868 433.482 313.263 433.406C315.38 433.29 317.4 433.523 318.788 434.921C324.236 440.398 317.672 441.282 312.34 441.292" stroke="white" stroke-width="2.913" stroke-linecap="round" stroke-linejoin="round"/>
<path d="M297.4 426.424C298.974 419.83 308.015 405.554 313.676 409.284C317.804 412.003 308.86 422.025 305.888 425.967C314.22 422.067 328.962 420.558 337.944 422.53C339.955 422.976 342.402 424.21 342.13 426.249C341.897 427.949 339.935 428.725 338.284 429.149C330.029 431.034 321.674 432.454 313.259 433.402C311.773 433.587 310.375 433.742 309.064 433.878" stroke="white" stroke-width="2.913" stroke-linecap="round" stroke-linejoin="round"/>
<path d="M257.725 481.271V481.31C257.584 488.854 255.777 496.274 252.432 503.039C249.087 509.803 244.288 515.744 238.378 520.436C232.468 525.128 225.594 528.456 218.248 530.18C210.901 531.904 203.265 531.983 195.884 530.41C188.115 528.759 180.074 525.302 172.568 527.875C169.988 528.794 167.65 530.288 165.731 532.245C162.555 535.333 160.131 539.432 158.049 543.414C152.563 553.892 147.882 565.923 151.087 577.305C151.776 579.726 152.799 582.04 154.126 584.18C158.953 592.008 167.547 597.553 176.559 600.068C188.028 603.273 200.186 602.389 212.034 601.233C224.464 600.019 236.953 598.495 248.82 594.633C260.687 590.771 272 584.365 279.983 574.761C290.529 562.061 294.283 545.074 295.841 528.633" stroke="white" stroke-width="2.913" stroke-linecap="round" stroke-linejoin="round"/>
<path d="M295.987 526.456C296.064 527.165 296.142 527.884 296.22 528.593C298.113 546.209 300.01 563.822 301.91 581.431C304.572 606.107 307.229 630.783 309.883 655.459C310.592 662.034 311.699 669.346 316.943 673.376C320.243 675.921 324.363 676.532 328.597 676.309C331.443 676.122 334.27 675.721 337.055 675.109C343.707 673.749 350.427 672.332 356.584 669.447C361.292 667.348 365.438 664.167 368.684 660.163C369.71 658.857 370.592 657.444 371.316 655.949C375.375 647.549 373.851 637.643 372.238 628.457C366.305 594.584 360.595 561.323 354.817 527.868C351.767 510.282 348.708 492.636 345.591 474.816" stroke="white" stroke-width="2.913" stroke-linecap="round" stroke-linejoin="round"/>
<path d="M165.7 532.217C158.7 530.644 151.133 529.109 144.559 531.974C138.654 534.548 134.731 540.174 131.245 545.589C126.923 552.28 122.763 559.072 118.766 565.963C115.299 571.955 111.842 578.481 112.434 585.386C112.929 591.144 116.183 596.252 119.348 601.086C121.407 604.233 124.088 607.739 127.848 607.748C130.858 607.748 133.315 605.466 135.422 603.32C141.647 597.008 147.83 590.657 153.971 584.267" stroke="white" stroke-width="2.913" stroke-linecap="round" stroke-linejoin="round"/>
<path d="M328.606 676.008C328.606 676.108 328.597 676.208 328.597 676.308C328.459 679.432 328.559 682.562 328.897 685.67C329.206 689.594 330.684 693.335 333.14 696.41C337.384 701.324 344.269 702.829 350.65 704.043C359.992 705.82 369.382 707.607 378.88 707.86C385.989 708.034 393.243 707.316 399.759 704.5C406.275 701.684 412.024 696.536 414.432 689.855C414.889 688.595 415.211 687.29 415.394 685.961C416.171 680.212 414.403 674.074 410.062 670.277C399.225 660.79 380.142 669.433 368.955 660.362" stroke="white" stroke-width="2.913" stroke-linecap="round" stroke-linejoin="round"/>
<path d="M721 692.655C714.024 699.317 704.746 703.029 695.1 703.017H495.619C490.69 703.019 485.809 702.05 481.255 700.166C476.7 698.281 472.562 695.517 469.076 692.032C465.591 688.548 462.826 684.41 460.94 679.856C459.054 675.302 458.084 670.422 458.085 665.493V285.039C458.089 277.588 460.309 270.307 464.463 264.121C468.617 257.936 474.516 253.125 481.411 250.302C484.852 248.888 488.486 248.001 492.191 247.671C493.317 247.564 494.463 247.515 495.619 247.515H695.1C705.053 247.514 714.599 251.467 721.638 258.504C728.676 265.541 732.632 275.086 732.634 285.039V665.493C732.639 670.573 731.611 675.601 729.611 680.27C727.611 684.94 724.681 689.154 721 692.655Z" stroke="white" stroke-width="2.913" stroke-linecap="round" stroke-linejoin="round"/>
<path d="M457.91 296.178H458.085H732.629H732.794" stroke="white" stroke-width="2.913" stroke-linecap="round" stroke-linejoin="round"/>
<path d="M457.745 643.039H458.085H732.629H732.969" stroke="white" stroke-width="2.913" stroke-linecap="round" stroke-linejoin="round"/>
<path d="M612.153 672.174C612.155 675.497 611.171 678.746 609.326 681.51C607.481 684.274 604.858 686.429 601.789 687.702C598.719 688.975 595.341 689.309 592.081 688.662C588.822 688.015 585.827 686.416 583.477 684.067C581.126 681.718 579.525 678.724 578.876 675.465C578.227 672.206 578.559 668.827 579.831 665.757C581.102 662.687 583.255 660.062 586.018 658.216C588.781 656.369 592.03 655.384 595.353 655.384C599.807 655.384 604.078 657.152 607.229 660.301C610.379 663.449 612.15 667.72 612.153 672.174Z" stroke="white" stroke-width="2.913" stroke-linecap="round" stroke-linejoin="round"/>
<path d="M602.781 262.645C602.782 264.113 602.347 265.549 601.532 266.77C600.717 267.991 599.558 268.944 598.202 269.507C596.846 270.069 595.354 270.217 593.913 269.932C592.473 269.646 591.15 268.94 590.111 267.903C589.072 266.865 588.364 265.543 588.076 264.103C587.789 262.663 587.935 261.17 588.496 259.813C589.057 258.456 590.008 257.296 591.228 256.48C592.448 255.663 593.883 255.227 595.352 255.226C596.327 255.225 597.292 255.416 598.193 255.789C599.094 256.161 599.913 256.707 600.603 257.396C601.293 258.085 601.84 258.903 602.214 259.804C602.588 260.704 602.78 261.67 602.781 262.645Z" stroke="white" stroke-width="2.913" stroke-linecap="round" stroke-linejoin="round"/>
<path d="M627.574 284.872H563.14C562.14 284.872 561.18 284.475 560.472 283.767C559.765 283.06 559.367 282.1 559.367 281.099C559.367 280.099 559.765 279.139 560.472 278.431C561.18 277.724 562.14 277.326 563.14 277.326H627.574C628.32 277.326 629.049 277.548 629.669 277.963C630.289 278.378 630.772 278.967 631.057 279.656C631.342 280.346 631.416 281.104 631.269 281.835C631.123 282.567 630.763 283.238 630.235 283.765C629.888 284.117 629.473 284.397 629.016 284.587C628.559 284.777 628.069 284.874 627.574 284.872Z" stroke="white" stroke-width="2.913" stroke-linecap="round" stroke-linejoin="round"/>
<path d="M548.234 284.755C550.46 284.755 552.264 282.951 552.264 280.725C552.264 278.5 550.46 276.695 548.234 276.695C546.008 276.695 544.204 278.5 544.204 280.725C544.204 282.951 546.008 284.755 548.234 284.755Z" stroke="white" stroke-width="2.913" stroke-linecap="round" stroke-linejoin="round"/>
<path d="M525.15 616.537H512.128C511.631 616.537 511.14 616.44 510.682 616.25C510.223 616.06 509.806 615.782 509.456 615.431C509.105 615.08 508.826 614.664 508.637 614.205C508.447 613.747 508.349 613.255 508.35 612.759V587.859C508.349 587.363 508.447 586.871 508.637 586.413C508.826 585.954 509.105 585.538 509.456 585.187C509.806 584.836 510.223 584.558 510.682 584.368C511.14 584.178 511.631 584.081 512.128 584.081H525.15C525.645 584.082 526.136 584.18 526.593 584.37C527.051 584.56 527.466 584.839 527.816 585.19C528.166 585.541 528.443 585.957 528.632 586.415C528.821 586.873 528.918 587.364 528.918 587.859V612.759C528.918 613.255 528.821 613.745 528.632 614.203C528.443 614.661 528.166 615.078 527.816 615.428C527.466 615.779 527.051 616.058 526.593 616.248C526.136 616.438 525.645 616.536 525.15 616.537Z" stroke="white" stroke-width="2.913" stroke-linecap="round" stroke-linejoin="round"/>
<path d="M562.053 616.539H549.03C548.534 616.539 548.042 616.442 547.584 616.252C547.125 616.062 546.709 615.784 546.358 615.433C546.007 615.082 545.729 614.665 545.539 614.207C545.349 613.749 545.252 613.257 545.252 612.761V572.324C545.252 571.828 545.349 571.336 545.539 570.878C545.729 570.419 546.007 570.003 546.358 569.652C546.709 569.301 547.125 569.023 547.584 568.833C548.042 568.643 548.534 568.546 549.03 568.546H562.053C563.053 568.548 564.013 568.946 564.719 569.655C565.426 570.363 565.822 571.323 565.821 572.324V612.761C565.822 613.761 565.426 614.722 564.719 615.43C564.013 616.138 563.053 616.537 562.053 616.539Z" stroke="white" stroke-width="2.913" stroke-linecap="round" stroke-linejoin="round"/>
<path d="M601.868 616.539H588.846C588.35 616.539 587.859 616.442 587.4 616.252C586.942 616.062 586.525 615.784 586.174 615.433C585.823 615.082 585.545 614.665 585.355 614.207C585.166 613.748 585.068 613.257 585.068 612.761V550.154C585.069 549.658 585.167 549.168 585.357 548.71C585.548 548.253 585.826 547.837 586.177 547.487C586.528 547.137 586.944 546.86 587.402 546.671C587.86 546.482 588.351 546.385 588.846 546.386H601.868C602.867 546.387 603.825 546.784 604.532 547.49C605.238 548.197 605.636 549.155 605.636 550.154V612.761C605.637 613.256 605.54 613.747 605.351 614.205C605.162 614.663 604.885 615.079 604.535 615.43C604.185 615.781 603.769 616.059 603.312 616.25C602.854 616.44 602.364 616.538 601.868 616.539Z" stroke="white" stroke-width="2.913" stroke-linecap="round" stroke-linejoin="round"/>
<path d="M639.742 616.539H626.719C626.223 616.539 625.732 616.441 625.273 616.252C624.815 616.062 624.398 615.784 624.048 615.433C623.697 615.082 623.419 614.665 623.229 614.207C623.039 613.748 622.942 613.257 622.942 612.761V508.114C622.942 507.618 623.04 507.127 623.23 506.67C623.42 506.212 623.698 505.796 624.049 505.446C624.4 505.096 624.816 504.818 625.274 504.63C625.733 504.441 626.224 504.344 626.719 504.346H639.742C640.237 504.345 640.727 504.443 641.185 504.632C641.642 504.821 642.058 505.099 642.408 505.448C642.758 505.798 643.035 506.214 643.224 506.671C643.414 507.129 643.511 507.619 643.51 508.114V612.761C643.511 613.761 643.115 614.721 642.409 615.43C641.702 616.138 640.743 616.537 639.742 616.539Z" stroke="white" stroke-width="2.913" stroke-linecap="round" stroke-linejoin="round"/>
<path d="M678.587 616.537H665.564C665.068 616.538 664.577 616.44 664.118 616.25C663.66 616.061 663.243 615.782 662.892 615.431C662.541 615.081 662.263 614.664 662.073 614.205C661.883 613.747 661.786 613.256 661.786 612.759V466.752C661.788 465.752 662.187 464.793 662.895 464.086C663.603 463.38 664.564 462.983 665.564 462.984H678.587C679.586 462.985 680.544 463.383 681.25 464.089C681.956 464.796 682.353 465.753 682.354 466.752V612.759C682.355 613.76 681.959 614.72 681.253 615.428C680.547 616.137 679.588 616.536 678.587 616.537Z" stroke="white" stroke-width="2.913" stroke-linecap="round" stroke-linejoin="round"/>
<path d="M159.632 406.038C158.943 414.038 156.032 421.712 154.301 429.588C152.446 438.056 152.174 447.573 157.137 454.681C162.1 461.789 173.801 464.373 179.443 457.808" stroke="white" stroke-width="2.913" stroke-linecap="round" stroke-linejoin="round"/>
<path d="M159.632 406.04C157.21 407.178 154.547 407.712 151.873 407.594C146.804 407.37 141.686 404.525 139.686 399.864C137.686 395.203 139.637 388.939 144.328 386.996C148.581 385.239 153.728 387.396 156.466 391.096C159.204 394.796 159.933 399.622 159.749 404.225C159.72 404.836 159.681 405.438 159.632 406.04Z" stroke="white" stroke-width="2.913" stroke-linecap="round" stroke-linejoin="round"/>
<path d="M195.029 311.16C200.516 300.653 195.311 286.338 184.852 280.735C174.393 275.132 160.506 277.997 152.145 286.416C143.784 294.835 140.88 307.839 143.492 319.405C146.114 331.068 153.602 340.915 160.341 350.805C167.08 360.695 173.432 371.674 173.257 383.629C173.131 392.815 167.605 402.371 159.632 406.042" stroke="white" stroke-width="2.913" stroke-linecap="round" stroke-linejoin="round"/>
<path d="M658.9 443.102L670.534 454.444C672.36 442.412 674.189 430.377 676.021 418.338C663.754 419.98 651.492 421.618 639.235 423.252L648.616 433.828C607.161 479.948 559.174 519.747 506.184 551.96C495.221 558.612 495.706 572.771 510.02 566.109C523.606 559.787 536.58 548.745 548.7 540.009C573.962 521.799 598.081 502.055 620.922 480.888C634.022 468.747 646.681 456.151 658.9 443.102Z" stroke="white" stroke-width="2.913" stroke-linecap="round" stroke-linejoin="round"/>
<path d="M586.117 374.168C592.589 382.639 596.123 392.989 596.184 403.649C596.245 414.309 592.83 424.698 586.456 433.243C580.082 441.788 571.096 448.022 560.861 451.001C550.625 453.98 539.697 453.542 529.733 449.753C519.769 445.964 511.312 439.03 505.643 430.002C499.973 420.974 497.401 410.345 498.316 399.724C499.23 389.103 503.582 379.069 510.711 371.144C517.84 363.218 527.358 357.832 537.823 355.802" stroke="white" stroke-width="2.913" stroke-linecap="round" stroke-linejoin="round"/>
<path d="M537.823 355.8C546.779 354.061 556.043 354.856 564.572 358.096C573.101 361.335 580.557 366.891 586.1 374.137" stroke="white" stroke-width="2.913" stroke-linecap="round" stroke-linejoin="round"/>
<path d="M585.311 373.292C585.573 373.564 585.835 373.846 586.098 374.137C586.107 374.147 586.117 374.156 586.117 374.166C598.994 388.422 603.898 413.933 596.817 429.266C593.199 437.145 587.565 443.929 580.485 448.933C573.406 453.937 565.13 456.984 556.496 457.766C545.134 458.699 526.586 453.843 511.961 438.412" stroke="white" stroke-width="2.913" stroke-linecap="round" stroke-linejoin="round"/>
<path d="M445.509 251.059C459.486 245.389 474.028 241.229 488.889 238.648C490.634 238.233 492.445 238.18 494.211 238.493C495.095 238.702 495.913 239.129 496.59 239.736C497.264 240.316 497.714 241.113 497.862 241.989C497.921 242.885 497.724 243.78 497.292 244.568C496.86 245.356 496.212 246.004 495.424 246.436C494.419 247.017 493.327 247.434 492.191 247.67C491.579 247.815 490.957 247.941 490.336 248.07C487.336 248.682 484.354 249.42 481.411 250.303C474.143 252.451 467.124 255.368 460.474 259.003" stroke="white" stroke-width="2.913" stroke-linecap="round" stroke-linejoin="round"/>
<path d="M497.027 239.669C500.008 239.169 503.174 238.688 505.981 239.824C508.788 240.96 510.914 244.359 509.564 247.078V245.796" stroke="white" stroke-width="2.913" stroke-linecap="round" stroke-linejoin="round"/>
<path d="M459.6 273.568C460.154 270.003 460.405 266.397 460.348 262.789C460.338 261.536 460.28 260.274 460.183 259.021C460.184 258.956 460.181 258.891 460.173 258.827" stroke="white" stroke-width="2.913" stroke-linecap="round" stroke-linejoin="round"/>
<path d="M460.736 262.789C462.957 261.616 465.289 260.669 467.699 259.963C467.709 259.963 467.719 259.953 467.728 259.953" stroke="white" stroke-width="2.913" stroke-linecap="round" stroke-linejoin="round"/>
<path d="M446.568 269.324C446.568 275.219 446.568 271.412 447.034 277.297C447.209 279.511 447.519 281.871 448.908 283.58C448.974 283.669 449.046 283.754 449.122 283.833C451.278 286.183 454.89 286.233 458.085 286.105H458.143" stroke="white" stroke-width="2.913" stroke-linecap="round" stroke-linejoin="round"/>
<path d="M722.141 693.08C727.045 693.304 731.936 693.524 736.815 693.741C768.259 695.129 799.199 696.441 830.415 697.712C841.777 698.179 853.187 698.638 864.646 699.091" stroke="white" stroke-width="2.913" stroke-linecap="round" stroke-linejoin="round"/>
<path d="M416.026 686.061C431.807 686.109 447.591 686.213 463.378 686.372" stroke="white" stroke-width="2.913" stroke-linecap="round" stroke-linejoin="round"/>
<path d="M23.5 690.118C86.924 688.467 150.027 687.098 213.3 686.341C251.62 685.874 290.041 685.664 328.562 685.709" stroke="white" stroke-width="2.913" stroke-linecap="round" stroke-linejoin="round"/>
<path d="M828.682 698.938C829.255 698.538 829.838 698.132 830.411 697.714C853.533 681.07 874.781 653.558 864.963 623.531C862.608 616.144 858.071 609.643 851.95 604.886" stroke="white" stroke-width="2.913" stroke-linecap="round" stroke-linejoin="round"/>
<path d="M300.949 581.538C283.449 591.238 273.301 611.944 275.982 631.738C263.648 624.396 247.693 624.038 234.758 630.048C221.803 636.079 213.112 648.558 210.868 662.548C209.565 670.292 210.401 678.245 213.286 685.548" stroke="white" stroke-width="2.913" stroke-linecap="round" stroke-linejoin="round"/>
<path d="M458.153 482.292C458.134 482.263 458.105 482.224 458.085 482.192C449.685 470.539 434.167 466.421 420.357 469.655C406.004 473.015 396.186 485.63 394.38 499.992C393.294 507.888 394.916 515.919 398.98 522.775C385.035 516.298 367.662 518.463 355.48 527.747" stroke="white" stroke-width="2.913" stroke-linecap="round" stroke-linejoin="round"/>
<path d="M736.844 693.052C745.885 689.42 755.596 685.536 764.336 680.68L778.903 671.94C820.661 646.191 854.356 609.244 876.158 565.297C897.961 521.35 906.995 472.166 902.234 423.339C869.216 421.396 837.17 434.021 809.25 449.811" stroke="white" stroke-width="2.913" stroke-linecap="round" stroke-linejoin="round"/>
<path d="M732.6 617.246L732.63 617.217C776.796 572.885 803.443 512.035 807.92 449.717C809.505 428.209 808.344 406.586 804.464 385.371C774.738 388.799 747.158 407.279 732.63 433.431L732.396 433.839" stroke="white" stroke-width="2.913" stroke-linecap="round" stroke-linejoin="round"/>
<path d="M539.3 363.406C547.312 361.853 555.605 362.711 563.13 365.871C570.654 369.031 577.073 374.352 581.574 381.16C586.075 387.967 588.456 395.957 588.416 404.118C588.376 412.279 585.917 420.246 581.349 427.009C576.782 433.773 570.312 439.03 562.756 442.116C555.201 445.202 546.9 445.979 538.904 444.348C530.907 442.716 523.574 438.75 517.832 432.951C512.089 427.152 508.195 419.78 506.642 411.768C505.61 406.448 505.636 400.977 506.719 395.667C507.801 390.357 509.919 385.313 512.952 380.822C515.985 376.331 519.873 372.481 524.394 369.493C528.914 366.505 533.98 364.436 539.3 363.406Z" stroke="white" stroke-width="2.913" stroke-linecap="round" stroke-linejoin="round"/>
<path d="M316.481 341.652V327.714" stroke="white" stroke-width="2.913" stroke-linecap="round" stroke-linejoin="round"/>
<path d="M304.635 341.881L304.791 328.173" stroke="white" stroke-width="2.913" stroke-linecap="round" stroke-linejoin="round"/>
<path d="M292.26 342.336V330" stroke="white" stroke-width="2.913" stroke-linecap="round" stroke-linejoin="round"/>
<path d="M283.305 341.884C283.423 338.075 283.541 334.265 283.661 330.456" stroke="white" stroke-width="2.913" stroke-linecap="round" stroke-linejoin="round"/>
<path d="M415.325 306.218C415.929 305.697 416.396 305.037 416.688 304.295C416.979 303.553 417.086 302.751 416.998 301.959C416.91 301.167 416.631 300.408 416.184 299.747C415.737 299.087 415.136 298.546 414.433 298.17C413.73 297.794 412.946 297.595 412.149 297.59C411.351 297.585 410.565 297.774 409.857 298.141C409.15 298.508 408.542 299.042 408.087 299.697C407.632 300.351 407.343 301.107 407.245 301.898C407.02 303.714 407.81 305.477 408.374 307.217C408.938 308.957 409.244 311.006 408.192 312.502C407.14 313.998 404.274 314.012 403.838 312.236" stroke="white" stroke-width="2.913" stroke-linecap="round" stroke-linejoin="round"/>
<path d="M381.381 313.538C378.358 313.576 376.53 317.246 377.038 320.225C377.546 323.204 379.545 325.669 381.107 328.258C382.669 330.847 383.84 334.094 382.566 336.834C381.016 340.169 375.731 340.856 373.381 338.027" stroke="white" stroke-width="2.913" stroke-linecap="round" stroke-linejoin="round"/>
<path d="M344.1 365.114C342.9 361.025 346.467 356.289 350.728 356.314C352.211 356.323 353.655 356.814 355.136 356.878C356.617 356.942 358.3 356.438 358.93 355.095" stroke="white" stroke-width="2.913" stroke-linecap="round" stroke-linejoin="round"/>
<path d="M329.5 353.932C328.294 355.772 326.651 357.284 324.717 358.332C323.745 358.841 322.652 359.076 321.556 359.013C320.461 358.949 319.403 358.589 318.495 357.971C316.629 356.512 316.095 353.839 314.301 352.288C313.638 351.715 312.834 351.327 311.972 351.164C311.11 351.001 310.221 351.069 309.394 351.36C308.566 351.652 307.831 352.158 307.262 352.825C306.693 353.493 306.311 354.299 306.154 355.162" stroke="white" stroke-width="2.913" stroke-linecap="round" stroke-linejoin="round"/>
<path d="M322.394 381.658C321.479 382.752 320.829 384.042 320.496 385.428C320.162 386.814 320.154 388.259 320.472 389.649C320.789 391.039 321.424 392.336 322.327 393.44C323.23 394.543 324.375 395.423 325.675 396.01C327.851 396.994 330.393 397.131 332.381 398.455C333.166 399.046 333.815 399.799 334.282 400.663C334.75 401.528 335.025 402.483 335.088 403.464C335.152 404.445 335.003 405.427 334.652 406.345C334.301 407.263 333.755 408.094 333.053 408.781" stroke="white" stroke-width="2.913" stroke-linecap="round" stroke-linejoin="round"/>
<path d="M265.3 414.117C264.832 411.992 264.711 409.805 264.942 407.64C265.067 406.558 265.449 405.521 266.057 404.617C266.664 403.712 267.479 402.966 268.434 402.44C270.54 401.451 273.023 402.023 275.241 402.725C277.459 403.427 279.794 404.251 282.058 403.713C284.322 403.175 286.248 400.58 285.158 398.523" stroke="white" stroke-width="2.913" stroke-linecap="round" stroke-linejoin="round"/>
<path d="M278.948 374.869C279.44 373.512 279.541 372.044 279.239 370.632C278.938 369.22 278.245 367.921 277.241 366.883C276.237 365.846 274.962 365.111 273.561 364.763C272.159 364.415 270.689 364.468 269.316 364.915C267.748 365.427 266.383 366.426 264.845 367.021C263.307 367.616 261.379 367.721 260.178 366.587" stroke="white" stroke-width="2.913" stroke-linecap="round" stroke-linejoin="round"/>
<path d="M228.284 372.236C226.816 372.344 225.396 372.804 224.145 373.578C222.893 374.351 221.846 375.415 221.093 376.679C220.34 377.944 219.903 379.371 219.819 380.84C219.735 382.309 220.006 383.777 220.61 385.118C221.476 387.044 222.992 388.636 223.761 390.602C224.53 392.568 224.195 395.286 222.261 396.124" stroke="white" stroke-width="2.913" stroke-linecap="round" stroke-linejoin="round"/>
<path d="M254.111 449.155C254.351 448.297 254.41 447.399 254.284 446.517C254.158 445.635 253.85 444.789 253.38 444.033C252.91 443.276 252.288 442.625 251.553 442.122C250.818 441.619 249.986 441.274 249.111 441.109C246.681 440.78 244.306 441.909 241.867 442.17C239.428 442.431 236.367 441.157 236.349 438.705" stroke="white" stroke-width="2.913" stroke-linecap="round" stroke-linejoin="round"/>
<path d="M207.5 420.254C206.337 421.363 205.468 422.742 204.97 424.27C204.472 425.797 204.361 427.424 204.647 429.005C204.933 430.585 205.606 432.071 206.607 433.327C207.609 434.583 208.906 435.571 210.383 436.203" stroke="white" stroke-width="2.913" stroke-linecap="round" stroke-linejoin="round"/>
<path d="M338.612 447.816C339.778 448.687 340.672 449.872 341.19 451.232C341.708 452.592 341.829 454.071 341.538 455.497C341.247 456.923 340.556 458.237 339.546 459.285C338.536 460.333 337.249 461.072 335.835 461.416C334.14 461.828 332.324 461.659 330.679 462.238C329.034 462.817 327.579 464.647 328.309 466.23" stroke="white" stroke-width="2.913" stroke-linecap="round" stroke-linejoin="round"/>
<path d="M287.507 463.872C286.653 466.603 284.813 468.917 282.345 470.366C279.877 471.814 276.959 472.292 274.158 471.707C272.617 471.328 271.158 470.618 269.589 470.381C268.813 470.205 268.004 470.247 267.25 470.502C266.496 470.757 265.828 471.216 265.318 471.827" stroke="white" stroke-width="2.913" stroke-linecap="round" stroke-linejoin="round"/>
<path d="M428.751 259.23C425.264 276.083 424.976 293.441 427.9 310.4" stroke="white" stroke-width="2.913" stroke-linecap="round" stroke-linejoin="round"/>
<path d="M276.6 422.302C275.476 434.772 275.551 447.322 276.823 459.778" stroke="white" stroke-width="2.913" stroke-linecap="round" stroke-linejoin="round"/>
<path d="M347.236 668.4C347.278 673.009 350.117 677.262 353.836 679.983C357.555 682.704 362.075 684.097 366.574 685.097C376.398 687.275 386.518 687.789 396.512 686.618C403.46 685.802 411.265 683.425 414.082 677.018" stroke="white" stroke-width="2.913" stroke-linecap="round" stroke-linejoin="round"/>
<path d="M154.881 551.318C142.969 556.101 133.209 565.064 127.432 576.526C124.908 581.584 123.206 587.477 124.909 592.867C126.612 598.257 132.816 602.437 138.039 600.275" stroke="white" stroke-width="2.913" stroke-linecap="round" stroke-linejoin="round"/>
<path d="M732.432 506.679C749.558 470.649 769.132 435.834 791.015 402.479" stroke="white" stroke-width="2.913" stroke-linecap="round" stroke-linejoin="round"/>
<path d="M732.752 537.211L772.524 529.511" stroke="white" stroke-width="2.913" stroke-linecap="round" stroke-linejoin="round"/>
<path d="M740.547 489.773L788.586 482.358" stroke="white" stroke-width="2.913" stroke-linecap="round" stroke-linejoin="round"/>
<path d="M765.634 443.021L797.686 435.515" stroke="white" stroke-width="2.913" stroke-linecap="round" stroke-linejoin="round"/>
<path d="M741 488.574C741.238 473.342 741.476 458.109 741.715 442.874" stroke="white" stroke-width="2.913" stroke-linecap="round" stroke-linejoin="round"/>
<path d="M766.07 441.51C765.623 432.522 765.177 423.534 764.729 414.546" stroke="white" stroke-width="2.913" stroke-linecap="round" stroke-linejoin="round"/>
<path d="M735.034 637.316C790.455 572.901 841.839 505.121 888.893 434.363" stroke="url(#paint9_linear_274_7862)" stroke-width="2.913" stroke-linecap="round" stroke-linejoin="round"/>
<path d="M852.991 486.31C853.591 472.283 854.191 458.255 854.791 444.226" stroke="url(#paint10_linear_274_7862)" stroke-width="2.913" stroke-linecap="round" stroke-linejoin="round"/>
<path d="M853.468 485.931L892.732 481.484" stroke="url(#paint11_linear_274_7862)" stroke-width="2.913" stroke-linecap="round" stroke-linejoin="round"/>
<path d="M826.676 522.854C827.918 506.282 828.349 489.676 827.967 473.036" stroke="url(#paint12_linear_274_7862)" stroke-width="2.913" stroke-linecap="round" stroke-linejoin="round"/>
<path d="M826.966 522.819C842.622 524.11 858.35 524.297 874.033 523.38" stroke="url(#paint13_linear_274_7862)" stroke-width="2.913" stroke-linecap="round" stroke-linejoin="round"/>
<path d="M802.224 554.847L795 507.302" stroke="url(#paint14_linear_274_7862)" stroke-width="2.913" stroke-linecap="round" stroke-linejoin="round"/>
<path d="M802.269 554.351L853.919 556.389" stroke="url(#paint15_linear_274_7862)" stroke-width="2.913" stroke-linecap="round" stroke-linejoin="round"/>
<path d="M775.832 587.738C774.734 575.661 773.174 563.639 771.152 551.67L772.552 552.097" stroke="url(#paint16_linear_274_7862)" stroke-width="2.913" stroke-linecap="round" stroke-linejoin="round"/>
<path d="M775.753 587.885L834.703 591.133" stroke="url(#paint17_linear_274_7862)" stroke-width="2.913" stroke-linecap="round" stroke-linejoin="round"/>
<path d="M751.987 616.99C751.044 604.218 750.755 591.406 751.121 578.604" stroke="url(#paint18_linear_274_7862)" stroke-width="2.913" stroke-linecap="round" stroke-linejoin="round"/>
<path d="M752.773 617.151L803.963 624.873" stroke="url(#paint19_linear_274_7862)" stroke-width="2.913" stroke-linecap="round" stroke-linejoin="round"/>
<path d="M371.448 224.996L371.926 233.861L379.501 238.494L371.216 241.688L369.15 250.324L363.553 243.432L354.701 244.136L359.527 236.682L356.122 228.482L364.702 230.767L371.448 224.996Z" fill="url(#paint20_linear_274_7862)" stroke="white" stroke-width="2.913" stroke-linecap="round" stroke-linejoin="round"/>
<path d="M275.186 199.479L279.972 203.775L286.225 202.268L283.618 208.148L286.982 213.628L280.586 212.966L276.413 217.859L275.066 211.57L269.123 209.114L274.687 205.89L275.186 199.479Z" fill="white"/>
<path d="M297.785 177.54L297.973 181.016L300.943 182.833L297.695 184.086L296.884 187.472L294.689 184.769L291.218 185.045L293.11 182.122L291.775 178.907L295.14 179.803L297.785 177.54Z" stroke="url(#paint21_linear_274_7862)" stroke-width="2.913" stroke-linecap="round" stroke-linejoin="round"/>
<path d="M644.907 407.031L636.841 403.32L629.211 407.86L630.248 399.041L623.573 393.187L632.28 391.45L635.785 383.292L640.128 391.035L648.97 391.848L642.948 398.372L644.907 407.031Z" stroke="white" stroke-width="2.913" stroke-linecap="round" stroke-linejoin="round"/>
<path d="M697.976 350.919L691.943 353.148L690.36 359.382L686.376 354.333L679.958 354.754L683.528 349.405L681.144 343.431L687.335 345.172L692.28 341.06L692.537 347.487L697.976 350.919Z" fill="white"/>
<path d="M706.844 381.138L703.682 379.682L700.688 381.463L701.094 378.005L698.479 375.709L701.893 375.027L703.266 371.829L704.969 374.865L708.438 375.184L706.076 377.742L706.844 381.138Z" stroke="url(#paint22_linear_274_7862)" stroke-width="2.913" stroke-linecap="round" stroke-linejoin="round"/>
<path d="M238.792 266.702L234.336 261.561" stroke="white" stroke-width="2.913" stroke-linecap="round" stroke-linejoin="round"/>
<path d="M232.966 267.047L238.521 260.942" stroke="white" stroke-width="2.913" stroke-linecap="round" stroke-linejoin="round"/>
<path d="M349.5 211.18C348.579 208.445 347.187 205.893 345.387 203.639" stroke="white" stroke-width="2.913" stroke-linecap="round" stroke-linejoin="round"/>
<path d="M343.269 210.415L350.841 204.629" stroke="white" stroke-width="2.913" stroke-linecap="round" stroke-linejoin="round"/>
<path d="M361.511 301.646L355.681 296.852" stroke="white" stroke-width="2.913" stroke-linecap="round" stroke-linejoin="round"/>
<path d="M360.916 295.9L355.692 304.073" stroke="white" stroke-width="2.913" stroke-linecap="round" stroke-linejoin="round"/>
<path d="M397.891 399.714C399.477 395.307 402.009 391.301 405.309 387.979" stroke="white" stroke-width="2.913" stroke-linecap="round" stroke-linejoin="round"/>
<path d="M405.256 398.443L394.393 388.729" stroke="white" stroke-width="2.913" stroke-linecap="round" stroke-linejoin="round"/>
<path d="M186.694 499.085C188.522 495.885 190.35 492.685 192.178 489.485" stroke="white" stroke-width="2.913" stroke-linecap="round" stroke-linejoin="round"/>
<path d="M193.55 497.714C190.578 495.429 187.608 493.144 184.639 490.859" stroke="white" stroke-width="2.913" stroke-linecap="round" stroke-linejoin="round"/>
<path d="M782.388 363.36C780.648 359.621 778.067 356.335 774.847 353.76" stroke="white" stroke-width="2.913" stroke-linecap="round" stroke-linejoin="round"/>
<path d="M783.733 353.024C779.612 355.098 776.088 358.187 773.492 362" stroke="white" stroke-width="2.913" stroke-linecap="round" stroke-linejoin="round"/>
<path d="M857.428 402.433C858.143 398.819 858.857 395.205 859.571 391.59" stroke="white" stroke-width="2.913" stroke-linecap="round" stroke-linejoin="round"/>
<path d="M851.352 397.09L866.289 395.39" stroke="white" stroke-width="2.913" stroke-linecap="round" stroke-linejoin="round"/>
<path d="M721.754 214.265C735.525 212.478 749.518 213.625 762.814 217.63C776.11 221.636 788.408 228.41 798.9 237.507C803.237 241.317 807.4 245.812 808.694 251.439C810.075 257.457 807.821 263.939 803.75 268.579C799.679 273.219 793.991 276.199 788.1 278.048C780.772 280.348 772.284 280.888 765.854 276.689C759.424 272.49 756.793 262.318 762.254 256.918C767.397 251.832 775.962 253.437 782.712 256.035C790.391 258.99 797.863 262.863 803.754 268.606C809.645 274.349 813.839 282.158 813.967 290.384C814.194 305.064 801.886 319.065 806.227 333.09C808.748 341.235 816.596 346.879 824.875 348.911C833.154 350.943 841.862 349.929 850.258 348.448" stroke="white" stroke-width="2.913" stroke-linecap="round" stroke-linejoin="round"/>
<path d="M82.9854 712.839C79.9317 698.251 75.0449 684.108 68.4414 670.746" stroke="white" stroke-width="2.913" stroke-linecap="round" stroke-linejoin="round"/>
<path d="M83.3232 713.337C87.1102 698.397 94.3395 684.549 104.433 672.9" stroke="white" stroke-width="2.913" stroke-linecap="round" stroke-linejoin="round"/>
<path d="M82.8291 712.227C85.3188 693.82 85.5354 675.177 83.4741 656.718" stroke="white" stroke-width="2.913" stroke-linecap="round" stroke-linejoin="round"/>
<path d="M256.5 699.478C258.026 687.549 262.713 676.245 270.076 666.736" stroke="white" stroke-width="2.913" stroke-linecap="round" stroke-linejoin="round"/>
<path d="M256.293 698.892L254.393 656.728" stroke="white" stroke-width="2.913" stroke-linecap="round" stroke-linejoin="round"/>
<path d="M255.952 699.36C253.643 686.938 246.666 675.873 236.452 668.438" stroke="white" stroke-width="2.913" stroke-linecap="round" stroke-linejoin="round"/>
<path d="M534.534 720.493C536.509 705.784 541.747 691.703 549.864 679.278" stroke="white" stroke-width="2.913" stroke-linecap="round" stroke-linejoin="round"/>
<path d="M534.372 720.462C533.616 704.356 532.861 688.251 532.104 672.146" stroke="white" stroke-width="2.913" stroke-linecap="round" stroke-linejoin="round"/>
<path d="M534.48 720.901C532.024 706.1 524.601 692.578 513.432 682.562" stroke="white" stroke-width="2.913" stroke-linecap="round" stroke-linejoin="round"/>
<path d="M807.188 718.119C809.112 704.052 814.304 690.63 822.344 678.928" stroke="white" stroke-width="2.913" stroke-linecap="round" stroke-linejoin="round"/>
<path d="M807.258 717.433C808.373 705.38 807.704 693.229 805.271 681.372" stroke="white" stroke-width="2.913" stroke-linecap="round" stroke-linejoin="round"/>
<path d="M442.8 730.328C443.06 729.223 442.974 728.065 442.553 727.011C442.133 725.956 441.399 725.056 440.45 724.433C438.516 723.223 436.244 722.667 433.97 722.845C430.018 722.971 426.188 724.24 422.943 726.5C421.729 727.209 420.807 728.328 420.343 729.655C418.189 738.244 440.906 736.372 442.8 730.328Z" stroke="white" stroke-width="2.913" stroke-linecap="round" stroke-linejoin="round"/>
<path d="M111.829 708.77C111.322 709.004 110.884 709.364 110.555 709.815C110.227 710.266 110.02 710.794 109.954 711.348C109.987 712.763 111.517 713.624 112.879 714.013C115.298 714.701 117.84 714.835 120.318 714.405C123.346 713.877 126.325 710.567 122.836 708.457C119.625 706.515 114.947 706.881 111.829 708.77Z" stroke="white" stroke-width="2.913" stroke-linecap="round" stroke-linejoin="round"/>
<path d="M239.609 702.673C238.904 702.998 238.146 703.479 238.029 704.246C237.892 705.146 238.701 705.89 239.481 706.352C242.981 708.424 247.41 708.468 251.281 707.222C252.225 706.999 253.073 706.478 253.698 705.735C255.707 702.867 251.025 701.804 249.275 701.485C246.007 700.885 242.634 701.3 239.609 702.673Z" stroke="white" stroke-width="2.913" stroke-linecap="round" stroke-linejoin="round"/>
<path d="M795.089 720.028C796.244 719.828 797.654 719.293 797.706 718.122C797.755 717.012 796.518 716.334 795.451 716.022C791.135 714.759 786.527 714.918 782.308 716.476C781.917 716.57 781.551 716.749 781.236 717C780.922 717.25 780.666 717.567 780.487 717.927C780.392 718.379 780.457 718.85 780.671 719.259C780.885 719.668 781.234 719.99 781.659 720.169C785.007 721.8 791.573 720.63 795.089 720.028Z" stroke="white" stroke-width="2.913" stroke-linecap="round" stroke-linejoin="round"/>
<path d="M771.278 717.876C771.742 717.805 772.287 717.653 772.427 717.206C772.637 716.536 771.768 716.072 771.085 715.906C768.963 715.285 766.761 714.981 764.549 715.006C763.823 715.005 763.112 715.217 762.504 715.615C760.452 717.17 762.737 718.023 763.955 718.231C766.401 718.473 768.868 718.353 771.278 717.876Z" stroke="white" stroke-width="2.913" stroke-linecap="round" stroke-linejoin="round"/>
<path d="M529.3 207.43C522.209 215.278 515.118 223.126 508.028 230.974" stroke="white" stroke-width="2.913" stroke-linecap="round" stroke-linejoin="round"/>
<path d="M502.2 172.105C500.594 190.505 499.447 208.965 498.76 227.485" stroke="white" stroke-width="2.913" stroke-linecap="round" stroke-linejoin="round"/>
<path d="M474.013 207.867C478.403 214.479 482.792 221.09 487.181 227.7" stroke="white" stroke-width="2.913" stroke-linecap="round" stroke-linejoin="round"/>
<path d="M426.778 439.778C431.274 441.089 435.428 443.37 438.947 446.459" stroke="url(#paint23_linear_274_7862)" stroke-width="2.913" stroke-linecap="round" stroke-linejoin="round"/>
<path d="M428.5 447.85C431.509 444.037 434.518 440.223 437.526 436.409" stroke="url(#paint24_linear_274_7862)" stroke-width="2.913" stroke-linecap="round" stroke-linejoin="round"/>
<path d="M832.307 313.652C835.853 314.687 839.13 316.485 841.907 318.921" stroke="url(#paint25_linear_274_7862)" stroke-width="2.913" stroke-linecap="round" stroke-linejoin="round"/>
<path d="M833.666 320.02L840.785 310.994" stroke="url(#paint26_linear_274_7862)" stroke-width="2.913" stroke-linecap="round" stroke-linejoin="round"/>
<path d="M131.854 365.274C135.4 366.308 138.677 368.107 141.454 370.543" stroke="url(#paint27_linear_274_7862)" stroke-width="2.913" stroke-linecap="round" stroke-linejoin="round"/>
<path d="M133.212 371.64C135.586 368.632 137.959 365.624 140.331 362.615" stroke="url(#paint28_linear_274_7862)" stroke-width="2.913" stroke-linecap="round" stroke-linejoin="round"/>
<path d="M387.248 424.944L392.035 429.241L398.287 427.734L395.679 433.613L399.044 439.094L392.648 438.432L388.475 443.325L387.129 437.036L381.184 434.58L386.749 431.356L387.248 424.944Z" stroke="white" stroke-width="2.913" stroke-linecap="round" stroke-linejoin="round"/>
<g opacity="0.1">
<path d="M278.478 337.258C280.565 341.116 274.961 343.543 272.096 343.796C267.775 344.178 263.401 343.219 259.07 343.268C251.868 343.217 244.725 344.573 238.042 347.258C223.964 353.142 211.793 362.815 202.883 375.201C192.983 389.181 185.946 406.672 188.76 424.001C190.132 432.023 193.818 439.469 199.365 445.424C205.212 451.689 213.741 454.852 221.98 456.46C243.357 460.633 265.708 459.599 287.26 457.486C292.047 457.017 296.167 453.728 296.167 448.58C296.167 444.106 292.078 439.228 287.26 439.673C268.742 441.385 250.36 440.254 231.931 437.988C225.277 437.17 218.193 436.003 212.731 431.817C207.85 428.079 206.165 421.487 206.189 415.565C206.248 401.318 214.977 386.875 223.383 375.851C231.926 364.651 243.352 357.559 256.951 354.251C264.912 352.314 273.603 355.512 280.885 350.509C286.206 346.854 289.078 339.035 284.878 333.524C282.063 329.831 276.147 332.944 278.478 337.262V337.258Z" fill="white"/>
</g>
<g opacity="0.1">
<path d="M257.972 470.965C257.09 470.001 255.936 469.328 254.663 469.034C254.425 468.953 254.179 468.901 253.929 468.879C253.612 468.779 253.682 468.82 254.14 469.003C254.645 469.237 254.664 469.237 254.195 469.003C253.993 468.846 253.776 468.709 253.547 468.596C253.738 468.66 254.659 469.384 253.961 468.841C253.174 468.229 254.253 469.619 254.146 469.094C254.024 468.802 253.877 468.521 253.708 468.254L251.369 477.175C252.828 476.307 254.072 475.12 255.007 473.703C256.161 471.688 256.473 469.3 255.876 467.057C255.302 465.063 254.03 463.343 252.293 462.209C250.556 461.075 248.469 460.603 246.413 460.879C242.364 461.423 238.742 465.064 238.934 469.35C238.966 471.412 239.729 473.395 241.085 474.949C242.442 476.502 244.305 477.524 246.344 477.833L242.444 474.833C243.868 477.227 246.028 479.097 248.602 480.164C252.14 481.657 256.739 481.586 258.855 477.82C260.223 475.384 259.555 473.012 257.969 470.958L257.972 470.965Z" fill="white"/>
</g>
<g opacity="0.1">
<path d="M292.82 326.753C291.709 315.793 292.158 304.731 294.154 293.897C295.112 288.742 296.438 283.662 298.12 278.697C299.763 273.85 302.963 268.988 303.327 263.882C303.557 260.659 299.421 259.492 297.327 261.396C293.6 264.784 292.054 271.014 290.477 275.685C284.811 292.395 283.34 310.242 286.193 327.654C286.757 331.379 293.201 330.545 292.822 326.754L292.82 326.753Z" fill="white"/>
</g>
<g opacity="0.1">
<path d="M514.307 248.57C507.77 247.333 501.734 246.8 495.188 248.211C488.608 249.629 482.004 250.64 476.448 254.711C463.722 264.031 457.653 279.923 456.104 295.168C454.361 312.315 455.734 330.111 455.816 347.324C455.902 365.591 455.987 383.855 456.072 402.117C456.414 475.176 456.96 548.233 457.71 621.29C457.81 631.321 457.802 641.36 458.021 651.39C458.211 660.103 458.93 668.99 462.199 677.143C467.807 691.133 488.091 710.556 503.758 699.213C506.309 697.365 507.079 693.998 504.744 691.556C500.223 686.828 494.95 684.988 489.718 681.308C484.978 677.975 482.418 673.238 480.96 667.708C479.275 661.308 479.251 654.599 479.186 648.024C479.101 639.443 479.052 630.862 478.986 622.281C478.728 589.072 478.44 555.864 478.123 522.657C477.461 455.907 476.684 389.159 475.79 322.413C475.678 313.613 475.479 304.821 475.921 296.025C476.29 288.696 476.715 280.901 480.345 274.343C483.416 268.796 488.245 263.619 492.99 259.457C498.098 254.976 507.023 253.151 513.621 253.631C516.492 253.84 517.17 249.109 514.307 248.567V248.57Z" fill="white"/>
</g>
<g opacity="0.1">
<path d="M222.034 682.123C221.534 674.563 220.825 667.771 223.556 660.423C225.826 654.457 229.986 649.398 235.4 646.016C248.362 637.882 263.172 641.116 277.087 644.583C282.92 646.035 287.005 641.898 287.709 636.492C288.851 628.23 291.344 620.211 295.088 612.757C298.768 605.267 303.26 596.99 309.334 591.157C315.106 585.61 306.589 577.403 300.65 582.472C298.595 584.227 296.318 585.454 294.35 587.403C292.486 589.253 290.677 591.195 288.932 593.159C285.47 597.002 282.485 601.248 280.041 605.806C275.093 615.37 272 625.783 270.923 636.496L281.545 628.404C262.045 624.014 241.528 621.134 225.215 635.187C212.385 646.241 204.98 668.821 214.952 684.043C216.873 686.975 222.293 686.121 222.027 682.127L222.034 682.123Z" fill="white"/>
</g>
<g opacity="0.1">
<path d="M361.3 537.101C368.132 535.084 374.374 532.572 381.633 532.53C389.824 532.482 397.784 534.391 405.72 536.201C413.382 537.948 417.562 529.416 412.972 523.744C406.032 515.168 405.815 503.596 410.031 493.784C412.202 488.733 414.945 484.751 419.705 481.884C424.362 479.074 429.842 479.047 434.231 476.035C436.45 474.512 436.985 470.795 434.231 469.397C427.472 465.963 419.118 469.647 412.985 473.297C406.795 476.976 400.459 481.969 396.774 488.203C388.183 502.739 392.32 521.797 402.431 534.292L409.683 521.835C393.521 518.149 368.219 512.46 355.463 527.081C351.71 531.381 355.224 538.902 361.3 537.109V537.101Z" fill="white"/>
</g>
<g opacity="0.1">
<path d="M737.536 439.043C740.711 438.271 742.412 435.468 744.512 433.133C746.927 430.449 749.243 427.693 751.742 425.082C756.717 419.727 762.136 414.804 767.942 410.365C773.823 406.136 779.947 402.256 786.283 398.745C791.537 395.736 799.026 393.772 802.752 388.822C803.502 387.822 802.645 386.557 801.687 386.205C795.411 383.9 786.911 388.105 781.124 390.458C773.804 393.556 766.932 397.619 760.69 402.54C754.481 407.111 748.811 412.374 743.791 418.226C739.884 422.954 732.651 430.39 733.846 436.947C734.066 437.709 734.575 438.355 735.265 438.748C735.954 439.14 736.77 439.247 737.538 439.047L737.536 439.043Z" fill="white"/>
</g>
</g>
</g>
<defs>
<linearGradient id="paint0_linear_274_7862" x1="802.115" y1="604.875" x2="802.115" y2="697.713" gradientUnits="userSpaceOnUse">
<stop stop-color="#FD6F8E"/>
<stop offset="1" stop-color="#FF0769"/>
</linearGradient>
<linearGradient id="paint1_linear_274_7862" x1="770.618" y1="385.373" x2="770.618" y2="617.219" gradientUnits="userSpaceOnUse">
<stop stop-color="#FD6F8E"/>
<stop offset="1" stop-color="#FF0769"/>
</linearGradient>
<linearGradient id="paint2_linear_274_7862" x1="587.289" y1="418.332" x2="587.289" y2="567.839" gradientUnits="userSpaceOnUse">
<stop stop-color="#FD6F8E"/>
<stop offset="1" stop-color="#FF0769"/>
</linearGradient>
<linearGradient id="paint3_linear_274_7862" x1="556.014" y1="374.163" x2="556.014" y2="457.876" gradientUnits="userSpaceOnUse">
<stop stop-color="#FD6F8E"/>
<stop offset="1" stop-color="#FF0769"/>
</linearGradient>
<linearGradient id="paint4_linear_274_7862" x1="547.151" y1="362.652" x2="547.151" y2="445.181" gradientUnits="userSpaceOnUse">
<stop stop-color="#FD6F8E"/>
<stop offset="1" stop-color="#FF0769"/>
</linearGradient>
<linearGradient id="paint5_linear_274_7862" x1="409.462" y1="468.594" x2="409.462" y2="686.372" gradientUnits="userSpaceOnUse">
<stop stop-color="#FD6F8E"/>
<stop offset="1" stop-color="#FF0769"/>
</linearGradient>
<linearGradient id="paint6_linear_274_7862" x1="317.022" y1="249.409" x2="317.022" y2="481.319" gradientUnits="userSpaceOnUse">
<stop stop-color="#FD6F8E"/>
<stop offset="1" stop-color="#FF0769"/>
</linearGradient>
<linearGradient id="paint7_linear_274_7862" x1="269.586" y1="581.426" x2="269.586" y2="686.343" gradientUnits="userSpaceOnUse">
<stop stop-color="#FD6F8E"/>
<stop offset="1" stop-color="#FF0769"/>
</linearGradient>
<linearGradient id="paint8_linear_274_7862" x1="301.712" y1="327.623" x2="301.712" y2="342.616" gradientUnits="userSpaceOnUse">
<stop stop-color="#FD6F8E"/>
<stop offset="1" stop-color="#FF7F0A"/>
<stop offset="1" stop-color="#FF0769"/>
</linearGradient>
<linearGradient id="paint9_linear_274_7862" x1="811.964" y1="434.363" x2="811.964" y2="637.316" gradientUnits="userSpaceOnUse">
<stop stop-color="#FD6F8E"/>
<stop offset="1" stop-color="#FF0769"/>
</linearGradient>
<linearGradient id="paint10_linear_274_7862" x1="853.891" y1="444.226" x2="853.891" y2="486.31" gradientUnits="userSpaceOnUse">
<stop stop-color="#FD6F8E"/>
<stop offset="1" stop-color="#FF0769"/>
</linearGradient>
<linearGradient id="paint11_linear_274_7862" x1="873.1" y1="481.484" x2="873.1" y2="485.931" gradientUnits="userSpaceOnUse">
<stop stop-color="#FD6F8E"/>
<stop offset="1" stop-color="#FF0769"/>
</linearGradient>
<linearGradient id="paint12_linear_274_7862" x1="827.389" y1="473.036" x2="827.389" y2="522.854" gradientUnits="userSpaceOnUse">
<stop stop-color="#FD6F8E"/>
<stop offset="1" stop-color="#FF0769"/>
</linearGradient>
<linearGradient id="paint13_linear_274_7862" x1="850.499" y1="522.819" x2="850.499" y2="523.951" gradientUnits="userSpaceOnUse">
<stop stop-color="#FD6F8E"/>
<stop offset="1" stop-color="#FF0769"/>
</linearGradient>
<linearGradient id="paint14_linear_274_7862" x1="798.612" y1="507.302" x2="798.612" y2="554.847" gradientUnits="userSpaceOnUse">
<stop stop-color="#FD6F8E"/>
<stop offset="1" stop-color="#FF0769"/>
</linearGradient>
<linearGradient id="paint15_linear_274_7862" x1="828.094" y1="554.351" x2="828.094" y2="556.389" gradientUnits="userSpaceOnUse">
<stop stop-color="#FD6F8E"/>
<stop offset="1" stop-color="#FF0769"/>
</linearGradient>
<linearGradient id="paint16_linear_274_7862" x1="773.492" y1="551.67" x2="773.492" y2="587.738" gradientUnits="userSpaceOnUse">
<stop stop-color="#FD6F8E"/>
<stop offset="1" stop-color="#FF0769"/>
</linearGradient>
<linearGradient id="paint17_linear_274_7862" x1="805.228" y1="587.885" x2="805.228" y2="591.133" gradientUnits="userSpaceOnUse">
<stop stop-color="#FD6F8E"/>
<stop offset="1" stop-color="#FF0769"/>
</linearGradient>
<linearGradient id="paint18_linear_274_7862" x1="751.477" y1="578.604" x2="751.477" y2="616.99" gradientUnits="userSpaceOnUse">
<stop stop-color="#FD6F8E"/>
<stop offset="1" stop-color="#FF0769"/>
</linearGradient>
<linearGradient id="paint19_linear_274_7862" x1="778.368" y1="617.151" x2="778.368" y2="624.873" gradientUnits="userSpaceOnUse">
<stop stop-color="#FD6F8E"/>
<stop offset="1" stop-color="#FF0769"/>
</linearGradient>
<linearGradient id="paint20_linear_274_7862" x1="367.101" y1="224.996" x2="367.101" y2="250.324" gradientUnits="userSpaceOnUse">
<stop stop-color="#FD6F8E"/>
<stop offset="1" stop-color="#FF0769"/>
</linearGradient>
<linearGradient id="paint21_linear_274_7862" x1="296.08" y1="177.54" x2="296.08" y2="187.472" gradientUnits="userSpaceOnUse">
<stop stop-color="#FD6F8E"/>
<stop offset="1" stop-color="#FF0769"/>
</linearGradient>
<linearGradient id="paint22_linear_274_7862" x1="703.458" y1="371.829" x2="703.458" y2="381.463" gradientUnits="userSpaceOnUse">
<stop stop-color="#FD6F8E"/>
<stop offset="1" stop-color="#FF0769"/>
</linearGradient>
<linearGradient id="paint23_linear_274_7862" x1="432.863" y1="439.778" x2="432.863" y2="446.459" gradientUnits="userSpaceOnUse">
<stop stop-color="#FD6F8E"/>
<stop offset="1" stop-color="#FF0769"/>
</linearGradient>
<linearGradient id="paint24_linear_274_7862" x1="433.013" y1="436.409" x2="433.013" y2="447.85" gradientUnits="userSpaceOnUse">
<stop stop-color="#FD6F8E"/>
<stop offset="1" stop-color="#FF0769"/>
</linearGradient>
<linearGradient id="paint25_linear_274_7862" x1="837.107" y1="313.652" x2="837.107" y2="318.921" gradientUnits="userSpaceOnUse">
<stop stop-color="#FD6F8E"/>
<stop offset="1" stop-color="#FF0769"/>
</linearGradient>
<linearGradient id="paint26_linear_274_7862" x1="837.225" y1="310.994" x2="837.225" y2="320.02" gradientUnits="userSpaceOnUse">
<stop stop-color="#FD6F8E"/>
<stop offset="1" stop-color="#FF0769"/>
</linearGradient>
<linearGradient id="paint27_linear_274_7862" x1="136.654" y1="365.274" x2="136.654" y2="370.543" gradientUnits="userSpaceOnUse">
<stop stop-color="#FD6F8E"/>
<stop offset="1" stop-color="#FF0769"/>
</linearGradient>
<linearGradient id="paint28_linear_274_7862" x1="136.771" y1="362.615" x2="136.771" y2="371.64" gradientUnits="userSpaceOnUse">
<stop stop-color="#FD6F8E"/>
<stop offset="1" stop-color="#FF0769"/>
</linearGradient>
<clipPath id="clip0_274_7862">
<rect width="960" height="960" fill="white"/>
</clipPath>
</defs>
</svg>
