<svg width="960" height="960" viewBox="0 0 960 960" fill="none" xmlns="http://www.w3.org/2000/svg">
<mask id="mask0_278_8454" style="mask-type:luminance" maskUnits="userSpaceOnUse" x="38" y="171" width="884" height="618">
<path d="M922 171H38V789H922V171Z" fill="white"/>
</mask>
<g mask="url(#mask0_278_8454)">
<path fill-rule="evenodd" clip-rule="evenodd" d="M272.685 685.825C272.685 685.825 336.121 695.5 384 690.007C391.595 689.206 399.114 687.808 406.49 685.828C408.978 685.132 411.483 684.437 414.001 683.737C431.89 678.769 450.442 673.616 468.336 666.815C495.719 656.415 521.57 642.167 541.119 618.867C558.979 597.583 555.453 571.046 548.042 550.583H548.032C543.859 539.17 538.237 528.34 531.304 518.359C530.923 517.582 530.326 516.93 529.586 516.481C527.709 515.18 523.894 513.819 516.345 514.624C510.083 515.292 492.816 522.833 474.762 530.718C460.567 536.917 445.885 543.329 435.684 546.779C432.586 547.918 429.386 548.755 426.128 549.279C425.463 549.358 424.668 549.468 423.774 549.597L423.724 549.279L437.731 453.321L437.115 453.232C421.897 438.739 400.877 433.285 400.877 433.285C400.877 433.285 409.768 416.912 404.622 409.912C402.765 407.389 389.076 402.799 371.881 398.131C355.451 393.67 335.833 389.151 320.287 386.3C306.946 383.846 296.595 382.627 293.834 383.727C284.486 387.472 286.821 408.034 286.821 408.034C286.821 408.034 135.603 386.767 109.309 524.554C97.905 584.294 127.11 622.548 163.844 646.717C211.833 678.285 272.685 685.825 272.685 685.825ZM199.56 503.053C199.054 502.396 198.112 502.274 197.456 502.779C196.8 503.285 196.677 504.227 197.183 504.883C220.517 535.182 253.081 557.062 289.953 567.215C326.824 577.367 365.998 575.241 401.553 561.157C402.324 560.852 402.701 559.981 402.396 559.21C402.091 558.44 401.219 558.063 400.449 558.368C365.499 572.212 326.992 574.302 290.749 564.322C254.506 554.342 222.497 532.836 199.56 503.053Z" fill="url(#paint0_linear_278_8454)"/>
<path d="M737.926 751.385L820.662 271.775L839.595 277.378L779.597 612.574L754.753 751.385H737.926Z" fill="white"/>
<path d="M780.929 307.07L701.461 710.013L469.136 668.878L468.336 666.812C495.723 656.412 521.57 642.167 541.119 618.863C558.979 597.576 555.453 571.043 548.042 550.58L584.121 537.657C584.121 537.657 588.174 557.971 594.879 558.09C600.76 558.199 602.905 554.504 602.965 549.428L603.223 549.438C609.491 554.951 616.743 560.464 619.494 559.272C623.547 557.524 613.584 534.041 608.786 523.323H608.796C610.514 525.806 612.769 527.485 615.153 525.27C623.053 517.939 612.968 506.634 607.465 501.548C602.2 496.681 596.448 491.615 588.929 492.248L587.866 492.188C587.466 492.267 587.066 492.347 586.666 492.436L586.636 492.297L553.518 445.173C553.518 445.173 543.912 433.153 537.733 437.206C526.588 444.517 536.959 457.172 536.959 457.172L564.683 498.118L565.031 499.032C552.704 503.742 540.839 509.581 529.588 516.475C527.711 515.175 523.896 513.813 516.347 514.618C505.161 515.81 458.861 538.935 435.686 546.773L460.722 376.714L780.929 307.07Z" fill="white"/>
<path d="M440.206 253.021C439.998 253.1 439.849 253.16 439.759 253.19C439.735 253.198 439.712 253.208 439.69 253.219C439.714 253.212 439.737 253.202 439.759 253.19C439.849 253.16 439.999 253.11 440.206 253.021ZM441.319 252.604C447.885 250.18 472.301 241.627 474.278 246.296C476.851 252.375 453.318 269.828 437.117 266.868C437.117 266.868 369.45 254.243 359.983 254.243C350.516 254.243 347.715 261.603 347.715 261.603L332.636 329.916C332.636 329.916 324.222 341.416 315.57 337.922C306.918 334.428 318.143 320.857 318.143 320.857C318.143 320.857 302.955 330.204 300.611 322.963C298.267 315.722 306.461 311.509 306.461 311.509C306.461 311.509 314.637 304.258 317.438 298.188C320.239 292.118 330.302 237.882 347.129 232.975C363.956 228.068 390.129 231.336 407.197 232.975C424.265 234.614 431.733 205.161 439.918 206.562C447.994 207.942 433.044 239.203 432.677 239.978C433.322 239.312 455.444 216.664 461.891 219.878C468.427 223.161 451.599 248.63 441.319 252.604Z" fill="white"/>
<path d="M423.729 549.278L437.736 453.32L451.136 361.525L820.663 271.775L737.927 751.385L442.722 679.159" stroke="white" stroke-width="3" stroke-linecap="round" stroke-linejoin="round"/>
<path d="M737.926 751.385H754.753L779.597 612.574L839.595 277.378L820.662 271.775" stroke="white" stroke-width="3" stroke-linecap="round" stroke-linejoin="round"/>
<path d="M163.996 646.557L163.847 646.716L40.2344 780.133L920.234 787.116L779.596 612.574" stroke="white" stroke-width="3" stroke-linecap="round" stroke-linejoin="round"/>
<path d="M435.688 546.776L460.72 376.714L780.927 307.07L701.458 710.013L469.134 668.878" stroke="white" stroke-width="3" stroke-linecap="round" stroke-linejoin="round"/>
<path d="M215.54 674.957L158.035 742.971H412.571L384.002 690.006L383.824 689.678" stroke="white" stroke-width="3" stroke-linecap="round" stroke-linejoin="round"/>
<path d="M320.719 383.965L332.639 329.917L347.718 261.6C347.718 261.6 350.518 254.24 359.986 254.24C369.454 254.24 437.12 266.865 437.12 266.865C437.12 266.865 415.375 352.765 412.92 359.773C410.465 366.781 404.158 366.429 404.158 366.429C404.158 366.429 389.437 365.029 384.172 366.429C378.907 367.829 371.902 398.041 371.902 398.041" stroke="white" stroke-width="3" stroke-linecap="round" stroke-linejoin="round"/>
<path d="M548.045 550.579C555.456 571.042 558.982 597.578 541.122 618.861C521.573 642.161 495.722 656.411 468.339 666.811C447.926 674.569 426.658 680.182 406.493 685.824C399.116 687.805 391.596 689.203 384 690.006C336.121 695.499 272.685 685.824 272.685 685.824C272.685 685.824 211.833 678.283 163.844 646.715C127.11 622.546 97.905 584.293 109.309 524.553C135.603 386.766 286.821 408.033 286.821 408.033C286.821 408.033 284.486 387.471 293.834 383.726C296.595 382.626 306.946 383.845 320.287 386.299C335.833 389.15 355.451 393.669 371.881 398.13C389.076 402.798 402.765 407.388 404.622 409.911C409.768 416.911 400.877 433.284 400.877 433.284C400.877 433.284 421.897 438.738 437.115 453.231" stroke="white" stroke-width="3" stroke-linecap="round" stroke-linejoin="round"/>
<path d="M212.5 498.26C223.248 530.514 262.982 544.06 295.7 557.623C327.041 570.606 403.419 552.716 423.773 549.597C424.667 549.468 425.462 549.358 426.127 549.279C429.385 548.755 432.586 547.918 435.683 546.779C458.858 538.941 505.158 515.816 516.344 514.624C523.893 513.819 527.708 515.18 529.585 516.481C530.325 516.93 530.921 517.582 531.303 518.359C538.236 528.339 543.859 539.169 548.031 550.583" stroke="white" stroke-width="3" stroke-linecap="round" stroke-linejoin="round"/>
<path d="M200.811 723.344H370.147" stroke="white" stroke-width="3" stroke-linecap="round" stroke-linejoin="round"/>
<path d="M238.678 699.85L330.454 704.41" stroke="white" stroke-width="3" stroke-linecap="round" stroke-linejoin="round"/>
<path d="M294.771 410.379L390.599 432.342" stroke="white" stroke-width="3" stroke-linecap="round" stroke-linejoin="round"/>
<path d="M492.039 530.98C492.039 530.98 528.028 559.023 519.148 622.13" stroke="white" stroke-width="3" stroke-linecap="round" stroke-linejoin="round"/>
<path d="M441.319 252.605C447.885 250.181 472.301 241.628 474.278 246.297C476.851 252.376 453.318 269.829 437.117 266.869" stroke="white" stroke-width="3" stroke-linecap="round" stroke-linejoin="round"/>
<path d="M439.66 253.229C439.671 253.228 439.681 253.225 439.69 253.219C439.712 253.208 439.735 253.198 439.759 253.19C439.849 253.16 439.998 253.1 440.206 253.021" stroke="white" stroke-width="3" stroke-linecap="round" stroke-linejoin="round"/>
<path d="M432.668 239.989C432.668 239.986 432.669 239.983 432.671 239.982C432.673 239.98 432.675 239.979 432.678 239.979C433.323 239.313 455.445 216.665 461.892 219.879C468.428 223.157 451.601 248.626 441.32 252.6C441.316 252.603 441.311 252.606 441.306 252.607C441.301 252.609 441.295 252.609 441.29 252.609C441.042 252.709 440.833 252.788 440.654 252.848C440.585 252.878 440.535 252.888 440.525 252.898C440.423 252.948 440.317 252.988 440.207 253.017C439.999 253.106 439.85 253.156 439.76 253.186C439.738 253.197 439.715 253.207 439.691 253.215" stroke="white" stroke-width="3" stroke-linecap="round" stroke-linejoin="round"/>
<path d="M332.636 329.916C332.636 329.916 324.222 341.416 315.57 337.922C306.918 334.428 318.143 320.857 318.143 320.857C318.143 320.857 302.955 330.204 300.611 322.963C298.267 315.722 306.461 311.509 306.461 311.509C306.461 311.509 314.637 304.258 317.438 298.188C320.239 292.118 330.302 237.882 347.129 232.975C363.956 228.068 390.129 231.336 407.197 232.975C424.265 234.614 431.733 205.161 439.918 206.562C447.994 207.942 433.044 239.203 432.677 239.978" stroke="white" stroke-width="3" stroke-linecap="round" stroke-linejoin="round"/>
<path d="M423.726 275.51C423.726 275.51 406.492 263.362 396.678 267.802C386.864 272.242 386.158 328.337 386.158 328.337L374.943 327.403" stroke="white" stroke-width="3" stroke-linecap="round" stroke-linejoin="round"/>
<path d="M369.8 352.407C369.8 352.407 354.841 353.34 351.334 340.486" stroke="white" stroke-width="3" stroke-linecap="round" stroke-linejoin="round"/>
<path d="M369.799 286.031L371.667 278.789" stroke="white" stroke-width="3" stroke-linecap="round" stroke-linejoin="round"/>
<path d="M407.197 294.683L409.065 288.604" stroke="white" stroke-width="3" stroke-linecap="round" stroke-linejoin="round"/>
<path d="M769.614 514.918C768.414 521.285 763.277 525.666 758.141 524.702C753.005 523.738 749.807 517.779 751.009 511.402C752.211 505.025 757.356 500.644 762.492 501.618C767.628 502.592 770.816 508.541 769.614 514.918Z" stroke="white" stroke-width="3" stroke-linecap="round" stroke-linejoin="round"/>
<path d="M767.209 482.456L765.758 482.218C764.888 482.082 764.053 481.776 763.301 481.316C762.549 480.857 761.895 480.254 761.377 479.541C760.858 478.829 760.485 478.022 760.279 477.165C760.073 476.308 760.038 475.419 760.176 474.549L770.834 407.031C771.112 405.274 772.076 403.7 773.514 402.653C774.952 401.606 776.746 401.173 778.503 401.448L779.963 401.687C780.834 401.824 781.668 402.131 782.42 402.59C783.171 403.05 783.825 403.653 784.343 404.365C784.862 405.077 785.235 405.884 785.441 406.74C785.648 407.597 785.683 408.485 785.546 409.355L774.887 476.873C774.608 478.631 773.642 480.205 772.203 481.252C770.763 482.299 768.968 482.732 767.209 482.456Z" stroke="white" stroke-width="3" stroke-linecap="round" stroke-linejoin="round"/>
<path d="M742.863 627.921L741.403 627.693C739.646 627.412 738.073 626.446 737.028 625.006C735.983 623.566 735.553 621.771 735.831 620.014L746.489 552.499C746.626 551.629 746.933 550.795 747.393 550.044C747.853 549.294 748.456 548.641 749.168 548.123C749.881 547.606 750.688 547.234 751.544 547.029C752.4 546.823 753.288 546.789 754.158 546.927L755.618 547.155C757.374 547.432 758.949 548.396 759.996 549.834C761.043 551.272 761.476 553.067 761.201 554.824L750.532 622.339C750.395 623.209 750.089 624.044 749.63 624.796C749.17 625.548 748.567 626.202 747.855 626.72C747.143 627.239 746.335 627.612 745.478 627.818C744.622 628.024 743.733 628.059 742.863 627.921Z" stroke="white" stroke-width="3" stroke-linecap="round" stroke-linejoin="round"/>
<path d="M603.227 549.438C609.495 554.951 616.747 560.464 619.498 559.272C623.551 557.524 613.588 534.041 608.79 523.323C607.359 520.123 606.39 518.058 606.39 518.058L604.264 515.127" stroke="white" stroke-width="3" stroke-linecap="round" stroke-linejoin="round"/>
<path d="M586.638 492.299L553.52 445.175C553.52 445.175 543.914 433.155 537.735 437.208C526.59 444.519 536.961 457.174 536.961 457.174L564.685 498.12" stroke="white" stroke-width="3" stroke-linecap="round" stroke-linejoin="round"/>
<path d="M588.934 492.25C596.453 491.614 602.205 496.68 607.47 501.55C612.97 506.636 623.055 517.941 615.158 525.272C612.774 527.487 610.519 525.808 608.801 523.325" stroke="white" stroke-width="3" stroke-linecap="round" stroke-linejoin="round"/>
<path d="M529.59 516.477C540.841 509.582 552.706 503.743 565.033 499.034C572.06 496.269 579.294 494.062 586.668 492.434C587.075 492.345 587.468 492.265 587.868 492.186" stroke="white" stroke-width="3" stroke-linecap="round" stroke-linejoin="round"/>
<path d="M563.852 512.276C563.852 512.276 592.897 497.862 599.433 506.236C601.378 508.989 602.858 512.043 603.814 515.275C607.314 525.914 608.314 540.258 603.884 542.553" stroke="white" stroke-width="3" stroke-linecap="round" stroke-linejoin="round"/>
<path d="M559.717 528.269C559.717 528.269 586.995 515.733 593.531 524.107C596.551 527.962 600.345 535.541 602.064 542.564C602.637 544.808 602.939 547.112 602.964 549.428C602.904 554.504 600.764 558.199 594.878 558.09C588.178 557.971 584.12 537.657 584.12 537.657L548.045 550.58H548.035" stroke="white" stroke-width="3" stroke-linecap="round" stroke-linejoin="round"/>
<path d="M144.241 347.699C148.129 354.047 150.462 361.223 151.051 368.643C151.64 376.063 150.468 383.518 147.631 390.399C144.774 397.154 140.081 403.392 133.531 406.699C126.981 410.006 118.44 409.849 112.805 405.153C107.17 400.457 105.76 390.984 110.733 385.593C119.074 376.552 135.919 387.327 135.433 399.618C134.947 411.909 123.97 421.199 112.801 426.35C101.632 431.501 89.1646 434.35 79.5126 441.972C69.8606 449.594 64.2366 464.621 71.8796 474.259C79.5226 483.897 100.056 475.059 94.8416 463.921" stroke="white" stroke-width="3" stroke-linecap="round" stroke-linejoin="round"/>
<path d="M462.707 198.5L464.807 178.516" stroke="white" stroke-width="3" stroke-linecap="round" stroke-linejoin="round"/>
<path d="M483.66 213.139L524.7 173.189" stroke="white" stroke-width="3" stroke-linecap="round" stroke-linejoin="round"/>
<path d="M497.414 237.415C504.58 238.138 511.812 237.053 518.45 234.26" stroke="white" stroke-width="3" stroke-linecap="round" stroke-linejoin="round"/>
<path d="M384.059 426.735L387.853 410.387" stroke="white" stroke-width="3" stroke-linecap="round" stroke-linejoin="round"/>
<path d="M361.199 421.14L365.88 404.781" stroke="white" stroke-width="3" stroke-linecap="round" stroke-linejoin="round"/>
<path d="M336.844 414.115L340.584 398.221" stroke="white" stroke-width="3" stroke-linecap="round" stroke-linejoin="round"/>
<path d="M314.662 408.561L318.293 392.176" stroke="white" stroke-width="3" stroke-linecap="round" stroke-linejoin="round"/>
<path d="M295.318 404.78L298.123 390.289" stroke="white" stroke-width="3" stroke-linecap="round" stroke-linejoin="round"/>
<path d="M411.83 481.43C411.612 477.56 410.179 473.858 407.736 470.85" stroke="white" stroke-width="3" stroke-linecap="round" stroke-linejoin="round"/>
<path d="M349.338 460.221L357.783 453.953" stroke="white" stroke-width="3" stroke-linecap="round" stroke-linejoin="round"/>
<path d="M368.399 506.672C365.915 509.653 362.802 512.047 359.283 513.684" stroke="white" stroke-width="3" stroke-linecap="round" stroke-linejoin="round"/>
<path d="M324.922 545.236L317.91 536.121" stroke="white" stroke-width="3" stroke-linecap="round" stroke-linejoin="round"/>
<path d="M287.061 495.452L295.475 489.842" stroke="white" stroke-width="3" stroke-linecap="round" stroke-linejoin="round"/>
<path d="M288.461 450.576L280.047 437.955" stroke="white" stroke-width="3" stroke-linecap="round" stroke-linejoin="round"/>
<path d="M223.939 468.799L231.859 459.867" stroke="white" stroke-width="3" stroke-linecap="round" stroke-linejoin="round"/>
<path d="M179.186 474.317L170.842 465.137" stroke="white" stroke-width="3" stroke-linecap="round" stroke-linejoin="round"/>
<path d="M162.246 545.237L169.959 535.42" stroke="white" stroke-width="3" stroke-linecap="round" stroke-linejoin="round"/>
<path d="M155.937 594.321L144.916 587.266" stroke="white" stroke-width="3" stroke-linecap="round" stroke-linejoin="round"/>
<path d="M234.393 573.906L246.025 562.406" stroke="white" stroke-width="3" stroke-linecap="round" stroke-linejoin="round"/>
<path d="M215.556 630.048C211.77 627.864 208.595 624.761 206.324 621.025" stroke="white" stroke-width="3" stroke-linecap="round" stroke-linejoin="round"/>
<path d="M281.439 595.07C285.596 595.973 289.313 598.284 291.961 601.612" stroke="white" stroke-width="3" stroke-linecap="round" stroke-linejoin="round"/>
<path d="M346.816 597.899L353.761 583.842" stroke="white" stroke-width="3" stroke-linecap="round" stroke-linejoin="round"/>
<path d="M334.017 645.528C330.146 641.965 325.25 639.715 320.025 639.098" stroke="white" stroke-width="3" stroke-linecap="round" stroke-linejoin="round"/>
<path d="M266.725 671.451L275.139 659.531" stroke="white" stroke-width="3" stroke-linecap="round" stroke-linejoin="round"/>
<path d="M366.826 667.124L378.241 651.137" stroke="white" stroke-width="3" stroke-linecap="round" stroke-linejoin="round"/>
<path d="M411.683 619.908L399.301 613.164" stroke="white" stroke-width="3" stroke-linecap="round" stroke-linejoin="round"/>
<path d="M438.041 578.343L446.965 564.893" stroke="white" stroke-width="3" stroke-linecap="round" stroke-linejoin="round"/>
<path d="M485.5 600.631C483.431 597.693 480.486 595.485 477.086 594.32" stroke="white" stroke-width="3" stroke-linecap="round" stroke-linejoin="round"/>
<path d="M448.465 646.287L458.25 630.141" stroke="white" stroke-width="3" stroke-linecap="round" stroke-linejoin="round"/>
<path d="M193.756 380.959L186.289 371.6" stroke="white" stroke-width="3" stroke-linecap="round" stroke-linejoin="round"/>
<path d="M183.801 382.09C188.28 378.668 192.341 374.731 195.901 370.361" stroke="white" stroke-width="3" stroke-linecap="round" stroke-linejoin="round"/>
<path d="M406.962 206.099L402.287 198.152" stroke="white" stroke-width="3" stroke-linecap="round" stroke-linejoin="round"/>
<path d="M399.451 205.587L408.282 198.512" stroke="white" stroke-width="3" stroke-linecap="round" stroke-linejoin="round"/>
<path d="M320.949 231.338L313.938 222.924" stroke="white" stroke-width="3" stroke-linecap="round" stroke-linejoin="round"/>
<path d="M313.328 231.623C317.038 228.751 320.238 225.276 322.797 221.344" stroke="white" stroke-width="3" stroke-linecap="round" stroke-linejoin="round"/>
<path d="M623.165 557.8C630.476 508.732 641.481 460.286 656.088 412.875L509.024 414.013L484.9 510.5" stroke="url(#paint1_linear_278_8454)" stroke-width="3" stroke-linecap="round" stroke-linejoin="round"/>
<path d="M490.01 414.936L538.977 372.707L576.237 402.907L611.021 376.307C613.246 374.607 615.774 372.813 618.56 373.107C620.833 373.347 622.704 374.932 624.418 376.444L682.339 427.58" stroke="url(#paint2_linear_278_8454)" stroke-width="3" stroke-linecap="round" stroke-linejoin="round"/>
<path d="M600.49 580.973C635.216 581.765 669.863 584.616 704.251 589.511" stroke="url(#paint3_linear_278_8454)" stroke-width="3" stroke-linecap="round" stroke-linejoin="round"/>
<path d="M698.294 481.434L693.477 469.477" stroke="url(#paint4_linear_278_8454)" stroke-width="3" stroke-linecap="round" stroke-linejoin="round"/>
<path d="M689.176 481.05L704.588 472.609" stroke="url(#paint5_linear_278_8454)" stroke-width="3" stroke-linecap="round" stroke-linejoin="round"/>
<path d="M709.084 384.887L700.504 367.438" stroke="url(#paint6_linear_278_8454)" stroke-width="3" stroke-linecap="round" stroke-linejoin="round"/>
<path d="M696.27 381.942C702.221 377.188 708.601 372.996 715.328 369.422L714.769 370.256" stroke="url(#paint7_linear_278_8454)" stroke-width="3" stroke-linecap="round" stroke-linejoin="round"/>
<path d="M78.7488 426.084L71.0488 416.955" stroke="white" stroke-width="3" stroke-linecap="round" stroke-linejoin="round"/>
<path d="M69.7715 426.123L78.9005 417.723" stroke="white" stroke-width="3" stroke-linecap="round" stroke-linejoin="round"/>
<path d="M124.801 639.486C112.392 627.087 104.015 611.232 100.766 593.994" stroke="white" stroke-width="3" stroke-linecap="round" stroke-linejoin="round"/>
<g opacity="0.1">
<path d="M433.076 261.916C415.785 256.178 398.058 251.852 380.069 248.978C371.609 247.64 363.186 247.904 355.788 252.749C349.074 257.149 345.38 264.03 342.988 271.469C337.321 289.091 333.788 307.669 329.688 325.709C327.646 334.694 325.633 343.688 323.764 352.709C322.83 357.222 321.911 361.738 321.005 366.258C319.969 371.434 318.176 377.038 318.505 382.328C319.005 390.455 330.923 395.328 335.105 386.828C338.826 379.256 339.611 369.887 341.405 361.664C343.228 353.306 345.049 344.946 346.922 336.598C350.741 319.579 354.771 302.609 359.012 285.689C360.432 280.003 361.183 272.209 364.934 267.441C368.562 262.828 376.399 264.541 381.35 265.421C397.993 268.379 414.671 271.91 431.55 273.244C438.313 273.778 438.969 263.88 433.082 261.918L433.076 261.916Z" fill="white"/>
</g>
<g opacity="0.1">
<path d="M288.563 384.637C283.189 393.079 281.372 403.6 278.728 413.161L287.599 406.407C255.643 406.786 222.815 406.961 192.733 419.262C166.026 430.183 144.063 449.386 128.65 473.71C112.188 499.69 102.7 532.27 106.475 563.071C108.319 578.119 112.915 593.046 120.815 606.071C128.183 618.219 138.041 628.876 148.622 638.281C161.664 649.759 176.481 659.046 192.495 665.781C200.52 669.221 208.618 672.56 216.835 675.515C225.216 678.528 233.665 681.978 242.688 681.522C247.624 681.272 248.933 675.349 245.102 672.612C239.338 668.494 232.841 666.712 226.224 664.372C219.085 661.958 212.086 659.145 205.262 655.945C192.46 649.709 180.337 642.164 169.087 633.432C149.436 618.132 133.707 596.116 127.7 571.742C115.228 521.142 147.318 463.854 192.649 441.107C221.543 426.607 255.929 425.651 287.599 424.8C289.605 424.767 291.548 424.094 293.144 422.878C294.74 421.663 295.906 419.97 296.471 418.045C298.971 408.426 302.699 398.363 302.277 388.345C302.231 386.753 301.673 385.217 300.686 383.966C299.699 382.715 298.336 381.815 296.799 381.399C295.261 380.982 293.63 381.072 292.147 381.654C290.664 382.236 289.407 383.28 288.563 384.631V384.637Z" fill="white"/>
</g>
<g opacity="0.1">
<path d="M571.022 492.159C567.272 484.881 561.122 478.532 556.645 471.627C554.366 468.109 552.196 464.524 550.133 460.871C548.265 457.563 546.833 454.438 543.657 452.231C541.378 450.646 538.307 452.772 538.297 455.307C538.279 459.69 540.897 463.407 543.069 467.081C545.202 470.691 547.442 474.235 549.789 477.712C554.383 484.512 559.268 492.328 565.828 497.354C569.089 499.854 572.581 495.184 571.022 492.159Z" fill="white"/>
</g>
<g opacity="0.1">
<path d="M603.136 548.1C603.452 549.423 604.141 550.627 605.12 551.57C605.42 551.848 605.74 552.109 606.055 552.37C605.238 551.7 608.178 554.006 607.24 553.27C608.64 554.384 609.967 555.587 611.214 556.87C611.852 557.491 612.674 557.887 613.556 558.001C614.439 558.115 615.334 557.939 616.109 557.501C617.517 556.677 618.638 554.564 617.965 552.94C616.207 548.703 612.771 542.191 607.339 542.583C606.672 542.597 606.017 542.761 605.423 543.063C604.828 543.365 604.31 543.798 603.906 544.328C603.502 544.859 603.224 545.474 603.091 546.127C602.958 546.78 602.974 547.455 603.139 548.101L603.136 548.1Z" fill="white"/>
</g>
</g>
<defs>
<linearGradient id="paint0_linear_278_8454" x1="330.454" y1="383.32" x2="330.454" y2="691.695" gradientUnits="userSpaceOnUse">
<stop stop-color="#FD6F8E"/>
<stop offset="1" stop-color="#FF0769"/>
</linearGradient>
<linearGradient id="paint1_linear_278_8454" x1="570.494" y1="412.875" x2="570.494" y2="557.8" gradientUnits="userSpaceOnUse">
<stop stop-color="#FD6F8E"/>
<stop offset="1" stop-color="#FF0769"/>
</linearGradient>
<linearGradient id="paint2_linear_278_8454" x1="586.174" y1="372.707" x2="586.174" y2="427.58" gradientUnits="userSpaceOnUse">
<stop stop-color="#FD6F8E"/>
<stop offset="1" stop-color="#FF0769"/>
</linearGradient>
<linearGradient id="paint3_linear_278_8454" x1="652.371" y1="580.973" x2="652.371" y2="589.511" gradientUnits="userSpaceOnUse">
<stop stop-color="#FD6F8E"/>
<stop offset="1" stop-color="#FF0769"/>
</linearGradient>
<linearGradient id="paint4_linear_278_8454" x1="695.885" y1="469.477" x2="695.885" y2="481.434" gradientUnits="userSpaceOnUse">
<stop stop-color="#FD6F8E"/>
<stop offset="1" stop-color="#FF0769"/>
</linearGradient>
<linearGradient id="paint5_linear_278_8454" x1="696.882" y1="472.609" x2="696.882" y2="481.05" gradientUnits="userSpaceOnUse">
<stop stop-color="#FD6F8E"/>
<stop offset="1" stop-color="#FF0769"/>
</linearGradient>
<linearGradient id="paint6_linear_278_8454" x1="704.794" y1="367.438" x2="704.794" y2="384.887" gradientUnits="userSpaceOnUse">
<stop stop-color="#FD6F8E"/>
<stop offset="1" stop-color="#FF0769"/>
</linearGradient>
<linearGradient id="paint7_linear_278_8454" x1="705.799" y1="369.422" x2="705.799" y2="381.942" gradientUnits="userSpaceOnUse">
<stop stop-color="#FD6F8E"/>
<stop offset="1" stop-color="#FF0769"/>
</linearGradient>
</defs>
</svg>
