<svg width="960" height="960" viewBox="0 0 960 960" fill="none" xmlns="http://www.w3.org/2000/svg">
<g clip-path="url(#clip0_278_8810)">
<mask id="mask0_278_8810" style="mask-type:luminance" maskUnits="userSpaceOnUse" x="0" y="0" width="960" height="960">
<path d="M960 0H0V960H960V0Z" fill="white"/>
</mask>
<g mask="url(#mask0_278_8810)">
<path fill-rule="evenodd" clip-rule="evenodd" d="M480.54 722.403L480.666 712.459L481.267 712.473C497.258 711.509 550.245 707.515 592.883 704.135L592.771 702.808C589.852 693.549 594.405 683.311 601.332 676.524C607.213 670.762 614.595 666.891 621.921 663.051C623.223 662.368 624.524 661.686 625.814 660.994C636.707 655.137 647.125 648.436 656.972 640.953C666.642 633.615 675.797 625.622 684.372 617.03C714.398 586.989 737.932 549.91 755.138 510.907C782.287 449.359 795.234 382.631 807.175 316.431C809.62 302.884 811.001 286.419 800.22 277.872C794.116 273.025 785.751 272.341 777.958 272.299C776.282 272.285 774.606 272.299 772.93 272.327C754.804 272.64 736.79 275.239 719.315 280.064C714.845 281.2 710.505 282.801 706.369 284.841C702.942 286.543 699.907 288.94 697.458 291.879C692.026 298.597 690.922 307.731 690.14 316.348C689.539 322.86 688.992 329.383 688.444 335.908C686.255 361.984 684.064 388.083 678.465 413.62C676.049 424.812 672.838 435.817 668.856 446.552C662.711 462.978 654.527 478.548 643.718 492.178C641.376 495.153 638.899 498.03 636.288 500.809C603.426 535.78 553.609 550.263 505.665 552.022L505.218 551.799H505.204C504.554 553.308 503.576 554.653 502.341 555.737C498.919 558.684 493.989 558.824 489.478 558.81C459.827 558.755 430.168 558.695 400.501 558.628C395.18 558.628 389.734 558.6 384.706 556.855C380.596 555.558 377.101 552.807 374.874 549.117L374.553 549.317C312.893 557.679 255.731 588.655 214.461 635.217C193.443 658.918 176.39 687.59 173.22 719.111C172.661 724.658 172.605 730.243 173.052 735.8C173.814 745.765 176.167 755.544 180.021 764.765C186.306 779.733 196.655 792.707 210.746 800.765C235.312 814.801 265.618 812.05 293.732 808.88C347.017 802.861 400.306 796.841 453.6 790.822C460.583 790.04 468.11 789.006 473.194 784.16C476.532 780.962 478.235 776.73 479.101 772.149C479.784 768.122 480.107 764.042 480.065 759.957C480.228 747.434 480.386 734.916 480.54 722.403ZM791.784 318.167C791.853 317.012 790.973 316.019 789.819 315.95C788.664 315.88 787.671 316.76 787.602 317.915C782.338 405.458 753.784 490.005 704.892 562.812C704.247 563.773 704.502 565.074 705.463 565.719C706.423 566.364 707.725 566.109 708.37 565.148C757.679 491.721 786.476 406.454 791.784 318.167Z" fill="url(#paint0_linear_278_8810)"/>
<path fill-rule="evenodd" clip-rule="evenodd" d="M505.665 552.019C553.609 550.259 603.426 535.776 636.288 500.806C638.894 498.026 641.367 495.149 643.706 492.175L643.469 491.993C640.519 455.32 636.977 418.674 633.44 382.068C629.826 344.678 626.217 307.329 623.246 270.033C620.747 264.237 615.16 258.469 609.574 258.651C571.698 259.975 543.934 261.444 512.511 265.075L511.411 265.243C511.788 267.407 512.012 269.614 512.18 271.793C512.318 273.672 512.412 275.559 512.506 277.447C512.79 283.151 513.074 288.859 514.596 294.348C515.167 291.989 516.13 289.724 517.41 287.657C516.561 287.444 515.929 286.723 515.836 285.844L514.036 268.751C513.915 267.601 514.749 266.57 515.9 266.448C517.051 266.327 518.082 267.162 518.203 268.312L519.43 279.966C522.489 276.753 526.5 274.516 530.748 273.392C536.827 271.784 543.611 272.398 549.082 275.92C554.553 279.443 557.919 285.365 558.97 291.565C559.861 296.817 559.118 302.428 556.436 307.139C559.919 308.475 563.034 310.656 565.489 313.506C568.585 317.102 570.473 321.579 570.887 326.306C571.301 331.032 570.22 335.77 567.796 339.849C565.796 343.214 562.966 345.991 559.593 347.925C564.856 356.164 568.522 366.028 567.294 376.056C566.081 385.96 559.015 395.789 549.111 398.289C550.009 400.589 550.466 403.046 550.451 405.532C550.43 408.991 549.493 412.383 547.736 415.363C545.979 418.343 543.464 420.805 540.447 422.498C538.116 423.807 535.55 424.62 532.908 424.898C533.388 429.737 533.62 435.086 531.665 439.997C530.488 442.953 528.311 445.617 525.641 447.351C523.83 448.527 521.722 449.315 519.508 449.413C519.821 451.656 519.73 453.945 519.228 456.171C518.499 459.405 516.93 462.39 514.679 464.824C512.429 467.259 509.576 469.057 506.409 470.037C504.005 470.781 501.485 471.034 498.997 470.791C498.145 474.625 494.935 477.603 491.863 479.213C489.983 480.199 488.01 480.871 486.171 481.469C485.948 481.542 485.727 481.613 485.508 481.684L485.502 481.686C483.873 482.213 482.366 482.7 480.923 483.34H480.922C475.501 485.743 472.406 489.956 470.893 495.376C469.356 500.881 469.47 507.606 470.599 514.752C470.779 515.895 469.999 516.968 468.856 517.148C467.713 517.329 466.641 516.548 466.46 515.406C465.289 507.987 465.09 500.581 466.857 494.249C468.649 487.832 472.476 482.501 479.224 479.51C480.883 478.774 482.614 478.215 484.221 477.696C484.441 477.625 484.659 477.555 484.874 477.485C486.708 476.888 488.381 476.308 489.918 475.502C493.027 473.873 495.182 471.13 495.015 468.498C494.973 467.839 495.245 467.198 495.748 466.77C496.251 466.342 496.927 466.176 497.571 466.323C500.086 466.897 502.706 466.797 505.17 466.035C507.633 465.272 509.852 463.873 511.603 461.98C513.353 460.086 514.573 457.765 515.14 455.249C515.708 452.733 515.601 450.113 514.833 447.651C514.604 446.919 514.794 446.12 515.328 445.569C515.862 445.018 516.655 444.803 517.394 445.009C519.332 445.548 521.429 445.091 523.359 443.837C525.298 442.578 526.914 440.603 527.772 438.447C529.583 433.897 529.117 428.697 528.509 423.136C528.444 422.539 528.638 421.943 529.042 421.498C529.124 421.409 529.212 421.328 529.306 421.255C528.171 421.447 527.018 421.54 525.859 421.531C527.616 423.838 528.633 426.624 528.775 429.521C528.918 432.417 528.178 435.289 526.655 437.758C525.132 440.226 522.897 442.174 520.244 443.347C517.591 444.519 514.645 444.859 511.795 444.323C516.293 452.801 508.36 464.801 498.807 464.001H496.768C494.182 468.618 490.297 472.373 485.595 474.801C483.379 475.87 480.964 476.589 478.56 477.303C474.341 478.558 470.158 479.801 467.16 482.915C462.859 487.37 462.453 494.256 463.11 500.415C463.249 501.72 463.424 503.03 463.599 504.343C464.25 509.224 464.905 514.13 463.739 518.864L463.753 519.296C472.677 518.938 481.615 519.162 490.511 519.967C495.651 520.474 501.223 521.405 504.645 525.274C508.779 529.966 508.164 537.048 507.312 543.248C507.025 546.182 506.32 549.06 505.218 551.795L505.665 552.019ZM531.296 420.81C533.784 420.739 536.22 420.066 538.396 418.845C540.768 417.513 542.745 415.578 544.127 413.235C545.508 410.892 546.244 408.225 546.261 405.506C546.27 403.992 546.057 402.492 545.632 401.053C545.651 401.491 545.656 401.93 545.645 402.369C545.564 405.779 544.596 409.11 542.835 412.032C541.075 414.954 538.583 417.367 535.606 419.032C534.24 419.797 532.792 420.392 531.296 420.81ZM544.502 395.286C544.844 394.916 545.313 394.677 545.827 394.625C554.764 393.714 561.978 384.989 563.135 375.546C564.29 366.121 560.476 356.496 554.818 348.309C554.462 347.794 554.355 347.146 554.527 346.544C554.698 345.942 555.13 345.448 555.704 345.197C559.249 343.652 562.219 341.033 564.194 337.708C566.169 334.384 567.051 330.523 566.713 326.671C566.376 322.819 564.837 319.171 562.313 316.241C560.485 314.117 558.206 312.448 555.659 311.346C560.574 314.508 564.153 319.841 564.61 325.701C565.336 335.016 558.087 344.262 548.87 345.77C552.827 348.548 555.958 352.346 557.93 356.76C559.902 361.174 560.642 366.041 560.07 370.842C559.499 375.643 557.638 380.199 554.685 384.027C551.731 387.856 547.796 390.812 543.298 392.584C543.768 393.456 544.17 394.359 544.502 395.286ZM551.267 309.241C551.228 309.162 551.193 309.08 551.164 308.995C550.929 308.323 551.052 307.577 551.49 307.016C554.653 302.963 555.728 297.505 554.839 292.265C553.95 287.026 551.136 282.227 546.813 279.443C542.49 276.66 536.957 276.084 531.82 277.442C531.656 277.486 531.493 277.531 531.331 277.578C539.213 275.981 548.086 279.756 551.789 286.89C555.56 294.155 553.037 304.263 545.937 308.355C547.758 308.364 549.553 308.676 551.267 309.241Z" fill="white"/>
<path d="M625.815 661C636.707 655.142 647.125 648.441 656.973 640.959L657.073 641.084C657.073 644.115 657.017 645.511 657.073 648.305C657.366 663.667 659.461 678.22 658.473 691.599C658.012 697.828 648.696 698.582 643.11 699.978C632.873 700.914 614.173 702.45 592.889 704.14L592.777 702.814C589.858 693.554 594.411 683.314 601.338 676.53C608.265 669.746 617.268 665.575 625.815 661Z" fill="white"/>
<path d="M496.768 464.005C497.659 462.486 498.439 460.903 499.101 459.271C501.74 452.777 502.662 445.71 503.276 438.727C505.734 411.396 504.031 383.869 501.824 356.51L500.832 356.594L439.857 351.482C428.978 350.56 417.204 349.862 407.987 355.728C401.087 360.141 396.687 367.752 394.58 375.671C392.473 383.59 392.415 391.899 392.513 400.097C392.918 434.23 395.934 468.279 399.398 502.258L399.314 502.272C395.302 503.298 391.071 503.061 387.198 501.592C383.326 500.124 380.001 497.497 377.677 494.068C375.354 490.64 374.145 486.579 374.215 482.438C374.286 478.297 375.633 474.279 378.072 470.932C374.529 471.926 370.743 471.576 367.443 469.948C364.142 468.321 361.56 465.531 360.191 462.115C358.823 458.699 358.765 454.898 360.029 451.442C361.293 447.986 363.79 445.119 367.039 443.392C362.519 443.257 358.166 441.648 354.644 438.812C351.122 435.975 348.623 432.066 347.527 427.678C346.432 423.291 346.799 418.665 348.574 414.506C350.349 410.346 353.434 406.881 357.36 404.636C353.464 402.875 350.164 400.019 347.862 396.416C345.561 392.812 344.358 388.617 344.399 384.342C344.441 380.066 345.726 375.895 348.096 372.337C350.467 368.779 353.822 365.987 357.752 364.303C355.14 358.003 353.185 351.231 353.799 344.443C354.428 337.656 358.045 330.843 364.162 327.866C369.273 325.38 376.062 326.366 379.901 330.324C380.451 331.29 381.092 332.202 381.815 333.047C381.322 332.045 380.677 331.127 379.901 330.324C374.776 321.624 376.424 309.179 384.133 302.49C392.708 295.074 407.219 296.037 414.718 304.543C413.829 301.098 414.106 297.455 415.505 294.183C416.904 290.912 419.347 288.196 422.452 286.459C425.558 284.722 429.151 284.062 432.671 284.582C436.191 285.102 439.44 286.773 441.91 289.334C443.152 285.846 445.324 282.764 448.192 280.423C451.061 278.081 454.515 276.57 458.181 276.052C461.847 275.534 465.585 276.029 468.99 277.484C472.394 278.939 475.336 281.298 477.495 284.306C475.434 279.694 474.314 274.717 474.201 269.666C474.088 264.616 474.985 259.593 476.839 254.894C478.557 250.606 481.28 246.472 485.414 244.405C492.187 241.012 500.86 244.433 505.525 250.411C508.835 254.67 510.525 259.866 511.419 265.242C511.796 267.407 512.019 269.614 512.187 271.792C512.745 279.348 512.578 287.043 514.603 294.347C516.53 286.387 522.926 279.488 530.903 277.672C538.88 275.856 548.025 279.613 551.796 286.89C555.567 294.167 553.039 304.263 545.944 308.355C555.274 308.397 563.89 316.4 564.617 325.701C565.344 335.002 558.095 344.262 548.877 345.77C552.834 348.548 555.965 352.346 557.937 356.76C559.91 361.175 560.649 366.041 560.078 370.842C559.506 375.643 557.645 380.199 554.692 384.028C551.739 387.856 547.804 390.813 543.305 392.584C544.926 395.587 545.736 398.96 545.655 402.372C545.574 405.783 544.605 409.114 542.844 412.037C541.083 414.96 538.591 417.373 535.612 419.039C532.634 420.704 529.273 421.565 525.861 421.535C527.618 423.842 528.635 426.628 528.778 429.524C528.92 432.421 528.181 435.293 526.658 437.761C525.135 440.229 522.9 442.178 520.247 443.35C517.594 444.522 514.648 444.863 511.798 444.327C516.298 452.805 508.362 464.801 498.809 464.005H496.768Z" fill="white"/>
<path d="M423.839 456.408C421.306 457.172 419.088 458.737 417.518 460.866C415.947 462.996 415.108 465.577 415.125 468.223L414.678 468.67C412.61 466.602 411.42 463.815 411.354 460.891C411.44 458.071 412.536 455.375 414.443 453.296C416.351 451.217 418.941 449.893 421.743 449.565C422.055 451.938 422.834 454.226 424.035 456.296L423.839 456.408Z" fill="white"/>
<path d="M403.309 524.157C423.169 522.704 443.559 519.939 463.754 519.296C472.678 518.938 481.616 519.163 490.512 519.967C495.652 520.467 501.224 521.405 504.646 525.274C508.78 529.966 508.165 537.047 507.313 543.248C507.026 546.182 506.321 549.06 505.219 551.795H505.205C504.554 553.304 503.576 554.649 502.342 555.733C498.92 558.68 493.99 558.82 489.479 558.806C459.812 558.75 430.153 558.689 400.502 558.624C395.181 558.624 389.735 558.596 384.707 556.851C380.597 555.554 377.102 552.803 374.875 549.114C374.351 548.193 373.952 547.207 373.688 546.181C371.942 539.338 376.62 532.159 382.788 528.709C388.488 525.525 395.162 524.785 401.688 524.282L403.309 524.157Z" fill="url(#paint1_linear_278_8810)"/>
<path d="M198.999 273.482C199.089 274.482 198.982 275.49 198.683 276.448C198.383 277.406 197.898 278.296 197.255 279.067C196.612 279.838 195.823 280.475 194.934 280.94C194.044 281.406 193.072 281.692 192.072 281.782L142.672 286.182C140.655 286.361 138.65 285.732 137.097 284.433C135.545 283.134 134.571 281.271 134.391 279.255L132.391 256.91C132.213 254.891 132.844 252.885 134.146 251.332C135.448 249.778 137.313 248.806 139.332 248.628L188.715 244.215C190.735 244.038 192.743 244.669 194.299 245.97C195.855 247.271 196.831 249.136 197.015 251.156L198.999 273.482ZM159.964 275.675L176.681 260.775L156.11 254.533L159.964 275.675Z" fill="url(#paint2_linear_278_8810)"/>
<path d="M485.052 369.889C477.84 368.545 470.548 367.672 463.223 367.277C458.531 367.026 452.958 367.417 450.472 371.397C448.964 373.827 449.104 376.886 449.327 379.735C450.799 398.617 453.859 417.342 458.475 435.71C457.137 436.906 455.448 437.637 453.661 437.793C451.873 437.949 450.083 437.522 448.559 436.576" stroke="white" stroke-width="4.19" stroke-linecap="round" stroke-linejoin="round"/>
<path d="M433.585 386.5C430.01 381.933 421.309 383.748 419.857 389.349" stroke="white" stroke-width="4.19" stroke-linecap="round" stroke-linejoin="round"/>
<path d="M479.228 388.254C476.575 384.274 469.382 385.07 467.664 389.539" stroke="white" stroke-width="4.19" stroke-linecap="round" stroke-linejoin="round"/>
<path d="M447.566 466.491C438.656 469.091 428.56 464.215 424.035 456.296C422.834 454.226 422.055 451.938 421.743 449.565C418.941 449.893 416.351 451.217 414.443 453.296C412.536 455.375 411.44 458.071 411.354 460.891C411.419 463.815 412.61 466.602 414.678 468.67C416.552 470.665 419.09 471.906 421.814 472.161" stroke="white" stroke-width="4.19" stroke-linecap="round" stroke-linejoin="round"/>
<path d="M415.123 468.223C415.106 465.577 415.945 462.996 417.516 460.866C419.087 458.737 421.305 457.173 423.838 456.408" stroke="white" stroke-width="4.19" stroke-linecap="round" stroke-linejoin="round"/>
<path d="M505.666 552.019C553.61 550.259 603.427 535.776 636.289 500.806C638.9 498.026 641.377 495.149 643.719 492.175C654.528 478.544 662.712 462.975 668.857 446.548C672.839 435.813 676.05 424.808 678.466 413.616C685.466 381.69 687.139 348.884 690.141 316.344C690.923 307.727 692.027 298.593 697.459 291.876C699.908 288.936 702.943 286.539 706.37 284.837C710.507 282.797 714.846 281.196 719.316 280.06C736.791 275.235 754.805 272.636 772.931 272.323C774.607 272.295 776.283 272.281 777.959 272.295C785.752 272.337 794.117 273.022 800.221 277.868C811.002 286.415 809.621 302.881 807.176 316.428C795.235 382.628 782.288 449.355 755.139 510.903C737.933 549.91 714.399 586.989 684.373 617.03C675.798 625.622 666.643 633.616 656.973 640.954C647.125 648.438 636.707 655.14 625.814 661C617.267 665.58 608.259 669.742 601.332 676.53C594.405 683.318 589.852 693.554 592.771 702.814" stroke="white" stroke-width="4.19" stroke-linecap="round" stroke-linejoin="round"/>
<path d="M374.555 549.309C312.895 557.675 255.733 588.651 214.463 635.209C193.445 658.909 176.392 687.582 173.222 719.103C172.663 724.65 172.607 730.235 173.054 735.792C173.816 745.757 176.169 755.536 180.023 764.757C186.308 779.729 196.657 792.703 210.748 800.757C235.314 814.793 265.62 812.042 293.734 808.872C347.014 802.852 400.303 796.833 453.602 790.814C460.585 790.032 468.112 788.998 473.196 784.152C476.534 780.952 478.237 776.722 479.103 772.141C479.786 768.114 480.109 764.034 480.067 759.949C480.221 747.436 480.379 734.918 480.542 722.395C480.584 719.085 480.626 715.761 480.667 712.451C480.709 709.099 480.751 705.733 480.793 702.382C480.835 699.382 480.709 695.957 478.433 693.974C475.64 691.544 471.352 692.689 467.847 693.89C426.114 708.277 381.784 713.562 337.838 709.39C330.45 708.69 321.721 706.681 319.138 699.74C316.838 693.54 320.814 686.933 324.598 681.514C336.944 663.876 349.29 646.228 361.636 628.57" stroke="white" stroke-width="4.19" stroke-linecap="round" stroke-linejoin="round"/>
<path d="M479.299 772.191C509.479 769.538 538.399 766.691 568.513 763.351C581.292 761.926 594.168 760.418 606.333 756.251C609.333 755.218 612.813 753.262 612.673 750.092C612.52 746.643 608.33 745.134 604.922 744.562C603.093 744.24 601.249 743.947 599.406 743.668C577.208 740.272 554.702 739.34 532.299 740.888" stroke="white" stroke-width="4.19" stroke-linecap="round" stroke-linejoin="round"/>
<path d="M599.558 742.681C600.285 740.698 599.097 738.533 597.184 737.081C596.487 736.563 595.738 736.119 594.95 735.754C593.408 735.051 591.81 734.476 590.173 734.036C588.442 733.536 586.696 733.087 584.936 732.682C563.764 727.752 540.736 729.12 518.5 730.559" stroke="white" stroke-width="4.19" stroke-linecap="round" stroke-linejoin="round"/>
<path d="M585.02 732.305C573.973 713.9 498.264 722 480.764 722.4" stroke="white" stroke-width="4.19" stroke-linecap="round" stroke-linejoin="round"/>
<path d="M463.755 519.3C443.56 519.943 423.17 522.708 403.31 524.16L401.69 524.286C395.168 524.786 388.49 525.529 382.79 528.713C376.617 532.163 371.939 539.341 373.69 546.185C373.954 547.211 374.353 548.197 374.877 549.118C377.104 552.807 380.599 555.558 384.709 556.855C389.737 558.6 395.183 558.628 400.504 558.628C430.17 558.695 459.829 558.755 489.481 558.81C493.992 558.824 498.922 558.684 502.344 555.737C503.579 554.653 504.557 553.308 505.207 551.799H505.221C506.323 549.064 507.028 546.186 507.315 543.252C508.167 537.052 508.782 529.97 504.648 525.278C501.226 521.409 495.654 520.478 490.514 519.971C481.618 519.167 472.679 518.942 463.755 519.3Z" stroke="white" stroke-width="4.19" stroke-linecap="round" stroke-linejoin="round"/>
<path d="M463.741 518.863C465.221 512.858 463.769 506.573 463.112 500.414C462.455 494.255 462.861 487.37 467.162 482.914C471.869 478.026 479.494 477.747 485.598 474.8C490.299 472.372 494.184 468.617 496.77 464C497.661 462.481 498.441 460.898 499.103 459.266C501.742 452.772 502.664 445.705 503.278 438.722C505.736 411.391 504.033 383.864 501.826 356.505C501.826 356.435 501.812 356.379 501.812 356.305" stroke="white" stroke-width="4.19" stroke-linecap="round" stroke-linejoin="round"/>
<path d="M401.699 524.38C401.701 524.346 401.696 524.312 401.685 524.28C400.917 516.947 400.153 509.605 399.395 502.256C395.931 468.277 392.915 434.228 392.51 400.095C392.41 391.895 392.482 383.588 394.577 375.669C396.672 367.75 401.085 360.139 407.984 355.726C417.201 349.86 428.975 350.558 439.854 351.48L500.829 356.592" stroke="white" stroke-width="4.19" stroke-linecap="round" stroke-linejoin="round"/>
<path d="M379.897 330.324C374.772 321.624 376.42 309.179 384.129 302.49C392.704 295.074 407.215 296.037 414.714 304.543C413.825 301.098 414.102 297.455 415.501 294.183C416.9 290.912 419.343 288.196 422.449 286.459C425.554 284.722 429.147 284.062 432.667 284.582C436.187 285.102 439.436 286.773 441.906 289.334C443.148 285.846 445.321 282.764 448.189 280.423C451.057 278.081 454.511 276.57 458.177 276.052C461.844 275.534 465.581 276.029 468.986 277.484C472.391 278.939 475.332 281.298 477.491 284.306C475.43 279.694 474.31 274.717 474.197 269.666C474.085 264.616 474.982 259.593 476.835 254.894C478.553 250.606 481.276 246.472 485.41 244.405C492.183 241.012 500.856 244.433 505.521 250.411C508.831 254.67 510.521 259.866 511.414 265.242C511.792 267.407 512.014 269.614 512.183 271.792C512.741 279.348 512.574 287.043 514.599 294.347C516.526 286.387 522.922 279.488 530.899 277.672C538.876 275.856 548.021 279.613 551.792 286.89C555.563 294.167 553.035 304.263 545.94 308.355C555.269 308.397 563.886 316.4 564.613 325.701C565.34 335.002 558.091 344.262 548.873 345.77C552.831 348.548 555.962 352.346 557.934 356.76C559.906 361.175 560.646 366.041 560.074 370.842C559.503 375.643 557.641 380.199 554.688 384.028C551.735 387.856 547.8 390.813 543.301 392.584C544.922 395.587 545.732 398.96 545.651 402.372C545.57 405.783 544.602 409.114 542.841 412.037C541.079 414.96 538.587 417.373 535.609 419.039C532.631 420.704 529.27 421.565 525.857 421.535C527.614 423.842 528.631 426.627 528.773 429.523C528.916 432.42 528.177 435.291 526.654 437.759C525.132 440.227 522.897 442.176 520.245 443.348C517.593 444.521 514.647 444.862 511.797 444.327C516.297 452.805 508.362 464.801 498.809 464.005" stroke="white" stroke-width="4.19" stroke-linecap="round" stroke-linejoin="round"/>
<path d="M379.898 330.324C380.674 331.127 381.32 332.045 381.812 333.047C381.089 332.202 380.448 331.291 379.898 330.324Z" stroke="white" stroke-width="4.19" stroke-linecap="round" stroke-linejoin="round"/>
<path d="M399.314 502.272C395.301 503.298 391.07 503.061 387.198 501.592C383.325 500.124 380 497.497 377.677 494.068C375.353 490.64 374.144 486.579 374.215 482.438C374.285 478.297 375.632 474.279 378.072 470.932C374.528 471.926 370.743 471.576 367.442 469.948C364.142 468.321 361.559 465.531 360.191 462.115C358.822 458.699 358.765 454.898 360.028 451.442C361.292 447.986 363.789 445.119 367.038 443.392C362.518 443.256 358.166 441.648 354.644 438.811C351.122 435.975 348.623 432.065 347.528 427.678C346.432 423.29 346.8 418.665 348.575 414.506C350.35 410.346 353.435 406.881 357.361 404.636C353.464 402.875 350.164 400.019 347.863 396.416C345.561 392.813 344.358 388.617 344.399 384.342C344.441 380.066 345.725 375.895 348.096 372.337C350.467 368.779 353.822 365.988 357.752 364.303C355.14 358.003 353.185 351.231 353.799 344.443C354.428 337.656 358.045 330.843 364.162 327.866C369.273 325.38 376.062 326.366 379.902 330.324" stroke="white" stroke-width="4.19" stroke-linecap="round" stroke-linejoin="round"/>
<path d="M109.007 768.155C103.588 766.716 101.772 759.426 101.228 754.44C83.659 595.34 70.279 441.813 48.157 257.254C47.319 250.187 54.973 246.054 61.578 244.964C62.6818 244.785 63.7978 244.692 64.916 244.685C71.899 244.685 80.279 243.285 87.262 241.891C271.612 223.736 453.169 204.184 636.122 193.011C638.975 194.44 641.429 196.554 643.264 199.165C645.099 201.775 646.259 204.8 646.638 207.968" stroke="white" stroke-width="4.19" stroke-linecap="round" stroke-linejoin="round"/>
<path d="M140.988 767.68C131.128 768.155 121.198 768.406 111.003 768.406C110.333 768.412 109.666 768.327 109.02 768.155" stroke="white" stroke-width="4.19" stroke-linecap="round" stroke-linejoin="round"/>
<path d="M180.233 764.747C180.163 764.747 180.093 764.761 180.023 764.761C176.197 765.138 172.389 765.488 168.599 765.809C159.382 766.609 150.248 767.233 141.045 767.68" stroke="white" stroke-width="4.19" stroke-linecap="round" stroke-linejoin="round"/>
<path d="M624.782 733.534C615.858 734.12 606.85 734.707 597.842 735.265" stroke="white" stroke-width="4.19" stroke-linecap="round" stroke-linejoin="round"/>
<path d="M658.48 731.313C649.58 731.899 640.463 732.5 631.232 733.113" stroke="white" stroke-width="4.19" stroke-linecap="round" stroke-linejoin="round"/>
<path d="M669.123 730.573L668.243 730.698C665.45 730.866 662.628 731.048 659.793 731.229" stroke="white" stroke-width="4.19" stroke-linecap="round" stroke-linejoin="round"/>
<path d="M684.429 617.086C685.002 649.696 694.778 681.818 691.985 713.939C690.63 726.118 678.785 729.12 669.164 730.559" stroke="white" stroke-width="4.19" stroke-linecap="round" stroke-linejoin="round"/>
<path d="M646.637 207.968C652.88 287.979 662.656 366.188 668.676 446.478" stroke="white" stroke-width="4.19" stroke-linecap="round" stroke-linejoin="round"/>
<path d="M595.131 735.391C604.768 734.791 614.711 734.176 624.781 733.534L631.233 733.115C640.269 732.542 649.389 731.941 658.48 731.315L659.793 731.231C662.908 731.008 666.018 730.789 669.122 730.575C669.136 730.575 669.15 730.561 669.164 730.561C677.069 730.002 684.918 729.416 692.641 728.815" stroke="white" stroke-width="4.19" stroke-linecap="round" stroke-linejoin="round"/>
<path d="M692.641 728.813C698.968 726.513 700.364 733.492 703.157 739.078C767.401 751.647 828.111 762.82 893.75 779.578C893.75 779.592 892.493 779.746 890.105 780.025C841.825 785.835 305.674 848.64 285.577 846.614C262.677 844.324 176.768 800.597 122.301 775.444C122.259 775.43 122.218 775.402 122.176 775.388C122.176 775.388 120.776 769.802 124.969 769.802C130.264 768.795 135.612 768.087 140.988 767.679C141.002 767.679 141.03 767.665 141.044 767.679C150.359 766.813 160.987 766.213 168.598 765.808C173.498 765.542 177.145 765.375 178.388 765.291" stroke="white" stroke-width="4.19" stroke-linecap="round" stroke-linejoin="round"/>
<path d="M61.7866 244.531L61.5216 244.573C41.0746 247.296 40.1816 263.916 40.1816 263.916" stroke="white" stroke-width="4.19" stroke-linecap="round" stroke-linejoin="round"/>
<path d="M109.604 768.169C109.409 768.177 109.213 768.172 109.018 768.155C109.018 768.155 109.018 768.169 109.004 768.155C106.35 768.085 95.5272 767.094 94.2422 756.005" stroke="white" stroke-width="4.19" stroke-linecap="round" stroke-linejoin="round"/>
<path d="M40.1816 263.916L94.2436 756.005" stroke="white" stroke-width="4.19" stroke-linecap="round" stroke-linejoin="round"/>
<path d="M122 776.116L121.93 792.093C121.93 792.093 262.73 868.277 287.384 870.441C314.5 872.83 893.1 796.7 893.1 796.7L893.924 780.137" stroke="white" stroke-width="4.19" stroke-linecap="round" stroke-linejoin="round"/>
<path d="M512.521 265.075C543.944 261.444 571.708 259.975 609.584 258.651C615.17 258.469 620.757 264.237 623.256 270.033" stroke="white" stroke-width="4.19" stroke-linecap="round" stroke-linejoin="round"/>
<path d="M172.285 735.852C164.073 736.285 157.09 737.681 148.711 739.078C140.331 739.078 131.952 732.095 130.555 722.319C129.155 699.973 94.2438 366.188 88.6548 336.86C87.2548 324.29 87.2548 307.531 101.225 306.135C226.918 290.772 349.818 279.599 474.059 269.572" stroke="white" stroke-width="4.19" stroke-linecap="round" stroke-linejoin="round"/>
<path d="M657.069 641.079C657.069 644.11 657.013 645.506 657.069 648.3C657.362 663.662 659.458 678.214 658.47 691.594C658.009 697.823 648.692 698.577 643.106 699.973C632.869 700.909 614.17 702.445 592.886 704.135C550.248 707.515 497.261 711.509 481.27 712.473" stroke="white" stroke-width="4.19" stroke-linecap="round" stroke-linejoin="round"/>
<path d="M623.258 270.033C629.138 343.843 637.518 417.862 643.481 491.993" stroke="white" stroke-width="4.19" stroke-linecap="round" stroke-linejoin="round"/>
<path d="M706.399 284.851C706.385 284.851 706.385 284.837 706.371 284.837C697.859 281.595 689.916 277.022 682.838 271.29C680.238 269.19 677.559 266.402 677.908 263.09C678.257 259.89 681.414 257.671 684.556 256.973C690.408 255.702 696.385 258.202 701.622 261.079C706.859 263.956 712.111 267.321 718.06 267.964" stroke="white" stroke-width="4.19" stroke-linecap="round" stroke-linejoin="round"/>
<path d="M772.9 272.547C772.914 272.477 772.914 272.393 772.928 272.323C776.632 238.04 771.806 203.373 758.879 171.406C758.041 169.353 756.602 166.936 754.379 167.118C752.689 167.244 751.543 168.918 750.943 170.512C749.543 174.282 749.784 178.412 750.049 182.425C750.496 189.38 750.943 196.33 751.39 203.276C752.228 216.418 753.071 229.564 753.918 242.715" stroke="white" stroke-width="4.19" stroke-linecap="round" stroke-linejoin="round"/>
<path d="M752.122 211.418C751.922 208.708 751.689 205.985 751.396 203.276C750.306 193.192 748.396 183.165 744.596 173.836C743.437 171.015 741.566 167.9 738.535 167.593C735.197 167.258 732.628 170.526 731.482 173.654C729.667 178.626 729.639 183.919 730.253 189.212C730.644 192.578 731.287 195.93 731.901 199.226C734.746 214.497 736.723 229.916 737.823 245.411" stroke="white" stroke-width="4.19" stroke-linecap="round" stroke-linejoin="round"/>
<path d="M729.861 189.254C728.967 185.679 728.004 181.978 725.63 179.171C723.256 176.364 719.024 174.771 715.798 176.531C712.013 178.612 711.552 183.779 711.831 188.081C713.465 213.443 724.731 237.813 723.618 263.203C723.549 264.768 723.381 266.444 722.334 267.603C721.287 268.762 719.876 268.552 718.228 268.064" stroke="white" stroke-width="4.19" stroke-linecap="round" stroke-linejoin="round"/>
<path d="M192.076 281.778L142.676 286.178C140.659 286.357 138.654 285.728 137.101 284.429C135.549 283.13 134.575 281.267 134.395 279.251L132.395 256.906C132.217 254.887 132.848 252.881 134.15 251.327C135.452 249.774 137.317 248.802 139.336 248.624L188.719 244.211C190.739 244.034 192.747 244.665 194.303 245.966C195.859 247.267 196.835 249.132 197.019 251.152L199 273.482C199.181 275.5 198.554 277.508 197.256 279.064C195.957 280.619 194.094 281.596 192.076 281.778Z" stroke="white" stroke-width="4.19" stroke-linecap="round" stroke-linejoin="round"/>
<path d="M159.965 275.675L176.682 260.773L156.111 254.531L159.965 275.675Z" stroke="white" stroke-width="4.19" stroke-linecap="round" stroke-linejoin="round"/>
<path d="M214.184 259.237L331.498 248.064" stroke="white" stroke-width="4.19" stroke-linecap="round" stroke-linejoin="round"/>
<path d="M284.838 647.649L306.032 619.552" stroke="white" stroke-width="4.19" stroke-linecap="round" stroke-linejoin="round"/>
<path d="M281.387 625.468L304.553 639.269" stroke="white" stroke-width="4.19" stroke-linecap="round" stroke-linejoin="round"/>
<path d="M217.307 756.09L240.474 775.314" stroke="white" stroke-width="4.19" stroke-linecap="round" stroke-linejoin="round"/>
<path d="M217.307 779.257L238.009 753.625" stroke="white" stroke-width="4.19" stroke-linecap="round" stroke-linejoin="round"/>
<path d="M415.459 732.923L439.119 754.611" stroke="white" stroke-width="4.19" stroke-linecap="round" stroke-linejoin="round"/>
<path d="M413.979 758.555L436.654 734.402" stroke="white" stroke-width="4.19" stroke-linecap="round" stroke-linejoin="round"/>
<path d="M447.988 701.376C467.021 720.185 455.261 789.438 448.974 790.593" stroke="white" stroke-width="4.19" stroke-linecap="round" stroke-linejoin="round"/>
<path d="M337.086 782.214L312.932 765.455" stroke="white" stroke-width="4.19" stroke-linecap="round" stroke-linejoin="round"/>
<path d="M371.426 638.611L390.157 616.431" stroke="white" stroke-width="4.19" stroke-linecap="round" stroke-linejoin="round"/>
<path d="M464.258 610.187L490.382 628.425" stroke="white" stroke-width="4.19" stroke-linecap="round" stroke-linejoin="round"/>
<path d="M612.625 633.848L633.326 610.187" stroke="white" stroke-width="4.19" stroke-linecap="round" stroke-linejoin="round"/>
<path d="M630.367 541.18L657.477 544.629" stroke="white" stroke-width="4.19" stroke-linecap="round" stroke-linejoin="round"/>
<path d="M708.74 441.61L736.344 427.809" stroke="white" stroke-width="4.19" stroke-linecap="round" stroke-linejoin="round"/>
<path d="M776.763 378.517L760.99 362.744" stroke="white" stroke-width="4.19" stroke-linecap="round" stroke-linejoin="round"/>
<path d="M746.205 330.212L762.964 320.353" stroke="white" stroke-width="4.19" stroke-linecap="round" stroke-linejoin="round"/>
<path d="M689.684 324.3C689.684 324.3 725.5 277.633 808.97 304.579" stroke="white" stroke-width="4.19" stroke-linecap="round" stroke-linejoin="round"/>
<path d="M732.403 373.589L710.715 358.8" stroke="white" stroke-width="4.19" stroke-linecap="round" stroke-linejoin="round"/>
<path d="M710.715 377.531L731.417 356.83" stroke="white" stroke-width="4.19" stroke-linecap="round" stroke-linejoin="round"/>
<path d="M697.24 528.363L719.586 496.489" stroke="white" stroke-width="4.19" stroke-linecap="round" stroke-linejoin="round"/>
<path d="M696.256 502.403L720.573 522.12" stroke="white" stroke-width="4.19" stroke-linecap="round" stroke-linejoin="round"/>
<path d="M565.467 603.614L544.107 580.612" stroke="white" stroke-width="4.19" stroke-linecap="round" stroke-linejoin="round"/>
<path d="M563.496 578.64L546.08 604.93" stroke="white" stroke-width="4.19" stroke-linecap="round" stroke-linejoin="round"/>
<path d="M407.406 652.907L430.409 675.581" stroke="white" stroke-width="4.19" stroke-linecap="round" stroke-linejoin="round"/>
<path d="M406.422 678.539L429.424 652.577" stroke="white" stroke-width="4.19" stroke-linecap="round" stroke-linejoin="round"/>
<path d="M804.369 602.63L782.68 586.855" stroke="white" stroke-width="4.19" stroke-linecap="round" stroke-linejoin="round"/>
<path d="M783.992 607.886L801.08 582.255" stroke="white" stroke-width="4.19" stroke-linecap="round" stroke-linejoin="round"/>
<path d="M826.057 209.94L847.746 187.267" stroke="white" stroke-width="4.19" stroke-linecap="round" stroke-linejoin="round"/>
<path d="M845.773 206.982L829.014 193.181" stroke="white" stroke-width="4.19" stroke-linecap="round" stroke-linejoin="round"/>
<path d="M497.773 155.72L513.546 129.103" stroke="white" stroke-width="4.19" stroke-linecap="round" stroke-linejoin="round"/>
<path d="M474.115 159.663L467.215 64.0378" stroke="white" stroke-width="4.19" stroke-linecap="round" stroke-linejoin="round"/>
<path d="M449.47 166.564L426.797 144.876" stroke="white" stroke-width="4.19" stroke-linecap="round" stroke-linejoin="round"/>
<path d="M651.723 61.2859L663.525 75.7729L682.148 74.2629L672.017 89.9629L679.208 107.21L661.145 102.427L646.965 114.595L645.932 95.9379L629.979 86.2119L647.401 79.4639L651.723 61.2859Z" stroke="white" stroke-width="4.19" stroke-linecap="round" stroke-linejoin="round"/>
<path d="M851.909 480.668L853.437 494.483L865.684 501.057L853.017 506.779L850.549 520.457L841.193 510.178L827.422 512.058L834.307 499.984L828.264 487.468L841.873 490.284L851.909 480.668Z" fill="white"/>
<path d="M838.119 63.9199C835.496 83.9799 835.087 104.851 841.802 123.935C848.517 143.019 863.418 160.109 883.014 165.135C890.437 167.041 898.859 167.015 905.161 162.653C911.463 158.291 914.315 148.64 909.573 142.619C904.151 135.738 892.297 137.731 886.752 144.513C881.207 151.295 880.508 160.782 881.047 169.526C884.115 219.243 918.569 263.226 920.131 313.012C920.481 324.182 919.05 335.673 913.854 345.568C908.658 355.463 899.254 363.56 888.199 365.195C880.808 366.289 872.035 363.561 869.319 356.601C866.603 349.641 874.781 340.434 881.143 344.35" stroke="white" stroke-width="4.19" stroke-linecap="round" stroke-linejoin="round"/>
<path fill-rule="evenodd" clip-rule="evenodd" d="M101.225 306.131C225.283 290.968 346.62 279.886 469.212 269.96C469.074 270.304 469.027 270.69 469.093 271.082L469.415 272.993C458.896 268.493 445.402 271.644 438.242 280.66C435.632 279.585 432.824 279.048 429.989 279.09C426.551 279.141 423.178 280.041 420.172 281.71C417.165 283.38 414.618 285.766 412.757 288.658C411.525 290.571 410.619 292.666 410.068 294.857C406.519 292.747 402.489 291.53 398.33 291.34C393.018 291.096 387.766 292.537 383.322 295.457C378.878 298.377 375.471 302.626 373.586 307.598C372.016 311.739 371.57 316.206 372.269 320.548C368.177 320.829 364.193 322.056 360.637 324.146C356.317 326.685 352.804 330.395 350.504 334.846C348.204 339.298 347.21 344.309 347.639 349.302C347.99 353.392 349.283 357.332 351.402 360.819C347.67 362.546 344.389 365.143 341.843 368.406C338.739 372.384 336.863 377.18 336.442 382.208C336.022 387.236 337.077 392.278 339.477 396.716C341.413 400.294 344.155 403.354 347.471 405.664C344.873 408.275 342.87 411.433 341.616 414.922C340.031 419.333 339.706 424.097 340.678 428.682C341.649 433.266 343.879 437.49 347.117 440.878C349.571 443.446 352.53 445.457 355.794 446.794C354.112 448.985 352.939 451.543 352.385 454.281C351.6 458.153 352.094 462.176 353.793 465.743C355.491 469.311 358.302 472.23 361.803 474.063C364.28 475.359 367.007 476.062 369.772 476.136C368.853 479.208 368.53 482.44 368.833 485.654C369.242 489.994 370.78 494.153 373.292 497.716C375.805 501.279 379.206 504.124 383.157 505.967C386.556 507.552 390.261 508.35 393.996 508.31C394.559 510.859 394.866 512.838 394.96 514.388C395.075 516.277 394.859 517.348 394.559 517.99C394.031 519.12 392.934 519.631 389.554 520.478C381.247 522.559 376.97 525.402 371.687 528.915L371.334 529.149C368.25 531.198 365.689 534.474 364.479 537.985C363.605 540.521 363.395 543.351 364.382 545.927C316.729 555.372 269.682 573.063 232.168 604.262C193.89 636.097 166.467 683.328 165.997 733.386C165.986 734.543 166.915 735.49 168.072 735.501C169.229 735.512 170.176 734.583 170.187 733.426C170.643 684.86 197.294 638.715 234.847 607.484C272.399 576.253 319.858 558.691 368.087 549.475C368.824 549.334 369.429 548.81 369.674 548.1C369.919 547.391 369.766 546.605 369.272 546.04C367.781 544.33 367.541 541.961 368.44 539.35C369.345 536.724 371.321 534.188 373.653 532.639L373.966 532.431C379.185 528.962 382.967 526.447 390.573 524.542L390.65 524.523C393.559 523.794 396.858 522.967 398.355 519.764C399.074 518.225 399.277 516.356 399.143 514.134C399.007 511.9 398.517 509.122 397.68 505.642C397.424 504.58 396.402 503.904 395.343 504.058C391.767 504.337 388.18 503.686 384.928 502.17C381.639 500.635 378.808 498.267 376.717 495.301C374.625 492.335 373.345 488.874 373.004 485.26C372.663 481.647 373.273 478.007 374.773 474.702C375.093 473.998 374.999 473.176 374.529 472.563C374.06 471.949 373.29 471.644 372.528 471.768C369.524 472.259 366.442 471.762 363.746 470.35C361.049 468.939 358.884 466.69 357.576 463.942C356.267 461.194 355.887 458.096 356.491 455.113C357.095 452.13 358.652 449.424 360.927 447.402C361.505 446.888 361.752 446.098 361.572 445.346C361.391 444.594 360.81 444.003 360.062 443.808C356.279 442.825 352.846 440.808 350.146 437.983C347.446 435.158 345.587 431.636 344.777 427.813C343.966 423.99 344.237 420.017 345.559 416.34C346.88 412.662 349.2 409.425 352.259 406.993C352.809 406.555 353.103 405.87 353.042 405.169C352.98 404.468 352.57 403.845 351.951 403.51C348.23 401.498 345.176 398.444 343.163 394.722C341.15 391.001 340.266 386.773 340.618 382.557C340.97 378.341 342.544 374.319 345.147 370.983C347.749 367.647 351.268 365.143 355.272 363.776C355.908 363.558 356.401 363.049 356.598 362.406C356.683 362.128 356.708 361.84 356.677 361.56C357.019 362.482 357.38 363.395 357.755 364.299C353.825 365.984 350.47 368.775 348.099 372.333C345.728 375.891 344.444 380.062 344.402 384.338C344.361 388.613 345.564 392.808 347.865 396.412C350.166 400.015 353.466 402.871 357.363 404.632C353.437 406.877 350.352 410.342 348.577 414.502C346.802 418.661 346.434 423.287 347.53 427.674C348.626 432.062 351.125 435.971 354.647 438.808C358.169 441.644 362.521 443.253 367.042 443.388C363.792 445.115 361.296 447.982 360.032 451.438C358.768 454.894 358.826 458.695 360.194 462.111C361.563 465.527 364.145 468.317 367.446 469.944C370.746 471.572 374.532 471.922 378.075 470.928C375.636 474.275 374.289 478.293 374.218 482.434C374.147 486.575 375.356 490.636 377.68 494.064C380.004 497.493 383.328 500.12 387.201 501.588C391.073 503.057 395.304 503.294 399.317 502.268L399.401 502.254C400.155 509.6 400.918 516.941 401.691 524.278C395.169 524.778 388.491 525.521 382.791 528.705C376.62 532.159 371.942 539.338 373.688 546.181C373.952 547.207 374.351 548.193 374.875 549.114L374.554 549.309C312.894 557.675 255.732 588.651 214.462 635.209C193.444 658.909 176.391 687.582 173.221 719.103C172.662 724.65 172.605 730.235 173.053 735.792L172.285 735.848C165.459 736.208 159.483 737.233 152.848 738.371L152.841 738.372C151.495 738.603 150.123 738.839 148.711 739.074C140.331 739.074 131.952 732.091 130.555 722.315C129.155 699.969 94.2438 366.184 88.6548 336.856C87.2548 324.286 87.2548 307.527 101.225 306.131ZM353.802 344.439C353.305 349.929 354.489 355.409 356.342 360.637C356.328 360.617 356.315 360.596 356.3 360.576C356.289 360.56 356.277 360.544 356.265 360.528C353.717 357.164 352.174 353.148 351.813 348.943C351.453 344.739 352.289 340.518 354.226 336.77C356.163 333.021 359.122 329.897 362.76 327.758C366.398 325.62 370.567 324.555 374.784 324.687C375.448 324.708 376.082 324.413 376.494 323.892C376.905 323.371 377.045 322.685 376.872 322.045C375.711 317.765 375.933 313.229 377.504 309.083C379.076 304.937 381.917 301.394 385.623 298.959C389.328 296.524 393.708 295.322 398.138 295.525C402.567 295.728 406.819 297.326 410.286 300.089C410.892 300.572 411.714 300.681 412.425 300.373C413.135 300.065 413.618 299.39 413.68 298.618C413.899 295.879 414.793 293.236 416.28 290.926C417.767 288.615 419.803 286.708 422.206 285.374C424.608 284.04 427.304 283.321 430.051 283.28C432.799 283.239 435.514 283.879 437.955 285.141C438.9 285.629 440.061 285.333 440.655 284.45C446.722 275.443 460.25 272.478 469.654 277.777C469.436 277.674 469.215 277.575 468.992 277.48C465.588 276.025 461.85 275.53 458.184 276.048C454.518 276.566 451.063 278.077 448.195 280.419C445.327 282.76 443.154 285.842 441.913 289.33C439.442 286.769 436.194 285.098 432.674 284.578C429.154 284.058 425.561 284.718 422.455 286.455C419.35 288.192 416.907 290.908 415.508 294.179C414.108 297.451 413.832 301.094 414.721 304.539C407.221 296.033 392.711 295.07 384.136 302.486C376.427 309.175 374.779 321.619 379.904 330.32C376.064 326.367 369.276 325.376 364.165 327.862C358.048 330.836 354.431 337.652 353.802 344.439ZM477.498 284.302C475.958 282.158 474.021 280.343 471.802 278.95C472.319 279.05 472.866 278.953 473.327 278.657C474.035 278.204 474.403 277.373 474.263 276.544L473.925 274.538C473.691 273.154 473.458 271.77 473.225 270.386C473.18 270.12 473.087 269.875 472.956 269.657L474.059 269.568H474.198C474.271 274.654 475.395 279.67 477.498 284.302ZM261.634 409.734C262.338 409.359 263.193 409.415 263.842 409.879L275.035 417.895L287.985 413.22C288.735 412.949 289.574 413.127 290.149 413.68C290.724 414.233 290.935 415.064 290.694 415.824L286.527 428.946L294.976 439.818C295.465 440.447 295.555 441.3 295.207 442.018C294.859 442.735 294.133 443.193 293.336 443.198L279.568 443.291L271.841 454.686C271.393 455.346 270.61 455.695 269.82 455.585C269.03 455.476 268.37 454.928 268.119 454.171L263.775 441.106L250.55 437.278C249.784 437.056 249.211 436.418 249.07 435.633C248.93 434.848 249.248 434.052 249.89 433.579L260.973 425.41L260.528 411.65C260.502 410.853 260.931 410.11 261.634 409.734ZM264.853 415.757L265.197 426.375C265.219 427.065 264.901 427.721 264.346 428.13L255.793 434.433L265.998 437.388C266.661 437.58 267.186 438.085 267.404 438.739L270.756 448.821L276.719 440.027C277.106 439.457 277.749 439.113 278.439 439.108L289.062 439.037L282.543 430.648C282.119 430.103 281.991 429.385 282.2 428.728L285.415 418.602L275.422 422.21C274.774 422.444 274.052 422.344 273.491 421.942L264.853 415.757ZM302.59 374.559L301.099 367.238L296.195 372.875L288.771 372.03L292.617 378.436L289.52 385.236L296.8 383.559L302.31 388.605L302.965 381.162L309.467 377.482L302.59 374.559Z" fill="white"/>
<path d="M620.129 116.631L621.236 126.648L630.116 131.414L620.932 135.563L619.143 145.481L612.358 138.028L602.373 139.391L607.365 130.636L602.983 121.561L612.851 123.603L620.129 116.631Z" fill="white"/>
<path d="M786.648 241.031C788.16 219.891 786.152 198.647 780.707 178.164" stroke="white" stroke-width="4.19" stroke-linecap="round" stroke-linejoin="round"/>
<path d="M672.559 645.108C695.301 629.195 714.503 608.747 728.959 585.052" stroke="white" stroke-width="4.19" stroke-linecap="round" stroke-linejoin="round"/>
<g opacity="0.1">
<path d="M500.387 356.173C491.387 354.873 482.438 353.315 473.364 352.645C463.95 351.95 454.532 352.294 445.119 351.883C436.366 351.501 428.08 349.864 419.292 351.083C411.992 352.097 404.773 354.796 399.376 360.006C393.489 365.689 391.892 373.606 391.076 381.434C390.159 390.267 390.288 399.272 390.236 408.142C390.124 427.055 390.736 445.955 392.074 464.842C393.69 486.443 396.486 507.939 400.449 529.234L410.656 519.027C400.38 517.496 390.121 520.527 383.089 528.492C379.888 532.152 377.654 536.554 376.589 541.298C375.483 545.914 375.255 549.925 370.699 552.325C362.431 556.682 351.294 556.577 342.263 558.564C332.223 560.776 322.349 563.685 312.714 567.269C274.006 581.656 237.84 605.412 211.376 637.309C183.366 671.071 159.46 718.136 176.703 762.34C184.212 781.592 197.783 797.894 217.216 805.796C239.825 814.989 265.303 810.689 288.747 807.88C348.413 800.731 408.281 794.988 468.031 788.58C473.191 788.026 477.64 784.559 477.64 778.97C477.64 774.202 473.224 768.807 468.031 769.361L318.299 785.343C306.153 786.643 294.011 787.934 281.851 789.079C270.516 790.147 259.177 791.661 247.769 791.511C229.181 791.267 212.457 784.589 201.969 768.695C178.744 733.495 195.918 690.064 218.102 659.039C240.54 627.711 270.864 602.873 305.999 587.046C315.72 582.764 325.751 579.221 336.005 576.446C346.245 573.641 356.657 572.295 367.005 570.076C377.86 567.746 387.457 562.138 390.605 550.876C391.876 546.33 391.931 541.591 395.605 538.182C397.01 536.863 398.705 535.891 400.553 535.344C402.402 534.797 404.352 534.69 406.25 535.032C410.87 535.961 417.518 532.786 416.75 527.032C412.132 493.126 409.403 458.989 408.575 424.779C408.399 416.302 408.368 407.824 408.484 399.343C408.584 392.143 407.963 384.251 409.436 377.164C409.853 374.576 410.767 372.093 412.128 369.852C413.775 367.473 416.644 366.66 419.341 365.997C426.332 364.276 433.709 363.836 440.794 362.489C450.394 360.665 460.701 361.343 470.443 361.514C480.185 361.685 489.874 361.46 499.588 362.07C502.909 362.279 503.755 356.67 500.388 356.177L500.387 356.173Z" fill="white"/>
</g>
<g opacity="0.1">
<path d="M507.779 558.477C517.356 564.523 530.736 562.7 541.587 562.818C553.174 562.945 566.145 560.018 577.148 556.502C599.862 549.268 620.952 537.682 639.24 522.391C678.189 489.769 697.414 439.65 705.468 390.718C710.488 360.218 711.734 329.383 712.535 298.531C712.882 285.205 692.028 285.183 691.817 298.531C691.039 347.674 690.147 398.342 672.236 444.8C655.925 487.108 623.491 520.674 580.999 536.954C569.466 541.442 557.551 544.876 545.399 547.215C539.165 548.377 533.262 549.653 526.899 550.067C520.789 550.467 514.225 550.522 508.519 552.823C506.096 553.799 505.372 556.957 507.78 558.477H507.779Z" fill="white"/>
</g>
</g>
</g>
<defs>
<linearGradient id="paint0_linear_278_8810" x1="490.823" y1="272.294" x2="490.823" y2="811.44" gradientUnits="userSpaceOnUse">
<stop stop-color="#FD6F8E"/>
<stop offset="1" stop-color="#FF0769"/>
</linearGradient>
<linearGradient id="paint1_linear_278_8810" x1="440.626" y1="519.131" x2="440.626" y2="558.807" gradientUnits="userSpaceOnUse">
<stop stop-color="#FD6F8E"/>
<stop offset="1" stop-color="#FF0769"/>
</linearGradient>
<linearGradient id="paint2_linear_278_8810" x1="165.696" y1="244.186" x2="165.696" y2="286.212" gradientUnits="userSpaceOnUse">
<stop stop-color="#FD6F8E"/>
<stop offset="1" stop-color="#FF0769"/>
</linearGradient>
<clipPath id="clip0_278_8810">
<rect width="960" height="960" fill="white"/>
</clipPath>
</defs>
</svg>
